<?xml version="1.0" encoding="UTF-8" standalone="no"?>
<!-- Created with Inkscape (http://www.inkscape.org/) -->

<svg
   xmlns:dc="http://purl.org/dc/elements/1.1/"
   xmlns:cc="http://creativecommons.org/ns#"
   xmlns:rdf="http://www.w3.org/1999/02/22-rdf-syntax-ns#"
   xmlns:svg="http://www.w3.org/2000/svg"
   xmlns="http://www.w3.org/2000/svg"
   xmlns:sodipodi="http://sodipodi.sourceforge.net/DTD/sodipodi-0.dtd"
   xmlns:inkscape="http://www.inkscape.org/namespaces/inkscape"
   width="100"
   height="100"
   id="svg2"
   version="1.1"
   inkscape:version="0.48.5 r10040"
   sodipodi:docname="axe.svg">
  <defs
     id="defs4">
    <inkscape:path-effect
       effect="spiro"
       id="path-effect4237"
       is_visible="true" />
    <inkscape:path-effect
       effect="spiro"
       id="path-effect4233"
       is_visible="true" />
    <inkscape:path-effect
       effect="spiro"
       id="path-effect4229"
       is_visible="true" />
    <inkscape:path-effect
       effect="spiro"
       id="path-effect4225"
       is_visible="true" />
    <inkscape:path-effect
       effect="spiro"
       id="path-effect4221"
       is_visible="true" />
    <inkscape:path-effect
       effect="spiro"
       id="path-effect3437"
       is_visible="true" />
    <inkscape:path-effect
       effect="spiro"
       id="path-effect3433"
       is_visible="true" />
    <inkscape:path-effect
       effect="spiro"
       id="path-effect3421"
       is_visible="true" />
    <inkscape:path-effect
       effect="spiro"
       id="path-effect3393"
       is_visible="true" />
    <inkscape:path-effect
       effect="spiro"
       id="path-effect3377"
       is_visible="true" />
    <inkscape:path-effect
       effect="spiro"
       id="path-effect3361"
       is_visible="true" />
    <inkscape:path-effect
       effect="spiro"
       id="path-effect3345"
       is_visible="true" />
    <inkscape:path-effect
       effect="spiro"
       id="path-effect3329"
       is_visible="true" />
  </defs>
  <sodipodi:namedview
     id="base"
     pagecolor="#ffffff"
     bordercolor="#666666"
     borderopacity="1.0"
     inkscape:pageopacity="0.0"
     inkscape:pageshadow="2"
     inkscape:zoom="5.8611001"
     inkscape:cx="-2.8799601"
     inkscape:cy="52.560018"
     inkscape:document-units="px"
     inkscape:current-layer="layer1"
     showgrid="false"
     inkscape:window-width="1680"
     inkscape:window-height="988"
     inkscape:window-x="-8"
     inkscape:window-y="-8"
     inkscape:window-maximized="1" />
  <metadata
     id="metadata7">
    <rdf:RDF>
      <cc:Work
         rdf:about="">
        <dc:format>image/svg+xml</dc:format>
        <dc:type
           rdf:resource="http://purl.org/dc/dcmitype/StillImage" />
        <dc:title />
      </cc:Work>
    </rdf:RDF>
  </metadata>
  <g
     inkscape:label="Layer 1"
     inkscape:groupmode="layer"
     id="layer1"
     transform="translate(0,-952.36218)"
     style="display:inline">
    <path
       style="opacity:0.72123892;fill:#6c5d53;fill-opacity:1;stroke:#241c1c;stroke-width:2.38875198;stroke-linecap:butt;stroke-linejoin:miter;stroke-miterlimit:4;stroke-opacity:1;stroke-dasharray:none;stroke-dashoffset:0"
       d=""
       id="path3299"
       inkscape:connector-curvature="0"
       transform="translate(0,952.36218)" />
    <path
       style="fill:none;stroke:#000000;stroke-width:2.70000005;stroke-linecap:butt;stroke-linejoin:miter;stroke-miterlimit:4;stroke-opacity:1;stroke-dasharray:none"
       d="m 38.428017,993.60446 c -5.101552,-4.37274 -4.824806,-11.73209 0,-16.72039 10.875263,11.21855 37.436727,-2.22966 22.521369,-15.01425 29.009439,7.06123 23.698086,44.00728 -4.77726,52.54988 5.196005,-11.6045 -5.678712,-31.157 -17.744109,-20.81524 z"
       id="path3975"
       inkscape:connector-curvature="0" />
    <path
       style="fill:none;stroke:#000000;stroke-width:2.84856009;stroke-linecap:butt;stroke-linejoin:miter;stroke-miterlimit:4;stroke-opacity:1;stroke-dasharray:none"
       d="m 41.637373,978.76266 c 2.347159,-10.68139 13.352436,-8.48227 11.034956,2.18457"
       id="path3977"
       inkscape:connector-curvature="0" />
    <path
       style="fill:none;stroke:#000000;stroke-width:2.70000005;stroke-linecap:butt;stroke-linejoin:miter;stroke-miterlimit:4;stroke-opacity:1;stroke-dasharray:none"
       d="m 40.475413,992.23955 c 0.58769,12.06495 -28.665129,48.79555 -21.156438,52.54985 6.989506,3.4948 25.506269,-44.9341 29.346027,-53.57355"
       id="path3987"
       inkscape:connector-curvature="0" />
    <path
       style="fill:none;stroke:#000000;stroke-width:1px;stroke-linecap:butt;stroke-linejoin:miter;stroke-opacity:1"
       d="m 18.63651,1044.1069 c -7.30093,3.6782 7.212648,4.5079 0,0 z"
       id="path3995"
       inkscape:connector-curvature="0" />
    <path
       style="fill:none;stroke:#000000;stroke-width:2.70000005;stroke-linecap:butt;stroke-linejoin:miter;stroke-miterlimit:4;stroke-opacity:1;stroke-dasharray:none"
       d="m 57.87829,1009.3012 c 17.019761,-6.3819 24.880901,-34.66704 6.142191,-42.99535"
       id="path4013"
       inkscape:connector-curvature="0" />
    <path
       style="fill:none;stroke:#000000;stroke-width:1px;stroke-linecap:butt;stroke-linejoin:miter;stroke-opacity:1"
       d="m 18.977742,1038.1354 c 4.404655,0.6464 6.324742,-1.6533 9.554521,-2.7299"
       id="path4068"
       inkscape:connector-curvature="0" />
    <path
       style="fill:none;stroke:#000000;stroke-width:1px;stroke-linecap:butt;stroke-linejoin:miter;stroke-opacity:1"
       d="m 20.683907,1033.5287 c 2.817616,-0.5447 6.382434,-0.08 8.701438,-0.8531"
       id="path4070"
       inkscape:connector-curvature="0" />
    <path
       style="fill:none;stroke:#000000;stroke-width:1.5;stroke-linecap:butt;stroke-linejoin:miter;stroke-miterlimit:4;stroke-opacity:1;stroke-dasharray:none"
       d="m 23.925619,1028.9221 c 2.64739,1.1433 4.161224,2.4699 5.459726,3.5829"
       id="path4072"
       inkscape:connector-curvature="0" />
    <path
       style="fill:none;stroke:#000000;stroke-width:1px;stroke-linecap:butt;stroke-linejoin:miter;stroke-opacity:1"
       d="m 25.631783,1026.0216 c 1.937416,1.8879 3.641971,3.4188 4.265411,5.2891"
       id="path4074"
       inkscape:connector-curvature="0" />
    <path
       style="fill:none;stroke:#000000;stroke-width:1px;stroke-linecap:butt;stroke-linejoin:miter;stroke-opacity:1"
       d="m 24.608085,1040.3534 c -1.835105,-1.0714 -2.272796,-1.6046 -4.265411,-2.0474"
       id="path4076"
       inkscape:connector-curvature="0" />
    <path
       style="fill:none;stroke:#000000;stroke-width:1px;stroke-linecap:butt;stroke-linejoin:miter;stroke-opacity:1"
       d="m 25.119934,1040.1828 c -2.232932,0.6144 -4.680252,0.3059 -6.824657,-0.1707"
       id="path4080"
       inkscape:connector-curvature="0" />
    <path
       style="fill:none;stroke:#000000;stroke-width:1px;stroke-linecap:butt;stroke-linejoin:miter;stroke-opacity:1"
       d="m 24.949318,1026.1922 c 1.819426,-1.1254 5.120812,0.428 7.16589,1.7062"
       id="path4084"
       inkscape:connector-curvature="0" />
    <path
       style="fill:none;stroke:#000000;stroke-width:1px;stroke-linecap:butt;stroke-linejoin:miter;stroke-opacity:1"
       d="m 29.555961,1032.6756 c -0.09774,-0.8213 0.100066,-0.9006 0.170617,-1.5355"
       id="path4086"
       inkscape:connector-curvature="0" />
    <path
       style="fill:none;stroke:#000000;stroke-width:1px;stroke-linecap:butt;stroke-linejoin:miter;stroke-opacity:1"
       d="m 42.044447,979.49318 c -0.0425,-0.72071 0.173016,-1.30323 0.361933,-1.86998"
       id="path4094"
       inkscape:connector-curvature="0" />
    <path
       style="fill:#808080;stroke:#000000;stroke-width:1px;stroke-linecap:butt;stroke-linejoin:miter;stroke-opacity:1"
       d="m 52.902411,979.73447 c -0.149034,0.3353 -0.160631,0.64252 -0.180966,0.72386"
       id="path4096"
       inkscape:connector-curvature="0" />
    <path
       style="fill:#cccccc;fill-opacity:1;stroke:#615b5b;stroke-width:0.04180103;stroke-linecap:butt;stroke-linejoin:miter;stroke-miterlimit:4;stroke-opacity:1;stroke-dasharray:none;stroke-dashoffset:0"
       d="m 57.96722,1006.6184 c -0.36842,-7.53708 -4.640881,-14.39628 -10.018022,-16.08341 -1.432971,-0.44961 -3.629237,-0.48527 -5.033185,-0.0817 -1.12356,0.32295 -3.369694,1.46194 -3.952648,2.00435 -0.259726,0.24167 -0.450898,0.29855 -0.642652,0.19124 -0.454708,-0.25447 -1.653782,-1.94896 -2.148698,-3.03648 -1.541654,-3.3876 -0.937603,-7.61473 1.566987,-10.96573 l 0.672192,-0.89935 1.01513,0.78112 c 5.252954,4.04206 13.53416,4.14076 20.379713,0.24289 1.550522,-0.88287 3.720444,-2.8478 4.587595,-4.15422 1.178586,-1.77562 1.698759,-3.7725 1.471602,-5.6493 -0.06815,-0.56304 -0.108803,-1.04321 -0.09035,-1.06705 0.01845,-0.0238 0.564285,0.33066 1.212957,0.78778 4.754742,3.35064 7.235642,8.44885 7.234596,14.86697 -8.53e-4,5.32808 -1.777689,10.93151 -4.9503,15.61141 -2.69284,3.97218 -6.598718,7.40498 -10.275731,9.03108 l -0.931827,0.4121 -0.09736,-1.9917 z"
       id="path4098"
       inkscape:connector-curvature="0" />
    <path
       style="fill:#e6e6e6;fill-opacity:1;stroke:#615b5b;stroke-width:0.04180103;stroke-linecap:butt;stroke-linejoin:miter;stroke-miterlimit:4;stroke-opacity:1;stroke-dasharray:none;stroke-dashoffset:0"
       d="m 57.552235,1012.0065 c 0.17714,-0.7746 0.350995,-1.5638 0.386344,-1.7539 0.04578,-0.2462 0.487695,-0.5363 1.536107,-1.0085 11.533686,-5.1945 18.699632,-20.83918 14.892522,-32.51328 -1.27974,-3.92418 -4.222693,-7.59642 -7.769891,-9.69533 -1.097964,-0.64967 -1.609198,-1.06293 -1.794052,-1.45024 -0.142188,-0.29791 -0.54279,-0.91389 -0.890226,-1.36884 -0.347436,-0.45496 -0.590562,-0.86834 -0.54028,-0.91862 0.136256,-0.13626 2.029364,0.5925 3.770788,1.45158 8.316328,4.1026 12.925297,11.89185 12.490652,21.10943 -0.184602,3.91487 -1.142373,7.39113 -3.10252,11.26069 -3.052732,6.02641 -7.599815,10.60531 -13.860133,13.95701 -1.529721,0.819 -4.059171,1.9293 -5.091335,2.2348 l -0.350048,0.1036 0.322072,-1.4084 0,0 z"
       id="path4100"
       inkscape:connector-curvature="0" />
    <path
       style="fill:#ac9393;fill-opacity:1;stroke:#6c5353;stroke-width:0.94199997;stroke-linecap:butt;stroke-linejoin:miter;stroke-miterlimit:4;stroke-opacity:1;stroke-dasharray:none;stroke-dashoffset:0"
       d="m 30.546322,1026.4328 c -0.981293,-0.5054 -1.919186,-0.8368 -2.90048,-1.025 -0.797631,-0.153 -1.476874,-0.2985 -1.509429,-0.3234 -0.03255,-0.025 0.87944,-1.7206 2.026653,-3.7681 1.147213,-2.0476 2.817694,-5.0281 3.712181,-6.6233 5.588862,-9.9674 8.650111,-16.93194 8.999323,-20.47399 0.17409,-1.76579 0.181763,-1.78009 1.196599,-2.22889 1.43631,-0.63521 3.086248,-0.8531 4.519847,-0.59691 0.653161,0.11673 1.187566,0.25962 1.187566,0.31753 0,0.13254 -2.900904,7.1056 -5.997359,14.41616 -4.054539,9.5726 -9.3452,21.1366 -9.64415,21.0796 -0.07728,-0.015 -0.793119,-0.3629 -1.590751,-0.7737 z"
       id="path4102"
       inkscape:connector-curvature="0" />
    <path
       style="fill:#ac9393;fill-opacity:1;stroke:#6c5353;stroke-width:0.56099999;stroke-linecap:butt;stroke-linejoin:miter;stroke-miterlimit:4;stroke-opacity:1;stroke-dasharray:none;stroke-dashoffset:0"
       d="m 19.297852,1043.8174 c -0.554573,-0.463 -0.571815,-0.5155 -0.564285,-1.7184 0.0043,-0.6825 0.03899,-1.272 0.07715,-1.3102 0.03816,-0.038 0.525323,0.01 1.082579,0.096 0.557256,0.091 1.723384,0.1664 2.591395,0.1669 0.868011,6e-4 1.578202,0.045 1.578202,0.098 0,0.267 -1.561395,1.8997 -2.373751,2.4822 -1.097613,0.787 -1.621284,0.8274 -2.391294,0.1846 z"
       id="path4104"
       inkscape:connector-curvature="0" />
    <path
       style="fill:#c8beb7;fill-opacity:1;stroke:#6c5353;stroke-width:0.69599998;stroke-linecap:butt;stroke-linejoin:miter;stroke-miterlimit:4;stroke-opacity:1;stroke-dasharray:none;stroke-dashoffset:0"
       d="m 46.179132,980.2306 c -1.638531,-0.3414 -3.35712,-0.93527 -3.456573,-1.19444 -0.046,-0.11987 0.04658,-0.66841 0.20572,-1.21898 0.747566,-2.5863 1.859261,-4.17102 3.501782,-4.9918 1.384741,-0.69196 2.337976,-0.70638 3.586324,-0.0542 1.751637,0.91507 2.455596,2.57664 2.334709,5.51067 -0.04211,1.02206 -0.126024,1.90775 -0.186474,1.9682 -0.239853,0.23985 -4.812347,0.22502 -5.985488,-0.0194 z"
       id="path4106"
       inkscape:connector-curvature="0" />
    <path
       style="fill:#c8beb7;fill-opacity:1;stroke:#6c5d53;stroke-width:0.61900002;stroke-linecap:butt;stroke-linejoin:miter;stroke-miterlimit:4;stroke-opacity:1;stroke-dasharray:none;stroke-dashoffset:0"
       d="m 22.015437,1032.7323 c 8e-5,-0.058 1.558005,-3.1768 1.623356,-3.2495 0.104596,-0.1165 2.112587,1.009 3.318826,1.8602 1.198474,0.8457 1.248963,0.9067 0.853082,1.0304 -0.395686,0.1237 -5.795399,0.4581 -5.795264,0.3589 l 0,0 z"
       id="path4108"
       inkscape:connector-curvature="0" />
    <path
       style="fill:#c8beb7;fill-opacity:1;stroke:#6c5d53;stroke-width:0.60600001;stroke-linecap:butt;stroke-linejoin:miter;stroke-miterlimit:4;stroke-opacity:1;stroke-dasharray:none;stroke-dashoffset:0"
       d="m 19.919476,1037.3423 c 0.655461,-1.7587 1.436345,-3.2052 1.787029,-3.3103 0.216867,-0.065 1.814685,-0.1959 3.550707,-0.2908 1.736023,-0.095 3.30381,-0.2294 3.483972,-0.2986 0.300107,-0.1153 0.292955,-0.063 -0.08531,0.6192 -0.368151,0.6643 -0.625422,0.8514 -2.374965,1.727 -2.43516,1.2188 -4.332486,1.8521 -5.548487,1.8521 -0.808866,0 -0.910338,-0.037 -0.812948,-0.2986 z"
       id="path4110"
       inkscape:connector-curvature="0" />
    <path
       style="fill:#c8beb7;fill-opacity:1;stroke:#6c5d53;stroke-width:0.60299999;stroke-linecap:butt;stroke-linejoin:miter;stroke-miterlimit:4;stroke-opacity:1;stroke-dasharray:none;stroke-dashoffset:0"
       d="m 19.797486,1039.7085 c -0.328436,-0.058 -0.577963,-0.1631 -0.554503,-0.2335 0.02346,-0.07 0.04265,-0.2535 0.04265,-0.4071 0,-0.2339 0.12828,-0.2615 0.7931,-0.1704 0.436205,0.06 1.184785,0.2942 1.66351,0.5209 l 0.870411,0.4121 -1.109007,-0.01 c -0.609954,0 -1.377728,-0.056 -1.706165,-0.1138 z"
       id="path4112"
       inkscape:connector-curvature="0" />
    <path
       style="fill:#c8beb7;fill-opacity:1;stroke:#6c5d53;stroke-width:0.70300001;stroke-linecap:butt;stroke-linejoin:miter;stroke-miterlimit:4;stroke-opacity:1;stroke-dasharray:none;stroke-dashoffset:0"
       d="m 23.734673,1039.1415 c -0.894146,-0.5211 -0.911423,-0.5449 -0.511849,-0.7061 0.227443,-0.092 1.13571,-0.5008 2.018373,-0.909 0.882662,-0.4082 1.637903,-0.7091 1.678312,-0.6687 0.160523,0.1605 -1.707021,2.8304 -1.977304,2.8268 -0.155183,0 -0.698572,-0.2464 -1.207532,-0.543 z"
       id="path4114"
       inkscape:connector-curvature="0" />
    <path
       style="fill:#c8beb7;fill-opacity:1;stroke:#6c5d53;stroke-width:0.41999999;stroke-linecap:butt;stroke-linejoin:miter;stroke-miterlimit:4;stroke-opacity:1;stroke-dasharray:none;stroke-dashoffset:0"
       d="m 27.731151,1030.4493 c -0.656874,-0.4724 -1.715592,-1.1231 -2.352707,-1.4459 l -1.158392,-0.5869 0.475926,-0.8473 c 0.261759,-0.4661 0.558584,-0.8475 0.659609,-0.8476 0.289112,-3e-4 2.698881,2.5539 3.291018,3.4882 0.887841,1.4009 0.749711,1.4371 -0.915454,0.2395 z"
       id="path4116"
       inkscape:connector-curvature="0" />
    <path
       style="fill:#c8beb7;fill-opacity:1;stroke:#6c5d53;stroke-width:0.472;stroke-linecap:butt;stroke-linejoin:miter;stroke-miterlimit:4;stroke-opacity:1;stroke-dasharray:none;stroke-dashoffset:0"
       d="m 30.205089,1030.5791 c 0,-0.3333 -1.408538,-2.236 -2.445215,-3.3032 -0.478582,-0.4926 -0.823276,-0.8957 -0.765987,-0.8957 0.425762,0 2.649334,0.8283 3.57608,1.3322 l 1.132652,0.6158 -0.615562,1.244 c -0.587312,1.1869 -0.881968,1.5233 -0.881968,1.0069 z"
       id="path4118"
       inkscape:connector-curvature="0" />
    <path
       style="fill:#b3b3b3;fill-opacity:1;stroke:#808080;stroke-width:0.498;stroke-linecap:butt;stroke-linejoin:miter;stroke-miterlimit:4;stroke-opacity:1;stroke-dasharray:none;stroke-dashoffset:0"
       d="m 17.536819,1046.3287 c -0.432015,-0.2517 -0.368423,-0.553 0.206361,-0.978 0.622215,-0.46 0.692496,-0.4606 1.451805,-0.013 0.753855,0.4448 1.054356,0.9253 0.670731,1.0725 -0.426526,0.1637 -2.002412,0.1082 -2.328897,-0.082 z"
       id="path4120"
       inkscape:connector-curvature="0" />
    <path
       style="fill:#cccccc;fill-opacity:1;stroke:#999999;stroke-width:0;stroke-linecap:butt;stroke-linejoin:miter;stroke-miterlimit:4;stroke-opacity:1;stroke-dasharray:none;stroke-dashoffset:0"
       d="m 58.183484,1008.3394 c -0.0015,-0.071 -0.07665,-1.0221 -0.167024,-2.1126 -0.832982,-10.05075 -7.517077,-17.40624 -14.491294,-15.94687 -1.457468,0.30498 -3.897716,1.45293 -4.616503,2.17172 l -0.490491,0.49049 -0.802223,-1.19569 c -0.441222,-0.65763 -0.868784,-1.19569 -0.950137,-1.19569 -0.08135,0 -0.132703,-0.0576 -0.114112,-0.12797 0.0634,-0.24001 -0.226929,-0.89573 -0.396603,-0.89573 -0.09305,0 -0.121737,-0.0768 -0.06374,-0.17062 0.058,-0.0938 0.02655,-0.17062 -0.06988,-0.17062 -0.09643,0 -0.131138,-0.11516 -0.07712,-0.25592 0.05401,-0.14076 0.0087,-0.25592 -0.100732,-0.25592 -0.109417,0 -0.14941,-0.0801 -0.08887,-0.17809 0.06054,-0.098 0.02007,-0.28654 -0.08993,-0.41907 -0.109996,-0.13254 -0.150464,-0.32112 -0.08993,-0.41907 0.06054,-0.0979 0.06103,-0.25744 0.0011,-0.35442 -0.167551,-0.2711 -0.212606,-3.40661 -0.04895,-3.40661 0.07936,0 0.09611,-0.19195 0.03723,-0.42655 -0.06873,-0.27383 -0.03523,-0.42654 0.09356,-0.42654 0.122967,0 0.158693,-0.13207 0.09231,-0.34123 -0.06073,-0.19134 -0.03066,-0.34123 0.06846,-0.34123 0.09722,0 0.127733,-0.12776 0.06781,-0.28392 -0.07962,-0.20747 -0.0474,-0.24587 0.119658,-0.14262 0.167059,0.10324 0.199273,0.0648 0.119657,-0.14263 -0.06,-0.15636 -0.0265,-0.28392 0.07457,-0.28392 0.100934,0 0.139322,-0.11516 0.08531,-0.25592 -0.05401,-0.14076 -0.01931,-0.25592 0.07712,-0.25592 0.09643,0 0.12788,-0.0768 0.06988,-0.17062 -0.058,-0.0938 -0.01961,-0.17062 0.08531,-0.17062 0.104915,0 0.143304,-0.0768 0.08531,-0.17061 -0.05799,-0.0938 -0.01961,-0.17062 0.08531,-0.17062 0.104916,0 0.148277,-0.0687 0.09636,-0.15274 -0.05192,-0.084 0.02519,-0.19863 0.171361,-0.25472 0.146167,-0.0561 0.222945,-0.17125 0.170617,-0.25592 -0.05233,-0.0847 0.02445,-0.19984 0.170616,-0.25593 0.146167,-0.0561 0.236422,-0.1601 0.200565,-0.23115 -0.03586,-0.071 0.172602,-0.38103 0.463239,-0.68888 l 0.528433,-0.55971 0.933532,0.70893 c 1.226274,0.93124 3.6652,2.08756 5.36956,2.54576 1.903307,0.51169 5.401492,0.63686 7.619041,0.27262 3.03764,-0.49895 6.344476,-1.77398 8.391962,-3.23575 1.736343,-1.23963 3.647786,-3.37218 4.312975,-4.8119 0.71453,-1.54651 1.053182,-3.48892 0.800666,-4.59242 -0.162146,-0.70857 -0.05601,-1.02009 0.20413,-0.59917 0.05894,0.0954 0.170595,0.1342 0.248116,0.0863 0.07752,-0.0479 0.186842,0.0325 0.24293,0.17864 0.05609,0.14617 0.170904,0.22317 0.25514,0.17111 0.08424,-0.0521 0.280096,0.0991 0.435243,0.33585 0.155145,0.23678 0.336292,0.40838 0.402549,0.38134 0.06626,-0.027 0.740438,0.58473 1.498181,1.35949 0.757743,0.77477 1.333574,1.41123 1.279623,1.41435 -0.05395,0.003 0.07139,0.14714 0.278542,0.32005 0.207147,0.17291 0.330518,0.36049 0.274158,0.41685 -0.05636,0.0564 0.02324,0.15071 0.176892,0.20968 0.15365,0.059 0.236551,0.17647 0.184221,0.26114 -0.05233,0.0847 0.02445,0.19984 0.170617,0.25593 0.146169,0.0561 0.22328,0.17071 0.171362,0.25472 -0.05192,0.084 -0.01309,0.15273 0.08629,0.15273 0.09938,0 0.163545,0.0576 0.142595,0.12797 -0.05921,0.1989 0.445701,1.23697 0.60166,1.23697 0.07647,0 0.09158,0.0768 0.03359,0.17061 -0.058,0.0938 -0.02655,0.17062 0.06988,0.17062 0.09643,0 0.126304,0.12776 0.06638,0.28391 -0.07962,0.20748 -0.0474,0.24588 0.119657,0.14263 0.167059,-0.10325 0.199273,-0.0649 0.119657,0.14263 -0.05992,0.15615 -0.03005,0.28391 0.06638,0.28391 0.09643,0 0.13116,0.0715 0.07717,0.15883 -0.05399,0.0874 -0.02349,0.20498 0.06779,0.26139 0.09127,0.0564 0.122699,0.21526 0.06984,0.35302 -0.05286,0.13775 -0.0059,0.25046 0.104257,0.25046 0.122724,0 0.1584,0.13223 0.09206,0.34123 -0.06073,0.19134 -0.03066,0.34123 0.06846,0.34123 0.09722,0 0.135546,0.1074 0.08517,0.23867 -0.05037,0.13127 -0.0093,0.28953 0.09129,0.35169 0.10058,0.0622 0.135881,0.30026 0.07844,0.52911 -0.06679,0.26612 -0.03139,0.41608 0.09824,0.41608 0.136056,0 0.166018,0.16687 0.09116,0.50769 -0.06133,0.27923 -0.05787,0.59446 0.0077,0.70053 0.162191,0.26243 0.194658,5.2753 0.03417,5.27525 -0.07032,-2e-5 -0.129408,0.24948 -0.1313,0.55446 -0.0019,0.30498 -0.005,0.80403 -0.007,1.10901 -0.0019,0.30497 -0.08617,0.5545 -0.18718,0.5545 -0.101005,0 -0.14351,0.15348 -0.09446,0.34106 0.04905,0.18759 0.01438,0.3873 -0.07704,0.4438 -0.09143,0.0565 -0.125961,0.20768 -0.07674,0.33594 0.04922,0.12826 0.01083,0.28182 -0.08531,0.34124 -0.09614,0.0594 -0.133583,0.21542 -0.08321,0.34669 0.05037,0.13127 0.009,0.23867 -0.09193,0.23867 -0.100935,0 -0.140267,0.11271 -0.08741,0.25046 0.05286,0.13775 0.01745,0.29907 -0.07869,0.35849 -0.09614,0.0594 -0.133582,0.21543 -0.08321,0.3467 0.05037,0.13126 0.009,0.23866 -0.09193,0.23866 -0.100935,0 -0.141226,0.11021 -0.08954,0.2449 0.05169,0.1347 0.02374,0.26906 -0.06212,0.29858 -0.08585,0.0295 -0.185496,0.20724 -0.22143,0.39491 -0.03593,0.18768 -0.202781,0.64835 -0.370773,1.0237 -0.167994,0.37536 -0.307168,0.77844 -0.309273,0.89574 -0.0021,0.1173 -0.07234,0.21327 -0.156077,0.21327 -0.08374,0 -0.104799,0.0768 -0.0468,0.17062 0.058,0.0938 0.02414,0.17061 -0.07524,0.17061 -0.09938,0 -0.180686,0.0661 -0.180686,0.14699 0,0.0808 -0.301264,0.69506 -0.669478,1.36493 -0.368213,0.66987 -0.617739,1.21912 -0.554504,1.22056 0.06324,10e-4 0.0345,0.059 -0.06386,0.12796 -0.280774,0.1968 -0.968791,1.23436 -0.818517,1.23436 0.07419,0 -0.03703,0.12042 -0.247161,0.26759 -0.210127,0.14718 -0.342819,0.33108 -0.294867,0.40867 0.04795,0.0775 -0.03853,0.18933 -0.192183,0.24823 -0.15365,0.059 -0.234244,0.1523 -0.179098,0.2075 0.05515,0.055 -0.129049,0.2932 -0.409325,0.5291 -0.280279,0.2358 -0.481598,0.4568 -0.447377,0.491 0.09276,0.093 -3.356068,3.5718 -3.489128,3.5197 -0.06286,-0.025 -0.274002,0.1583 -0.469196,0.4065 -0.195192,0.2481 -0.357448,0.3832 -0.36057,0.3002 -0.0031,-0.083 -0.156677,0.03 -0.341233,0.2518 -0.184556,0.2215 -0.337998,0.3367 -0.340982,0.2559 -0.003,-0.081 -0.118152,0 -0.255925,0.1843 -0.137774,0.1822 -0.250499,0.2729 -0.250499,0.2017 0,-0.071 -0.211138,0.02 -0.469195,0.202 -0.700032,0.4948 -3.283954,1.7627 -3.287067,1.613 l 7e-6,0 z"
       id="path4122"
       inkscape:connector-curvature="0" />
    <path
       style="fill:#e6e6e6;fill-opacity:1;stroke:#999999;stroke-width:0.21699999;stroke-linecap:butt;stroke-linejoin:miter;stroke-miterlimit:4;stroke-opacity:1;stroke-dasharray:none;stroke-dashoffset:0"
       d="m 57.699227,1011.7659 c 0.180988,-0.8122 0.370474,-1.5438 0.42108,-1.6257 0.05061,-0.082 0.795151,-0.502 1.654545,-0.9336 5.094786,-2.5588 8.969426,-6.372 11.942563,-11.75342 1.818208,-3.29096 2.969706,-6.76455 3.533916,-10.66034 0.271114,-1.87202 0.128157,-6.28106 -0.259864,-8.01462 -1.104742,-4.93563 -3.647607,-8.6187 -7.992434,-11.57618 -1.567498,-1.06698 -1.93858,-1.41478 -2.676947,-2.50899 -0.471455,-0.69867 -0.774159,-1.27031 -0.672676,-1.27031 0.438629,0 3.635555,1.48297 5.217019,2.42004 5.864511,3.4749 9.595886,9.09576 10.4949,15.80927 0.119738,0.89417 0.160212,2.48667 0.102579,4.03614 -0.147569,3.96742 -0.886981,6.84181 -2.765479,10.75051 -3.661434,7.6186 -9.793267,13.1296 -18.30529,16.452 -0.496129,0.1936 -0.929262,0.352 -0.962517,0.352 -0.03326,0 0.08762,-0.6645 0.268605,-1.4768 l 0,0 z"
       id="path4124"
       inkscape:connector-curvature="0" />
    <path
       style="fill:none;stroke:#333333;stroke-width:0.89999998;stroke-linecap:butt;stroke-linejoin:miter;stroke-miterlimit:4;stroke-opacity:1;stroke-dasharray:none"
       d="m 80.34893,964.29198 c -4.396628,9.426 5.914669,9.7567 7.721218,0.7239 -2.423282,4.4744 -6.942432,10.3881 -2.171592,14.4774 -3.71706,-1.6795 -6.971226,-2.0479 -7.962507,2.4129 1.610876,-5.1263 -1.063321,-7.2485 -5.790914,-7.7213"
       id="path4322"
       inkscape:connector-curvature="0" />
    <path
       style="fill:none;stroke:#000000;stroke-width:1px;stroke-linecap:butt;stroke-linejoin:miter;stroke-opacity:1"
       d="m 79.142489,964.77458 c 0.873065,5.3893 -2.073342,9.3764 -7.238642,9.8929"
       id="path4324"
       inkscape:connector-curvature="0" />
    <path
       style="fill:#f9f9f9;fill-opacity:1;stroke:#d5f6ff;stroke-width:1.14900005;stroke-linecap:butt;stroke-linejoin:miter;stroke-miterlimit:4;stroke-opacity:1;stroke-dasharray:none;stroke-dashoffset:0"
       d="m 78.943973,978.30018 c -0.0509,-0.092 -0.164611,-0.4678 -0.252681,-0.8361 -0.207827,-0.8691 -1.640639,-2.448 -2.571401,-2.8335 l -0.729294,-0.3021 0.898405,-0.6105 c 1.040036,-0.7067 1.876045,-1.5866 2.376577,-2.5014 l 0.352141,-0.6435 0.723958,0.6762 c 0.812371,0.7589 2.01616,1.0706 3.244383,0.8402 l 0.823329,-0.1544 -0.371724,1.4756 c -0.360916,1.4328 -0.2644,2.8791 0.277195,4.1536 0.148556,0.3496 -0.0095,0.3815 -1.356029,0.2734 -1.070818,-0.086 -1.79161,-0.011 -2.423245,0.2533 -0.494483,0.2066 -0.940709,0.3007 -0.991614,0.2092 l 0,0 z"
       id="path4326"
       inkscape:connector-curvature="0" />
  </g>
</svg>
