<?xml version="1.0" encoding="UTF-8" standalone="no"?>
<!-- Created with Inkscape (http://www.inkscape.org/) -->

<svg
   xmlns:dc="http://purl.org/dc/elements/1.1/"
   xmlns:cc="http://creativecommons.org/ns#"
   xmlns:rdf="http://www.w3.org/1999/02/22-rdf-syntax-ns#"
   xmlns:svg="http://www.w3.org/2000/svg"
   xmlns="http://www.w3.org/2000/svg"
   xmlns:sodipodi="http://sodipodi.sourceforge.net/DTD/sodipodi-0.dtd"
   xmlns:inkscape="http://www.inkscape.org/namespaces/inkscape"
   width="100"
   height="100"
   id="svg2"
   version="1.1"
   inkscape:version="0.48.5 r10040"
   sodipodi:docname="bowwow.svg">
  <defs
     id="defs4">
    <inkscape:path-effect
       effect="spiro"
       id="path-effect4237"
       is_visible="true" />
    <inkscape:path-effect
       effect="spiro"
       id="path-effect4233"
       is_visible="true" />
    <inkscape:path-effect
       effect="spiro"
       id="path-effect4229"
       is_visible="true" />
    <inkscape:path-effect
       effect="spiro"
       id="path-effect4225"
       is_visible="true" />
    <inkscape:path-effect
       effect="spiro"
       id="path-effect4221"
       is_visible="true" />
    <inkscape:path-effect
       effect="spiro"
       id="path-effect3437"
       is_visible="true" />
    <inkscape:path-effect
       effect="spiro"
       id="path-effect3433"
       is_visible="true" />
    <inkscape:path-effect
       effect="spiro"
       id="path-effect3421"
       is_visible="true" />
    <inkscape:path-effect
       effect="spiro"
       id="path-effect3393"
       is_visible="true" />
    <inkscape:path-effect
       effect="spiro"
       id="path-effect3377"
       is_visible="true" />
    <inkscape:path-effect
       effect="spiro"
       id="path-effect3361"
       is_visible="true" />
    <inkscape:path-effect
       effect="spiro"
       id="path-effect3345"
       is_visible="true" />
    <inkscape:path-effect
       effect="spiro"
       id="path-effect3329"
       is_visible="true" />
  </defs>
  <sodipodi:namedview
     id="base"
     pagecolor="#ffffff"
     bordercolor="#666666"
     borderopacity="1.0"
     inkscape:pageopacity="0.0"
     inkscape:pageshadow="2"
     inkscape:zoom="2.93055"
     inkscape:cx="59.365802"
     inkscape:cy="74.734507"
     inkscape:document-units="px"
     inkscape:current-layer="layer1"
     showgrid="false"
     inkscape:window-width="1680"
     inkscape:window-height="988"
     inkscape:window-x="-8"
     inkscape:window-y="-8"
     inkscape:window-maximized="1" />
  <metadata
     id="metadata7">
    <rdf:RDF>
      <cc:Work
         rdf:about="">
        <dc:format>image/svg+xml</dc:format>
        <dc:type
           rdf:resource="http://purl.org/dc/dcmitype/StillImage" />
        <dc:title />
      </cc:Work>
    </rdf:RDF>
  </metadata>
  <g
     inkscape:label="Layer 1"
     inkscape:groupmode="layer"
     id="layer1"
     transform="translate(0,-952.36218)">
    <path
       style="fill:none;stroke:#000000;stroke-width:1px;stroke-linecap:butt;stroke-linejoin:miter;stroke-opacity:1"
       d="m 69.732255,9.0343941 c 10.65025,4.2600999 -2.654169,9.7244739 -2.654169,2.8954569 0,-1.484519 1.004962,-3.3934112 2.654169,-2.8954569 C 83.78066,10.956491 66.225391,-2.2897726 61.52846,7.1040895 61.101765,7.9574801 60.23819,9.590599 60.804596,10.723411 c 2.419462,4.838923 9.107599,8.006465 12.54698,12.305692 10.803913,13.504891 9.932048,33.943145 2.654169,48.498904 C 70.4316,82.676296 52.269996,88.882845 40.295109,86.487868 35.758663,85.580578 31.238323,83.077553 26.541689,81.903394 3.1071804,76.044767 13.374752,95.861143 15.201149,86.729156 c -0.46836,-1.492871 -0.04721,-2.340756 1.20644,-2.654169 5.69565,-1.423913 4.528374,10.30059 -1.930304,1.689016"
       id="path3279"
       inkscape:connector-curvature="0"
       transform="translate(0,952.36218)" />
    <path
       style="fill:none;stroke:#000000;stroke-width:1px;stroke-linecap:butt;stroke-linejoin:miter;stroke-opacity:1"
       d="m 14.718573,85.764003 c -3.70421,-2.691174 -2.257049,-5.386253 2.895457,-7.962506 3.351397,-1.675699 23.843296,3.476565 26.541689,4.825761 6.540701,3.270351 23.789402,-7.864389 26.059112,-10.134099 0.524335,-0.524335 -1.11611,-1.025779 -1.447728,-1.689017 -0.356076,-0.712152 1.689016,-0.892806 1.689016,-1.689016 0,-0.658034 -0.820924,-3.522262 -0.241288,-4.101897 2.731364,-2.731364 4.803352,-6.711247 6.756066,-10.616676 0.579768,-1.159535 0.317309,-6.362737 -0.241288,-7.47993 C 74.201733,41.86087 77.716236,34.391117 73.592864,30.267745 69.191705,25.866586 64.250991,20.270369 61.287172,14.342732 57.500108,6.7686027 68.887572,5.2942544 72.145136,8.5518179"
       id="path3291"
       inkscape:connector-curvature="0"
       transform="translate(0,952.36218)" />
    <path
       style="opacity:0.72123892000000001;fill:#615b5b;fill-opacity:1;stroke:#241c1c;stroke-width:2.38875197999999990;stroke-linecap:butt;stroke-linejoin:miter;stroke-miterlimit:4;stroke-opacity:1;stroke-dasharray:none;stroke-dashoffset:0"
       d="m 40.926677,85.94108 c -2.146552,-0.428096 -3.405666,-0.822438 -7.351196,-2.302328 -6.803829,-2.551976 -9.743777,-3.220592 -14.235997,-3.237605 -1.72521,-0.0065 -3.571064,0.07744 -4.101897,0.186604 l -0.965153,0.198484 0.59891,-0.483059 c 0.3294,-0.265682 1.195947,-0.843608 1.925659,-1.28428 1.29463,-0.781824 1.388196,-0.800326 3.86492,-0.76426 4.748273,0.06915 17.048527,2.647253 22.73911,4.766071 0.833242,0.310249 2.03332,0.639334 2.666839,0.731306 4.009366,0.582059 11.677737,-2.312331 20.171408,-7.613604 4.441392,-2.77207 5.417651,-3.974874 3.987032,-4.912251 l -0.628179,-0.411599 0.770296,-0.643072 0.770295,-0.643071 -0.300742,-1.964567 -0.300739,-1.964568 1.218483,-1.412023 c 1.639391,-1.899779 2.948249,-3.977279 4.68998,-7.444222 l 1.454624,-2.895457 -0.105701,-3.016101 c -0.08287,-2.36449 -0.223983,-3.328873 -0.653196,-4.463829 -0.480436,-1.270404 -0.571462,-2.112697 -0.743167,-6.876711 -0.262676,-7.288017 -0.374231,-7.62832 -3.598887,-10.978607 -4.119504,-4.279997 -7.930929,-9.112685 -9.865063,-12.508383 -1.511747,-2.654128 -1.457266,-2.827841 0.346352,-1.104374 0.914246,0.873616 2.259451,2.072707 2.989347,2.664647 4.137191,3.355228 5.636516,4.744735 6.933273,6.425444 4.982534,6.457798 7.544012,14.642117 7.544012,24.104296 0,6.203799 -0.728106,10.696105 -2.692377,16.611582 -2.496788,7.519171 -5.41586,11.61307 -10.829947,15.188636 -4.542989,3.000274 -10.336466,5.162879 -16.238384,6.061504 -2.724437,0.41482 -7.944697,0.407243 -10.059915,-0.0146 l 0,-5e-6 z"
       id="path3295"
       inkscape:connector-curvature="0"
       transform="translate(0,952.36218)" />
    <path
       style="opacity:0.72123892;fill:#6c5d53;fill-opacity:1;stroke:#241c1c;stroke-width:2.38875198;stroke-linecap:butt;stroke-linejoin:miter;stroke-miterlimit:4;stroke-opacity:1;stroke-dasharray:none;stroke-dashoffset:0"
       d="M 72.445196,8.2729352 C 72.522207,8.0722487 72.255391,7.7452717 71.774082,7.4505 69.56838,6.0996463 65.602089,6.0345045 62.530704,7.298688 c -0.47628,0.1960374 -0.476633,0.1900217 -0.03016,-0.5138946 1.665699,-2.6261471 5.152029,-3.148205 8.956117,-1.3411271 1.373983,0.6526914 3.017146,1.999582 3.017146,2.4731364 0,0.2616883 -1.052803,0.6892616 -1.697151,0.6892616 -0.291482,0 -0.412589,-0.1217161 -0.331463,-0.3331291 z"
       id="path3297"
       inkscape:connector-curvature="0"
       transform="translate(0,952.36218)" />
    <path
       style="opacity:0.72123892;fill:#6c5d53;fill-opacity:1;stroke:#241c1c;stroke-width:2.38875198;stroke-linecap:butt;stroke-linejoin:miter;stroke-miterlimit:4;stroke-opacity:1;stroke-dasharray:none;stroke-dashoffset:0"
       d=""
       id="path3299"
       inkscape:connector-curvature="0"
       transform="translate(0,952.36218)" />
    <path
       style="opacity:0.72123892000000001;fill:#c8ab37;fill-opacity:1;stroke:#241c1c;stroke-width:2.38875197999999990;stroke-linecap:butt;stroke-linejoin:miter;stroke-miterlimit:4;stroke-opacity:1;stroke-dasharray:none;stroke-dashoffset:0"
       d="m 12.738257,87.857867 c -0.265873,-0.338003 -0.55383,-0.935191 -0.639904,-1.327084 -0.147144,-0.669942 0.0366,-2.160262 0.26635,-2.160262 0.178012,0 1.502958,1.538164 1.808174,2.099158 0.225855,0.415125 0.222353,0.691159 -0.01607,1.266763 -0.371616,0.89716 -0.780806,0.932186 -1.41855,0.121425 l -1e-6,0 z"
       id="path3301"
       inkscape:connector-curvature="0"
       transform="translate(0,952.36218)" />
    <path
       style="opacity:0.72123892;fill:#917c6f;fill-opacity:1;stroke:#241f1c;stroke-width:2.38875198;stroke-linecap:butt;stroke-linejoin:miter;stroke-miterlimit:4;stroke-opacity:1;stroke-dasharray:none;stroke-dashoffset:0"
       d="m 16.689552,87.186695 c -1.218837,-1.167852 -1.339899,-1.648644 -0.553769,-2.199272 1.206211,-0.844862 2.935185,-0.08213 3.216816,1.419095 0.374962,1.998724 -0.977715,2.395009 -2.663047,0.780177 z"
       id="path3319"
       inkscape:connector-curvature="0"
       transform="translate(0,952.36218)" />
    <path
       style="opacity:0.72123892;fill:#917c6f;fill-opacity:1;stroke:#241f1c;stroke-width:2.38875198;stroke-linecap:butt;stroke-linejoin:miter;stroke-miterlimit:4;stroke-opacity:1;stroke-dasharray:none;stroke-dashoffset:0"
       d="m 69.256752,14.294446 c -1.454174,-0.638474 -1.959306,-2.245411 -1.179722,-3.75296 0.49941,-0.965753 1.11508,-1.0888326 2.341482,-0.468089 2.304624,1.166485 3.123781,2.152591 2.600451,3.130442 -0.537814,1.004915 -2.597502,1.601987 -3.762211,1.090607 z"
       id="path3321"
       inkscape:connector-curvature="0"
       transform="translate(0,952.36218)" />
    <path
       style="fill:none;stroke:#000000;stroke-width:1px;stroke-linecap:butt;stroke-linejoin:miter;stroke-opacity:1"
       d="M 14.477285,79.731801 64.665205,14.101444"
       id="path3391"
       inkscape:path-effect="#path-effect3393"
       inkscape:original-d="M 14.477285,79.731801 C 28.865403,62.845087 51.573217,20.647438 64.665205,14.101444"
       inkscape:connector-curvature="0"
       transform="translate(0,952.36218)" />
    <path
       style="fill:#ac9d93;stroke:#000000;stroke-width:1px;stroke-linecap:butt;stroke-linejoin:miter;stroke-opacity:1"
       d="m 78.142328,50.18 c 0.513442,0.48362 0.887055,1.114022 1.064777,1.796609 0.177722,0.682588 0.158976,1.415147 -0.05343,2.087751 -0.212401,0.672604 -0.617768,1.283072 -1.155273,1.739798 -0.537505,0.456726 -1.205405,0.75823 -1.903475,0.859267 -0.965297,0.139715 -1.94257,-0.09754 -2.917831,-0.111082 -0.487631,-0.0068 -0.982483,0.0443 -1.437074,0.220871 -0.454591,0.176569 -0.867951,0.487621 -1.104821,0.91391 -0.167571,0.301572 -0.241569,0.65058 -0.236766,0.995547 0.0048,0.344968 0.08631,0.686219 0.21366,1.006856 0.254696,0.641274 0.685182,1.194131 1.094746,1.749433 0.409565,0.555301 0.810627,1.137143 0.991405,1.803042 0.09039,0.33295 0.123143,0.684169 0.0697,1.025005 -0.05345,0.340836 -0.195704,0.670875 -0.426578,0.92724 -0.199277,0.221279 -0.457974,0.382209 -0.729646,0.504152 -0.271672,0.121943 -0.558017,0.207236 -0.841863,0.297276 -0.283846,0.09004 -0.567689,0.185844 -0.829947,0.326898 -0.262258,0.141055 -0.503962,0.330398 -0.66964,0.577838 -0.248775,0.371544 -0.305866,0.84632 -0.241895,1.28886 0.06397,0.442541 0.239117,0.860658 0.425019,1.267321 0.185902,0.406663 0.385256,0.810425 0.502644,1.241881 0.117388,0.431456 0.148273,0.899766 -0.0033,1.320431 -0.151608,0.420758 -0.475779,0.76313 -0.850679,1.007 -0.3749,0.243869 -0.80039,0.398015 -1.227161,0.531764 -0.426772,0.133749 -0.860531,0.249732 -1.27143,0.426322 -0.410899,0.176591 -0.802943,0.41913 -1.086757,0.764777 -0.289048,0.352021 -0.453061,0.801306 -0.476582,1.256185 -0.02352,0.454878 0.09097,0.913595 0.309831,1.313056 0.218857,0.399461 0.540022,0.739916 0.916042,0.99697 0.37602,0.257053 0.805933,0.431699 1.251159,0.52783 0.890453,0.192262 1.826415,0.07037 2.693262,-0.209714 0.866847,-0.280084 1.675326,-0.712991 2.472178,-1.154464 1.013315,-0.561399 2.032242,-1.152462 2.830671,-1.9918 0.399214,-0.419669 0.73937,-0.899861 0.968189,-1.431966 0.228819,-0.532106 0.343901,-1.117498 0.295935,-1.694727 -0.06931,-0.834041 -0.467262,-1.600744 -0.691174,-2.407151 -0.111956,-0.403204 -0.1808,-0.823838 -0.140197,-1.240322 0.0406,-0.416483 0.197874,-0.830306 0.490138,-1.129787 0.179757,-0.184196 0.404264,-0.319922 0.639687,-0.423924 0.235422,-0.104003 0.482839,-0.177788 0.729304,-0.251921 0.246464,-0.07413 0.493581,-0.149206 0.727934,-0.255598 0.234353,-0.106391 0.456965,-0.245675 0.632938,-0.433489 0.281903,-0.300871 0.427596,-0.711172 0.465085,-1.121766 0.03749,-0.410594 -0.02599,-0.824113 -0.118455,-1.225914 -0.09246,-0.401801 -0.214006,-0.796779 -0.295442,-1.200959 -0.08144,-0.404179 -0.122206,-0.822482 -0.05119,-1.228621 0.0736,-0.420889 0.264926,-0.8138 0.501083,-1.169882 0.236157,-0.356082 0.517477,-0.679498 0.791134,-1.007639 0.273657,-0.32814 0.541901,-0.664214 0.747357,-1.03885 0.205456,-0.374636 0.346855,-0.792386 0.349056,-1.219656 0.0018,-0.347037 -0.08739,-0.687315 -0.174625,-1.023213 -0.08724,-0.335898 -0.173795,-0.677217 -0.166608,-1.024184 0.0075,-0.361414 0.117429,-0.715398 0.278902,-1.038821 0.161472,-0.323423 0.373602,-0.618809 0.5956,-0.904103 0.443996,-0.570588 0.941845,-1.125569 1.172895,-1.810638 0.238085,-0.705925 0.157638,-1.512691 -0.215154,-2.157703 -0.372792,-0.645012 -1.031683,-1.117459 -1.762209,-1.263565 -0.730525,-0.146105 -1.520443,0.03658 -2.11264,0.488595 -0.592198,0.452013 -0.976751,1.16578 -1.02849,1.908974"
       id="path3431"
       inkscape:path-effect="#path-effect3433"
       inkscape:original-d="m 78.142328,50.18 c -5.894066,-0.852853 -0.101792,4.53782 -2.047397,6.483425 -1.329658,1.329658 -4.317525,-1.260704 -5.459726,1.023699 -1.414545,2.829089 1.706164,5.25521 1.706164,7.507123 0,1.390188 -2.457514,1.092583 -3.071096,1.706164 -1.13615,1.136151 1.368452,4.432507 0.682466,5.118493 -0.704777,0.704778 -2.996894,-0.148404 -4.436027,2.729863 -1.577632,3.155264 7.16589,5.090786 7.16589,2.729863 0,-6.125412 2.387509,-1.703921 4.094795,-5.118493 0.528487,-1.056975 -0.886378,-4.232116 -0.341233,-4.77726 0.594407,-0.594407 2.21528,-0.335767 2.729863,-1.364932 0.445781,-0.891561 -0.268148,-4.509112 0,-4.77726 2.199141,-2.199141 1.594858,-3.642255 2.38863,-4.436027 0.443111,-0.443111 -0.346429,-2.042202 -0.341233,-2.047397 0.668046,-0.668046 3.56085,-0.726657 2.047397,-3.753562 C 82.752633,50.187323 78.931511,50.18 78.142328,50.18 z"
       inkscape:connector-curvature="0"
       transform="translate(0,952.36218)" />
    <path
       style="fill:#917c6f;stroke:#917c6f;stroke-width:1px;stroke-linecap:butt;stroke-linejoin:miter;stroke-opacity:1"
       d="M 68.929041,73.725069 75.412465,70.31274"
       id="path3435"
       inkscape:path-effect="#path-effect3437"
       inkscape:original-d="m 68.929041,73.725069 c 3.01523,0.03253 5.374029,-2.857631 6.483424,-3.412329"
       inkscape:connector-curvature="0"
       transform="translate(0,952.36218)" />
    <path
       style="fill:#6c5d53;stroke:#917c6f;stroke-width:1px;stroke-linecap:butt;stroke-linejoin:miter;stroke-opacity:1"
       d="m 73.365068,63.14685 5.800959,1.706164"
       id="path4219"
       inkscape:path-effect="#path-effect4221"
       inkscape:original-d="m 73.365068,63.14685 c 0.908564,2.185468 3.635767,1.706164 5.800959,1.706164"
       inkscape:connector-curvature="0"
       transform="translate(0,952.36218)" />
    <path
       style="fill:#917c6f;stroke:#917c6f;stroke-width:1px;stroke-linecap:butt;stroke-linejoin:miter;stroke-opacity:1"
       d="m 71.317671,66.900411 3.412328,3.753562"
       id="path4223"
       inkscape:path-effect="#path-effect4225"
       inkscape:original-d="m 71.317671,66.900411 c 1.22527,1.815798 3.030431,3.562613 3.412328,3.753562"
       inkscape:connector-curvature="0"
       transform="translate(0,952.36218)" />
    <path
       style="fill:none;stroke:#917c6f;stroke-width:1px;stroke-linecap:butt;stroke-linejoin:miter;stroke-opacity:1"
       d="m 73.706301,65.53548 3.753561,1.706164"
       id="path4227"
       inkscape:path-effect="#path-effect4229"
       inkscape:original-d="m 73.706301,65.53548 c 1.338977,1.786273 1.892916,1.706164 3.753561,1.706164"
       inkscape:connector-curvature="0"
       transform="translate(0,952.36218)" />
    <path
       style="fill:none;stroke:#917c6f;stroke-width:1px;stroke-linecap:butt;stroke-linejoin:miter;stroke-opacity:1"
       d="m 74.047534,57.687124 5.459726,4.77726"
       id="path4231"
       inkscape:path-effect="#path-effect4233"
       inkscape:original-d="m 74.047534,57.687124 c 1.599604,2.43895 2.860822,3.910959 5.459726,4.77726"
       inkscape:connector-curvature="0"
       transform="translate(0,952.36218)" />
    <path
       style="fill:#917c6f;stroke:#917c6f;stroke-width:1px;stroke-linecap:butt;stroke-linejoin:miter;stroke-opacity:1"
       d="m 69.270273,74.066302 4.094795,3.071095"
       id="path4235"
       inkscape:path-effect="#path-effect4237"
       inkscape:original-d="m 69.270273,74.066302 c 0.545148,2.553704 1.454059,3.071095 4.094795,3.071095"
       inkscape:connector-curvature="0"
       transform="translate(0,952.36218)" />
    <path
       style="fill:none;stroke:#000000;stroke-width:1px;stroke-linecap:butt;stroke-linejoin:miter;stroke-opacity:1"
       d="m 72.170753,77.649247 c 0.04587,-0.383316 1.179797,-0.717861 2.132705,-1.194315"
       id="path4349"
       inkscape:connector-curvature="0"
       transform="translate(0,952.36218)" />
    <path
       style="fill:none;stroke:#000000;stroke-width:1px;stroke-linecap:butt;stroke-linejoin:miter;stroke-opacity:1"
       d="m 76.350856,67.582877 c -0.01916,-0.21259 0.659416,-0.767774 1.620856,-0.767774"
       id="path4351"
       inkscape:connector-curvature="0"
       transform="translate(0,952.36218)" />
    <path
       style="fill:none;stroke:#000000;stroke-width:1px;stroke-linecap:butt;stroke-linejoin:miter;stroke-opacity:1"
       d="m 77.374554,67.497569 -0.08531,0.341233"
       id="path4353"
       inkscape:connector-curvature="0"
       transform="translate(0,952.36218)" />
    <path
       style="fill:none;stroke:#000000;stroke-width:1px;stroke-linecap:butt;stroke-linejoin:miter;stroke-opacity:1"
       d="m 79.592568,64.597089 c 0.177314,-1.069841 -0.925607,-3.717299 0,-4.180102"
       id="path4357"
       inkscape:connector-curvature="0"
       transform="translate(0,952.36218)" />
    <path
       style="fill:#917c6f;stroke:#000000;stroke-width:1px;stroke-linecap:butt;stroke-linejoin:miter;stroke-opacity:1"
       d="m 68.161267,73.469144 c 1.485322,0.190504 1.578992,-1.429308 1.962089,-1.620856"
       id="path4359"
       inkscape:connector-curvature="0"
       transform="translate(0,952.36218)" />
    <path
       style="fill:none;stroke:#917c6f;stroke-width:1px;stroke-linecap:butt;stroke-linejoin:miter;stroke-opacity:1"
       d="m 73.535684,57.345891 c 0.542913,0.365314 4.154734,2.925848 2.985788,4.094794 -0.580595,0.580595 -3.156404,0.714823 -3.156404,1.620856 0,1.145168 2.810385,2.649341 2.132705,3.327021 -0.479662,0.479662 -1.557778,-0.650927 -1.791472,-0.767774 -0.767225,-0.383613 -1.901867,0.622244 -2.303322,1.023699 -0.307419,0.307418 0.286944,1.155535 0.426541,1.364931 0.158591,0.237886 0.336192,0.506809 0.511849,0.682466 0.477294,0.477293 3.799844,1.659882 3.156404,2.303322 -1.40713,1.40713 -3.986007,1.512069 -5.459726,2.985787 -0.187176,0.187177 -0.703923,0.192074 -0.93839,0.426541 -0.562913,0.562913 0.288822,1.909679 0.597158,2.218014 0.463614,0.463614 -0.32163,1.411033 -0.341233,1.45024"
       id="path4365"
       inkscape:connector-curvature="0"
       transform="translate(0,952.36218)" />
    <path
       style="fill:none;stroke:#917c6f;stroke-width:1px;stroke-linecap:butt;stroke-linejoin:miter;stroke-opacity:1"
       d="m 72.76791,57.687124 c 2.062531,-0.248441 5.039906,1.187594 6.483425,-0.255925 0.103747,-0.103747 1.050558,-2.105846 0.682466,-2.473938 -0.114865,-0.114865 -0.362753,-0.575638 -0.255925,-0.682466 0.315352,-0.315352 0.772903,-0.47176 1.194315,-0.682466"
       id="path4367"
       inkscape:connector-curvature="0"
       transform="translate(0,952.36218)" />
    <path
       style="fill:none;stroke:#ac9d93;stroke-width:1px;stroke-linecap:butt;stroke-linejoin:miter;stroke-opacity:1"
       d="m 72.256061,57.516507 c 1.39058,-0.03621 1.876781,1.018936 1.876781,2.38863"
       id="path4369"
       inkscape:connector-curvature="0"
       transform="translate(0,952.36218)" />
    <path
       style="fill:none;stroke:#000000;stroke-width:1px;stroke-linecap:butt;stroke-linejoin:miter;stroke-opacity:1"
       d="m 71.232363,57.345891 c 0.723293,-0.23089 2.244078,-0.754742 3.071095,-0.341233"
       id="path4371"
       inkscape:connector-curvature="0"
       transform="translate(0,952.36218)" />
    <path
       style="fill:none;stroke:#917c6f;stroke-width:1px;stroke-linecap:butt;stroke-linejoin:miter;stroke-opacity:1"
       d="m 80.786883,53.507021 c 2.005054,-1.947753 -2.902635,-4.093717 -0.511849,-5.28911"
       id="path4379"
       inkscape:connector-curvature="0"
       transform="translate(0,952.36218)" />
    <path
       style="fill:none;stroke:#000000;stroke-width:1px;stroke-linecap:butt;stroke-linejoin:miter;stroke-opacity:1"
       d="m 78.99541,48.30322 c 0.704944,-0.402611 1.934014,-0.525887 2.644555,-0.170617"
       id="path4381"
       inkscape:connector-curvature="0"
       transform="translate(0,952.36218)" />
    <path
       style="fill:none;stroke:#000000;stroke-width:1px;stroke-linecap:butt;stroke-linejoin:miter;stroke-opacity:1"
       d="m 81.128116,54.530719 c -0.200644,-1.573714 0.661202,-1.780841 1.706164,-2.303321"
       id="path4385"
       inkscape:connector-curvature="0"
       transform="translate(0,952.36218)" />
    <path
       style="fill:none;stroke:#000000;stroke-width:1px;stroke-linecap:butt;stroke-linejoin:miter;stroke-opacity:1"
       d="m 76.521472,56.492809 c -0.69262,1.785652 -4.347395,0.08198 -5.374418,1.109006 -0.183646,0.183647 -0.170616,0.85624 -0.170616,1.194315 0,0.679853 -0.02347,1.232681 0.255925,1.791473 0.283207,0.566415 0.365694,0.475465 0.511849,0.767774"
       id="path4389"
       inkscape:connector-curvature="0"
       transform="translate(0,952.36218)" />
    <path
       style="fill:none;stroke:#000000;stroke-width:1px;stroke-linecap:butt;stroke-linejoin:miter;stroke-opacity:1"
       d="m 62.530924,13.156234 c 0.179371,0.146458 0.359521,0.286396 0.554503,0.383887 0.25753,0.128765 0.389439,0.344009 0.639812,0.469195 0.263338,0.131669 0.833503,0.193692 1.023698,0.383887 0.247002,0.247002 0.519762,0.647724 0.810428,0.938391 0.115359,0.115358 0.190831,0.4041 0.341233,0.554503 0.316137,0.316137 0.704937,0.770061 0.895737,1.151661"
       id="path3087"
       inkscape:connector-curvature="0"
       transform="translate(0,952.36218)" />
    <path
       style="fill:#241c84;stroke:#5c5658;stroke-width:1px;stroke-linecap:butt;stroke-linejoin:miter;stroke-opacity:1;fill-opacity:0.72157073000000005;opacity:1"
       d="m 64.237088,17.251029 c -0.503099,-0.281278 -0.641011,-0.854282 -1.066353,-1.279624 -0.119233,-0.119233 -0.01346,-0.410805 -0.08531,-0.554503 -0.01494,-0.02987 -0.123793,-0.04682 -0.08531,-0.08531 0.07531,-0.07531 0.791019,0.829837 0.981044,0.639811 0.111617,-0.111616 -0.602827,-0.727954 -0.767774,-0.810428"
       id="path3089"
       inkscape:connector-curvature="0"
       transform="translate(0,952.36218)" />
    <path
       style="fill:none;stroke:#000000;stroke-width:1px;stroke-linecap:butt;stroke-linejoin:miter;stroke-opacity:1"
       d="m 65.841484,16.152393 c -1.184172,-0.493197 -2.17679,-1.362443 -3.227228,-2.412881 -0.03012,-0.03012 -0.13943,-0.06971 -0.180966,-0.09048 -0.103487,-0.05174 -0.274282,-0.274281 -0.361932,-0.361932 -0.41595,-0.41595 -0.897152,-0.618025 -1.146118,-1.115957"
       id="path3865"
       inkscape:connector-curvature="0"
       transform="translate(0,952.36218)" />
    <path
       style="fill:#000000;stroke:#615b5b;stroke-width:1px;stroke-linecap:butt;stroke-linejoin:miter;stroke-opacity:1;fill-opacity:1"
       d="m 65.358908,18.74624 c -0.131816,-0.305409 -0.383639,-0.4138 -0.60322,-0.633381 -0.174534,-0.174534 -0.264874,-0.385518 -0.422254,-0.542898 -0.154628,-0.154629 -0.399193,-0.225327 -0.512738,-0.452416 -0.258095,-0.51619 -0.638201,-0.939811 -0.965152,-1.266762 -0.116697,-0.116697 -0.290788,-0.792703 -0.361932,-0.934991"
       id="path3867"
       inkscape:connector-curvature="0"
       transform="translate(0,952.36218)" />
    <path
       style="fill:#000000;stroke:#615b5b;stroke-width:1px;stroke-linecap:butt;stroke-linejoin:miter;stroke-opacity:1;fill-opacity:1"
       d="m 67.379696,18.806562 c -0.2377,-0.189643 -0.612235,-0.250302 -0.814348,-0.452415 -0.301838,-0.301838 -0.588873,-0.574528 -0.784186,-0.965153 -0.13544,-0.27088 -0.634582,-0.483777 -0.874669,-0.723864 -0.199138,-0.199138 -0.37452,-0.473789 -0.633381,-0.60322 -0.07785,-0.03892 -0.222909,-0.102265 -0.30161,-0.180966 -0.235655,-0.235654 -0.482736,-0.603379 -0.693704,-0.814347 -0.09423,-0.09423 -0.270639,-0.08967 -0.361932,-0.180966 -0.357885,-0.357886 -0.977217,-0.597189 -1.20644,-1.055636"
       id="path3869"
       inkscape:connector-curvature="0"
       transform="translate(0,952.36218)" />
    <path
       style="fill:none;stroke:#000000;stroke-width:1px;stroke-linecap:butt;stroke-linejoin:miter;stroke-opacity:1"
       d="m 63.790535,18.414469 c -0.225721,-0.234562 -0.447046,-0.869301 -0.663542,-1.085797 -0.281294,-0.281294 -0.564402,-0.555745 -0.784186,-0.995313 -0.132966,-0.265931 -0.16902,-0.651596 -0.361932,-0.844508 -0.05228,-0.05228 -0.15432,-0.549927 -0.211127,-0.663542 -0.03217,-0.06434 0.03217,-0.176945 0,-0.241288 -0.181528,-0.363056 -0.159914,-0.772244 -0.331771,-1.115958 -0.0814,-0.162808 -0.0095,-0.411148 -0.09048,-0.573059 -0.141346,-0.282692 -0.136364,-0.634659 -0.271449,-0.90483"
       id="path3873"
       inkscape:connector-curvature="0"
       transform="translate(0,952.36218)" />
    <path
       style="fill:#000000;stroke:#615b5b;stroke-width:1px;stroke-linecap:butt;stroke-linejoin:miter;stroke-opacity:1;fill-opacity:1"
       d="m 68.459845,19.895583 c -0.07095,-0.12727 -0.108171,-0.278787 -0.213271,-0.383887 -0.160019,-0.160018 -0.460363,-0.247093 -0.639811,-0.426541 -0.206548,-0.206547 -0.377172,-0.419825 -0.639812,-0.682465 -0.08552,-0.08552 -0.223014,-0.09505 -0.298579,-0.170617 -0.246457,-0.246457 -0.385069,-0.640994 -0.597157,-0.853082 -0.176771,-0.17677 -0.488982,-0.403673 -0.682466,-0.597158 -0.325257,-0.325257 -0.54543,-0.886662 -0.853082,-1.194315 -0.267658,-0.267657 -0.869704,-0.285562 -1.236969,-0.469195"
       id="path3885"
       inkscape:connector-curvature="0"
       transform="translate(0,952.36218)" />
    <path
       style="fill:#ffffff;stroke:#615b5b;stroke-width:1px;stroke-linecap:butt;stroke-linejoin:miter;stroke-opacity:1;fill-opacity:1"
       d="m 63.256044,15.160977 c 0.146751,1.108864 0.681906,1.833008 1.109006,2.687209 0.192757,0.385513 1.124003,0.953386 1.492894,1.322278"
       id="path3887"
       inkscape:connector-curvature="0"
       transform="translate(0,952.36218)" />
    <path
       style="fill:none;stroke:#000000;stroke-width:1px;stroke-linecap:butt;stroke-linejoin:miter;stroke-opacity:1"
       d="m 13.222774,81.82935 c 0.11749,-0.07929 0.247451,-0.119489 0.469195,-0.341233 0.165283,-0.165283 0.428764,-1.452463 0.554503,-1.578202 0.432488,-0.432488 1.102084,-0.796581 1.322278,-1.236969"
       id="path3889"
       inkscape:connector-curvature="0"
       transform="translate(0,952.36218)" />
    <path
       style="fill:none;stroke:#000000;stroke-width:1px;stroke-linecap:butt;stroke-linejoin:miter;stroke-opacity:1"
       d="M 91.109177,76.454932 C 69.082425,62.102473 46.854504,44.24892 25.251232,31.412193"
       id="path3917"
       inkscape:connector-curvature="0"
       transform="translate(0,952.36218)" />
    <path
       style="fill:none;stroke:#000000;stroke-width:1px;stroke-linecap:butt;stroke-linejoin:miter;stroke-opacity:1"
       d="m 93.32719,77.649247 c -0.81394,-3.255759 -1.443175,-6.199024 -4.265411,-8.360205 1.708202,4.037143 -2.42046,6.483424 -5.118493,6.483424 2.042918,1.927682 4.487548,2.38863 7.848356,2.38863 1.73302,0.484358 0.923917,0.341233 1.876781,0.341233"
       id="path3919"
       inkscape:connector-curvature="0"
       transform="translate(0,952.36218)" />
    <path
       style="fill:none;stroke:#000000;stroke-width:1px;stroke-linecap:butt;stroke-linejoin:miter;stroke-opacity:1"
       d="m 93.19752,77.077633 c 0.01175,0.358588 0.120644,0.72504 0.120644,1.085796"
       id="path3927"
       inkscape:connector-curvature="0"
       transform="translate(0,952.36218)" />
    <path
       style="fill:none;stroke:#000000;stroke-width:1px;stroke-linecap:butt;stroke-linejoin:miter;stroke-opacity:1"
       d="m 32.57389,35.334795 c 0.461301,-2.696053 -9.414102,-10.854096 -10.616675,-9.651523 -0.981765,0.981766 0.723864,2.713472 0.723864,4.101898 0,0.02288 -4.91327,1.930304 -3.136745,1.930304 0.831589,0 2.201285,0.27098 2.654169,0.723864 1.966863,1.966864 7.757156,4.466396 10.375387,2.895457 z"
       id="path3933"
       inkscape:connector-curvature="0"
       transform="translate(0,952.36218)" />
    <path
       style="fill:none;stroke:#000000;stroke-width:1px;stroke-linecap:butt;stroke-linejoin:miter;stroke-opacity:1"
       d="m 26.541688,34.128355 c 2.126553,-0.378434 3.334408,-1.53498 2.412881,-3.378033"
       id="path3939"
       inkscape:connector-curvature="0"
       transform="translate(0,952.36218)" />
    <path
       style="fill:none;stroke:#000000;stroke-width:1px;stroke-linecap:butt;stroke-linejoin:miter;stroke-opacity:1"
       d="m 22.922367,31.956762 c 2.715929,0.437417 4.668687,-1.987788 2.171593,-3.860609"
       id="path3941"
       inkscape:connector-curvature="0"
       transform="translate(0,952.36218)" />
    <path
       style="fill:#cccccc;fill-opacity:1;stroke:#615b5b;stroke-width:0.84455131999999999;stroke-linecap:butt;stroke-linejoin:miter;stroke-miterlimit:4;stroke-opacity:1;stroke-dasharray:none;stroke-dashoffset:0"
       d="m 92.2409,77.736633 c -0.09842,-0.03979 -0.712645,-0.09851 -1.364932,-0.130482 -1.397326,-0.06849 -2.569296,-0.228194 -3.421508,-0.466234 -0.595249,-0.166265 -1.605898,-0.613099 -1.981079,-0.875886 -0.177887,-0.124597 -0.171197,-0.131547 0.221928,-0.230537 0.419167,-0.105548 1.375828,-0.536521 1.913441,-0.862001 l 0.307388,-0.186097 1.418238,0.948004 c 0.78003,0.521403 1.447868,0.947315 1.484084,0.946472 0.03622,-8.45e-4 0.190759,-0.192567 0.34343,-0.426052 l 0.277584,-0.424519 -1.320394,-0.874899 c -0.726217,-0.481194 -1.321391,-0.906826 -1.32261,-0.945849 -0.0012,-0.03902 0.127365,-0.230967 0.285741,-0.426541 0.517307,-0.638811 0.794189,-1.363819 0.893891,-2.340626 l 0.05512,-0.540043 0.526536,0.793344 c 0.624047,0.940268 0.761298,1.210697 1.169067,2.303438 0.32699,0.876269 0.990465,3.305928 0.991182,3.629726 4.52e-4,0.205077 -0.152599,0.239974 -0.477109,0.108782 z"
       id="path3943"
       inkscape:connector-curvature="0"
       transform="translate(0,952.36218)" />
    <path
       style="fill:#cccccc;fill-opacity:1;stroke:#615b5b;stroke-width:0.245;stroke-linecap:butt;stroke-linejoin:miter;stroke-miterlimit:4;stroke-opacity:1;stroke-dasharray:none;stroke-dashoffset:0"
       d="m 22.687187,32.14647 c -0.214764,-0.260602 -0.818475,-0.56092 -1.449963,-0.721288 l -0.615693,-0.156357 1.093409,-0.477527 c 0.601375,-0.26264 1.198403,-0.517144 1.32673,-0.565565 0.220641,-0.08325 0.230586,-0.110203 0.182981,-0.495849 -0.07194,-0.582805 -0.218817,-1.062507 -0.608076,-1.986013 -0.378245,-0.897378 -0.485167,-1.344344 -0.366521,-1.532167 0.06869,-0.108734 0.133164,-0.107164 0.506875,0.01234 0.4167,0.133255 1.982826,1.021773 2.383864,1.352447 l 0.199738,0.164695 -0.307628,0.359394 -0.307627,0.359393 0.329878,0.34574 c 0.513937,0.538648 0.61102,0.727856 0.61102,1.190832 0,0.393915 -0.02841,0.450622 -0.409931,0.818363 -0.481364,0.463974 -0.997622,0.6462 -1.776156,0.626937 l -0.522577,-0.01293 -0.07458,0.432286 c -0.06723,0.389685 -0.08652,0.417797 -0.195742,0.285265 z"
       id="path3947"
       inkscape:connector-curvature="0"
       transform="translate(0,952.36218)" />
    <path
       style="fill:#cccccc;fill-opacity:1;stroke:#615b5b;stroke-width:0.02090051;stroke-linecap:butt;stroke-linejoin:miter;stroke-miterlimit:4;stroke-opacity:1;stroke-dasharray:none;stroke-dashoffset:0"
       d="m 27.322439,32.044087 -1.030945,-0.635482 0.249448,-0.488763 c 0.220396,-0.43184 0.244991,-0.554846 0.211181,-1.056186 -0.02719,-0.403225 -0.103813,-0.684699 -0.264774,-0.97269 -0.12458,-0.222897 -0.21506,-0.416714 -0.201069,-0.430706 0.0745,-0.0745 2.536298,2.136686 2.536298,2.278106 0,0.03119 -0.08185,0.07811 -0.181884,0.104265 -0.126222,0.03301 -0.168283,0.09479 -0.137439,0.201894 0.272528,0.946304 0.271856,0.938302 0.109026,1.299396 -0.08627,0.191305 -0.179809,0.345087 -0.207873,0.341738 -0.02806,-0.0034 -0.51495,-0.292056 -1.081969,-0.641572 l 0,0 z"
       id="path3949"
       inkscape:connector-curvature="0"
       transform="translate(0,952.36218)" />
    <path
       style="fill:#cccccc;fill-opacity:1;stroke:#615b5b;stroke-width:0.02090051;stroke-linecap:butt;stroke-linejoin:miter;stroke-miterlimit:4;stroke-opacity:1;stroke-dasharray:none;stroke-dashoffset:0"
       d="M 25.441097,33.897804 C 24.882205,33.622745 24.137977,33.21075 23.787256,32.98226 l -0.637674,-0.415437 0.682465,-0.0553 c 0.375356,-0.03041 0.855215,-0.118487 1.066353,-0.195718 0.211138,-0.07723 0.40752,-0.149002 0.436405,-0.159492 0.0674,-0.02447 2.03774,1.160819 1.997144,1.201416 -0.01676,0.01676 -0.216072,0.07874 -0.442912,0.137721 l -0.412435,0.107245 0.02068,0.397608 c 0.01138,0.218684 0.007,0.397607 -0.0097,0.397607 -0.01669,0 -0.487629,-0.225049 -1.04652,-0.500108 z"
       id="path3951"
       inkscape:connector-curvature="0"
       transform="translate(0,952.36218)" />
    <path
       style="fill:#cccccc;fill-opacity:1;stroke:#615b5b;stroke-width:0.02090051;stroke-linecap:butt;stroke-linejoin:miter;stroke-miterlimit:4;stroke-opacity:1;stroke-dasharray:none;stroke-dashoffset:0"
       d="m 30.651509,34.085094 -1.28482,-0.808662 0.199926,-0.403976 c 0.120811,-0.244115 0.203259,-0.570063 0.20835,-0.823685 l 0.0084,-0.41971 0.386311,0.424708 c 0.833337,0.916167 1.880889,2.53011 1.794417,2.764623 -0.01528,0.04145 -0.605958,-0.288534 -1.312608,-0.733298 z"
       id="path3953"
       inkscape:connector-curvature="0"
       transform="translate(0,952.36218)" />
    <path
       style="fill:#cccccc;fill-opacity:1;stroke:#615b5b;stroke-width:0.02090051;stroke-linecap:butt;stroke-linejoin:miter;stroke-miterlimit:4;stroke-opacity:1;stroke-dasharray:none;stroke-dashoffset:0"
       d="m 28.902173,35.123278 c -0.838243,-0.167111 -1.816579,-0.474503 -1.732141,-0.544237 0.04089,-0.03377 0.285482,-0.132089 0.543539,-0.218488 0.258058,-0.0864 0.505665,-0.190117 0.550238,-0.230482 0.150931,-0.136682 0.300459,-0.07449 1.259237,0.523766 l 0.957022,0.597157 -0.508839,-0.008 c -0.279862,-0.0044 -0.760937,-0.05827 -1.069056,-0.1197 l 0,0 z"
       id="path3955"
       inkscape:connector-curvature="0"
       transform="translate(0,952.36218)" />
    <path
       style="fill:#b3b3b3;fill-opacity:1;stroke:#615b5b;stroke-width:0.02090051000000000;stroke-linecap:butt;stroke-linejoin:miter;stroke-miterlimit:4;stroke-opacity:1;stroke-dasharray:none;stroke-dashoffset:0"
       d="m 92.114167,78.126526 c -0.01955,-0.01898 -0.784125,-0.09804 -1.699056,-0.175708 -2.413629,-0.204879 -3.312862,-0.417569 -4.683299,-1.10771 -0.597089,-0.300689 -0.776427,-0.484952 -0.776427,-0.797751 0,-0.128415 0.145959,-0.21681 0.661139,-0.400395 0.363626,-0.129578 1.021754,-0.422636 1.462505,-0.651238 0.440752,-0.228603 0.833866,-0.415641 0.873587,-0.415641 0.03972,0 0.673797,0.401526 1.409059,0.892279 0.735261,0.490754 1.369045,0.872376 1.408408,0.848048 0.178058,-0.110046 -0.0068,-0.29027 -0.908989,-0.886413 -0.531884,-0.351439 -1.104493,-0.754521 -1.272465,-0.895737 l -0.305402,-0.256756 0.345518,-0.511849 c 0.479253,-0.709962 0.722743,-1.206746 0.836248,-1.706165 0.09368,-0.41219 0.265522,-1.784625 0.266953,-2.132054 4.26e-4,-0.102915 0.218309,0.155447 0.552316,0.65492 1.323008,1.978419 1.598306,2.55132 2.206071,4.590884 0.665193,2.232285 0.732472,2.786887 0.35562,2.931499 -0.156489,0.06005 -0.675838,0.07409 -0.731786,0.01979 l 0,0 z m 0.0051,-1.423427 c -0.08557,-0.332666 -0.174883,-0.624149 -0.198474,-0.64774 -0.02359,-0.02359 -0.09957,0.06624 -0.168837,0.199633 -0.06927,0.133389 -0.248462,0.39608 -0.398206,0.583758 l -0.272261,0.341233 0.242626,0.05389 c 0.133444,0.02964 0.40195,0.05843 0.59668,0.06398 l 0.354053,0.01009 -0.155581,-0.604847 0,0 z m -1.718327,0.391654 c -0.02342,-0.02342 -0.593309,-0.403645 -1.266427,-0.844951 l -1.22385,-0.802376 -0.793725,0.394282 c -0.436548,0.216855 -0.765592,0.421547 -0.731207,0.454871 0.226555,0.219567 1.925155,0.688433 2.835034,0.782558 0.496361,0.05135 1.225555,0.061 1.180175,0.01562 z m 1.433846,-1.449494 c -0.02683,-0.06993 -0.145568,-0.444216 -0.263855,-0.831755 -0.330506,-1.08282 -1.08017,-2.708983 -1.248979,-2.709273 -0.02776,-4.8e-5 -0.12218,0.23674 -0.20982,0.526195 -0.08764,0.289455 -0.302235,0.74736 -0.476878,1.017567 l -0.317533,0.491285 1.204414,0.81656 c 0.662427,0.449108 1.239744,0.81656 1.282926,0.81656 0.04318,0 0.05656,-0.05721 0.02972,-0.127139 l 0,0 z"
       id="path3959"
       inkscape:connector-curvature="0"
       transform="translate(0,952.36218)" />
  </g>
</svg>
