<?xml version="1.0" encoding="UTF-8" standalone="no"?>
<!-- Created with Inkscape (http://www.inkscape.org/) -->

<svg
   xmlns:dc="http://purl.org/dc/elements/1.1/"
   xmlns:cc="http://creativecommons.org/ns#"
   xmlns:rdf="http://www.w3.org/1999/02/22-rdf-syntax-ns#"
   xmlns:svg="http://www.w3.org/2000/svg"
   xmlns="http://www.w3.org/2000/svg"
   xmlns:sodipodi="http://sodipodi.sourceforge.net/DTD/sodipodi-0.dtd"
   xmlns:inkscape="http://www.inkscape.org/namespaces/inkscape"
   width="1000"
   height="500"
   id="svg3226"
   version="1.1"
   inkscape:version="0.48.5 r10040"
   sodipodi:docname="germMania.svg">
  <defs
     id="defs3228">
    <inkscape:path-effect
       fuse_tolerance="0"
       vertical_pattern="false"
       prop_units="false"
       tang_offset="0"
       normal_offset="0"
       spacing="0"
       scale_y_rel="false"
       prop_scale="1"
       copytype="single_stretched"
       pattern="m 193.61084,646.42317 c 0,-2.76 2.24,-5 5,-5 2.76,0 5,2.24 5,5 0,2.76 -2.24,5 -5,5 -2.76,0 -5,-2.24 -5,-5 z"
       is_visible="true"
       id="path-effect3428"
       effect="skeletal" />
    <inkscape:path-effect
       is_visible="true"
       id="path-effect3426"
       effect="spiro" />
    <inkscape:path-effect
       effect="skeletal"
       id="path-effect3410"
       is_visible="true"
       pattern="M 0,5 C 0,2.24 2.24,0 5,0 7.76,0 10,2.24 10,5 10,7.76 7.76,10 5,10 2.24,10 0,7.76 0,5 z"
       copytype="single_stretched"
       prop_scale="1"
       scale_y_rel="false"
       spacing="0"
       normal_offset="0"
       tang_offset="0"
       prop_units="false"
       vertical_pattern="false"
       fuse_tolerance="0" />
    <inkscape:path-effect
       effect="spiro"
       id="path-effect3408"
       is_visible="true" />
    <inkscape:path-effect
       effect="skeletal"
       id="path-effect3404"
       is_visible="true"
       pattern="M 0,5 C 0,2.24 2.24,0 5,0 7.76,0 10,2.24 10,5 10,7.76 7.76,10 5,10 2.24,10 0,7.76 0,5 z"
       copytype="single_stretched"
       prop_scale="1"
       scale_y_rel="false"
       spacing="0"
       normal_offset="0"
       tang_offset="0"
       prop_units="false"
       vertical_pattern="false"
       fuse_tolerance="0" />
    <inkscape:path-effect
       effect="spiro"
       id="path-effect3402"
       is_visible="true" />
    <inkscape:path-effect
       effect="skeletal"
       id="path-effect3398"
       is_visible="true"
       pattern="M 0,5 C 0,2.24 2.24,0 5,0 7.76,0 10,2.24 10,5 10,7.76 7.76,10 5,10 2.24,10 0,7.76 0,5 z"
       copytype="single_stretched"
       prop_scale="1"
       scale_y_rel="false"
       spacing="0"
       normal_offset="0"
       tang_offset="0"
       prop_units="false"
       vertical_pattern="false"
       fuse_tolerance="0" />
    <inkscape:path-effect
       effect="spiro"
       id="path-effect3396"
       is_visible="true" />
    <inkscape:path-effect
       effect="skeletal"
       id="path-effect3386"
       is_visible="true"
       pattern="M 0,5 C 0,2.24 2.24,0 5,0 7.76,0 10,2.24 10,5 10,7.76 7.76,10 5,10 2.24,10 0,7.76 0,5 z"
       copytype="single_stretched"
       prop_scale="1"
       scale_y_rel="false"
       spacing="0"
       normal_offset="0"
       tang_offset="0"
       prop_units="false"
       vertical_pattern="false"
       fuse_tolerance="0" />
    <inkscape:path-effect
       effect="spiro"
       id="path-effect3384"
       is_visible="true" />
    <inkscape:path-effect
       effect="skeletal"
       id="path-effect3380"
       is_visible="true"
       pattern="M 0,5 C 0,2.24 2.24,0 5,0 7.76,0 10,2.24 10,5 10,7.76 7.76,10 5,10 2.24,10 0,7.76 0,5 z"
       copytype="single_stretched"
       prop_scale="1"
       scale_y_rel="false"
       spacing="0"
       normal_offset="0"
       tang_offset="0"
       prop_units="false"
       vertical_pattern="false"
       fuse_tolerance="0" />
    <inkscape:path-effect
       effect="spiro"
       id="path-effect3378"
       is_visible="true" />
    <inkscape:path-effect
       effect="skeletal"
       id="path-effect3368"
       is_visible="true"
       pattern="M 0,5 C 0,2.24 2.24,0 5,0 7.76,0 10,2.24 10,5 10,7.76 7.76,10 5,10 2.24,10 0,7.76 0,5 z"
       copytype="single_stretched"
       prop_scale="1"
       scale_y_rel="false"
       spacing="0"
       normal_offset="0"
       tang_offset="0"
       prop_units="false"
       vertical_pattern="false"
       fuse_tolerance="0" />
    <inkscape:path-effect
       effect="spiro"
       id="path-effect3366"
       is_visible="true" />
    <inkscape:path-effect
       effect="skeletal"
       id="path-effect3362"
       is_visible="true"
       pattern="M 0,5 C 0,2.24 2.24,0 5,0 7.76,0 10,2.24 10,5 10,7.76 7.76,10 5,10 2.24,10 0,7.76 0,5 z"
       copytype="single_stretched"
       prop_scale="1"
       scale_y_rel="false"
       spacing="0"
       normal_offset="0"
       tang_offset="0"
       prop_units="false"
       vertical_pattern="false"
       fuse_tolerance="0" />
    <inkscape:path-effect
       effect="spiro"
       id="path-effect3360"
       is_visible="true" />
    <inkscape:path-effect
       effect="skeletal"
       id="path-effect3356"
       is_visible="true"
       pattern="M 0,5 C 0,2.24 2.24,0 5,0 7.76,0 10,2.24 10,5 10,7.76 7.76,10 5,10 2.24,10 0,7.76 0,5 z"
       copytype="single_stretched"
       prop_scale="1"
       scale_y_rel="false"
       spacing="0"
       normal_offset="0"
       tang_offset="0"
       prop_units="false"
       vertical_pattern="false"
       fuse_tolerance="0" />
    <inkscape:path-effect
       effect="spiro"
       id="path-effect3354"
       is_visible="true" />
    <inkscape:path-effect
       effect="skeletal"
       id="path-effect3344"
       is_visible="true"
       pattern="M 0,5 C 0,2.24 2.24,0 5,0 7.76,0 10,2.24 10,5 10,7.76 7.76,10 5,10 2.24,10 0,7.76 0,5 z"
       copytype="single_stretched"
       prop_scale="1"
       scale_y_rel="false"
       spacing="0"
       normal_offset="0"
       tang_offset="0"
       prop_units="false"
       vertical_pattern="false"
       fuse_tolerance="0" />
    <inkscape:path-effect
       effect="spiro"
       id="path-effect3342"
       is_visible="true" />
    <inkscape:path-effect
       effect="skeletal"
       id="path-effect3332"
       is_visible="true"
       pattern="M 0,5 C 0,2.24 2.24,0 5,0 7.76,0 10,2.24 10,5 10,7.76 7.76,10 5,10 2.24,10 0,7.76 0,5 z"
       copytype="single_stretched"
       prop_scale="1"
       scale_y_rel="false"
       spacing="0"
       normal_offset="0"
       tang_offset="0"
       prop_units="false"
       vertical_pattern="false"
       fuse_tolerance="0" />
    <inkscape:path-effect
       effect="spiro"
       id="path-effect3330"
       is_visible="true" />
    <inkscape:path-effect
       effect="skeletal"
       id="path-effect3278"
       is_visible="true"
       pattern="M 0,5 C 0,2.24 2.24,0 5,0 7.76,0 10,2.24 10,5 10,7.76 7.76,10 5,10 2.24,10 0,7.76 0,5 z"
       copytype="single_stretched"
       prop_scale="1"
       scale_y_rel="false"
       spacing="0"
       normal_offset="0"
       tang_offset="0"
       prop_units="false"
       vertical_pattern="false"
       fuse_tolerance="0" />
    <inkscape:path-effect
       effect="spiro"
       id="path-effect3276"
       is_visible="true" />
    <inkscape:path-effect
       effect="skeletal"
       id="path-effect3272"
       is_visible="true"
       pattern="M 0,5 C 0,2.24 2.24,0 5,0 7.76,0 10,2.24 10,5 10,7.76 7.76,10 5,10 2.24,10 0,7.76 0,5 z"
       copytype="single_stretched"
       prop_scale="1"
       scale_y_rel="false"
       spacing="0"
       normal_offset="0"
       tang_offset="0"
       prop_units="false"
       vertical_pattern="false"
       fuse_tolerance="0" />
    <inkscape:path-effect
       effect="spiro"
       id="path-effect3270"
       is_visible="true" />
    <inkscape:path-effect
       effect="skeletal"
       id="path-effect3266"
       is_visible="true"
       pattern="M 0,5 C 0,2.24 2.24,0 5,0 7.76,0 10,2.24 10,5 10,7.76 7.76,10 5,10 2.24,10 0,7.76 0,5 z"
       copytype="single_stretched"
       prop_scale="1"
       scale_y_rel="false"
       spacing="0"
       normal_offset="0"
       tang_offset="0"
       prop_units="false"
       vertical_pattern="false"
       fuse_tolerance="0" />
    <inkscape:path-effect
       effect="spiro"
       id="path-effect3264"
       is_visible="true" />
    <inkscape:path-effect
       effect="spiro"
       id="path-effect3086"
       is_visible="true" />
    <inkscape:path-effect
       effect="skeletal"
       id="path-effect3088"
       is_visible="true"
       pattern="m -44.939389,-68.305303 c 0,-2.76 2.24,-5 5,-5 2.76,0 5,2.24 5,5 0,2.76 -2.24,5 -5,5 -2.76,0 -5,-2.24 -5,-5 z"
       copytype="single_stretched"
       prop_scale="1"
       scale_y_rel="false"
       spacing="0"
       normal_offset="0"
       tang_offset="0"
       prop_units="false"
       vertical_pattern="false"
       fuse_tolerance="0" />
    <inkscape:path-effect
       is_visible="true"
       id="path-effect3080"
       effect="spiro" />
    <inkscape:path-effect
       fuse_tolerance="0"
       vertical_pattern="false"
       prop_units="false"
       tang_offset="0"
       normal_offset="0"
       spacing="0"
       scale_y_rel="false"
       prop_scale="1"
       copytype="single_stretched"
       pattern="m 109.34632,-85.448163 c 0,-2.76 2.24,-5 5,-5 2.76,0 5,2.24 5,5 0,2.76 -2.24,5 -5,5 -2.76,0 -5,-2.24 -5,-5 z"
       is_visible="true"
       id="path-effect3082"
       effect="skeletal" />
    <inkscape:path-effect
       effect="spiro"
       id="path-effect3072"
       is_visible="true" />
    <inkscape:path-effect
       effect="skeletal"
       id="path-effect3074"
       is_visible="true"
       pattern="m -96.367959,-76.876733 c 0,-2.76 2.24,-5 5,-5 2.76,0 5,2.24 5,5 0,2.76 -2.24,5 -5,5 -2.76,0 -5,-2.24 -5,-5 z"
       copytype="single_stretched"
       prop_scale="1"
       scale_y_rel="false"
       spacing="0"
       normal_offset="0"
       tang_offset="0"
       prop_units="false"
       vertical_pattern="false"
       fuse_tolerance="0" />
    <inkscape:path-effect
       effect="spiro"
       id="path-effect3216"
       is_visible="true" />
    <inkscape:path-effect
       effect="skeletal"
       id="path-effect3218"
       is_visible="true"
       pattern="m -44.939389,-68.305303 c 0,-2.76 2.24,-5 5,-5 2.76,0 5,2.24 5,5 0,2.76 -2.24,5 -5,5 -2.76,0 -5,-2.24 -5,-5 z"
       copytype="single_stretched"
       prop_scale="1"
       scale_y_rel="false"
       spacing="0"
       normal_offset="0"
       tang_offset="0"
       prop_units="false"
       vertical_pattern="false"
       fuse_tolerance="0" />
    <inkscape:path-effect
       effect="spiro"
       id="path-effect3210"
       is_visible="true" />
    <inkscape:path-effect
       effect="skeletal"
       id="path-effect3212"
       is_visible="true"
       pattern="m -44.939389,-68.305303 c 0,-2.76 2.24,-5 5,-5 2.76,0 5,2.24 5,5 0,2.76 -2.24,5 -5,5 -2.76,0 -5,-2.24 -5,-5 z"
       copytype="single_stretched"
       prop_scale="1"
       scale_y_rel="false"
       spacing="0"
       normal_offset="0"
       tang_offset="0"
       prop_units="false"
       vertical_pattern="false"
       fuse_tolerance="0" />
    <inkscape:path-effect
       is_visible="true"
       id="path-effect3204"
       effect="spiro" />
    <inkscape:path-effect
       fuse_tolerance="0"
       vertical_pattern="false"
       prop_units="false"
       tang_offset="0"
       normal_offset="0"
       spacing="0"
       scale_y_rel="false"
       prop_scale="1"
       copytype="single_stretched"
       pattern="m 860.77492,-142.59101 c 0,-2.76 2.24,-5 5,-5 2.76,0 5,2.24 5,5 0,2.76 -2.24,5 -5,5 -2.76,0 -5,-2.24 -5,-5 z"
       is_visible="true"
       id="path-effect3206"
       effect="skeletal" />
    <inkscape:path-effect
       effect="spiro"
       id="path-effect3198"
       is_visible="true" />
    <inkscape:path-effect
       effect="skeletal"
       id="path-effect3200"
       is_visible="true"
       pattern="m 657.91772,-136.87673 c 0,-2.76 2.24,-5 5,-5 2.76,0 5,2.24 5,5 0,2.76 -2.24,5 -5,5 -2.76,0 -5,-2.24 -5,-5 z"
       copytype="single_stretched"
       prop_scale="1"
       scale_y_rel="false"
       spacing="0"
       normal_offset="0"
       tang_offset="0"
       prop_units="false"
       vertical_pattern="false"
       fuse_tolerance="0" />
    <inkscape:path-effect
       effect="spiro"
       id="path-effect3005"
       is_visible="true" />
    <inkscape:path-effect
       effect="skeletal"
       id="path-effect3007"
       is_visible="true"
       pattern="m -44.939389,-68.305303 c 0,-2.76 2.24,-5 5,-5 2.76,0 5,2.24 5,5 0,2.76 -2.24,5 -5,5 -2.76,0 -5,-2.24 -5,-5 z"
       copytype="single_stretched"
       prop_scale="1"
       scale_y_rel="false"
       spacing="0"
       normal_offset="0"
       tang_offset="0"
       prop_units="false"
       vertical_pattern="false"
       fuse_tolerance="0" />
  </defs>
  <sodipodi:namedview
     id="base"
     pagecolor="#ffffff"
     bordercolor="#666666"
     borderopacity="1.0"
     inkscape:pageopacity="0.0"
     inkscape:pageshadow="2"
     inkscape:zoom="1.033"
     inkscape:cx="506.84211"
     inkscape:cy="300.60018"
     inkscape:document-units="px"
     inkscape:current-layer="layer1"
     showgrid="false"
     inkscape:window-width="1349"
     inkscape:window-height="745"
     inkscape:window-x="1755"
     inkscape:window-y="75"
     inkscape:window-maximized="0"
     showguides="true"
     inkscape:guide-bbox="true">
    <sodipodi:guide
       orientation="0,1"
       position="341.72314,569.21588"
       id="guide3072" />
  </sodipodi:namedview>
  <metadata
     id="metadata3231">
    <rdf:RDF>
      <cc:Work
         rdf:about="">
        <dc:format>image/svg+xml</dc:format>
        <dc:type
           rdf:resource="http://purl.org/dc/dcmitype/StillImage" />
        <dc:title></dc:title>
      </cc:Work>
    </rdf:RDF>
  </metadata>
  <g
     inkscape:groupmode="layer"
     id="layer6"
     inkscape:label="dude">
    <path
       style="fill:#000000;fill-rule:evenodd;stroke:none"
       d="m 413.61538,99.442115 c -0.0632,0.140215 -1.06464,-0.114485 -2.91243,-0.903628 -1.84778,-0.789143 -4.54767,-2.122343 -7.81262,-4.350196 -3.26494,-2.227852 -7.10529,-5.365049 -10.91563,-9.788876 -3.81034,-4.423826 -7.60375,-10.152044 -10.27882,-17.343408 -2.31224,-6.231098 -3.73223,-13.524584 -3.56149,-21.47562 0.0854,-3.975518 0.56942,-8.10787 1.54421,-12.293283 0.97479,-4.185413 2.44037,-8.424262 4.49072,-12.569855 3.23541,-6.523765 7.90504,-12.7552687 13.92557,-18.0604109 6.02052,-5.3051421 13.39487,-9.6858748 21.79525,-12.2774322 1e-5,-3.4e-6 2e-5,-6.9e-6 4e-5,-1.03e-5 7.24159,-2.2237596 15.15924,-3.0751206 23.2035,-2.3089136 8.04425,0.766207 16.21646,3.1503206 23.73756,7.3769834 7.74809,4.35307003 14.78847,10.6412175 19.90019,18.6483316 4.85864,7.617157 7.84267,16.771792 7.91337,26.361738 -0.004,4.449793 -0.58114,8.775992 -1.31239,12.999873 -0.73126,4.223881 -1.61696,8.345434 -2.18352,12.390818 -0.52638,3.928277 -0.80046,7.8238 -0.33945,11.546883 0.46108,3.639724 1.5174,7.187593 3.46689,10.027623 2.09831,3.199196 5.43848,5.735624 9.20208,7.448027 3.71881,1.685611 7.97583,2.487643 12.3775,2.746291 4.3007,0.26032 8.74657,-0.09993 13.3611,-0.650375 4.61453,-0.550445 9.39773,-1.291093 14.37416,-1.746253 15.01183,-1.41798 30.82059,-0.0031 45.84744,5.369238 14.43256,5.16101 28.00332,14.14244 38.07839,26.72647 9.73236,12.16775 15.8643,27.73056 15.99308,44.03097 0.0533,7.91989 -1.39724,15.91289 -4.30591,23.41213 -2.90868,7.49923 -7.27552,14.50459 -13.04199,20.40192 -6.18375,6.21199 -13.31852,10.80707 -19.93876,15.3486 -6.46801,4.54794 -12.67672,9.13335 -16.74073,15.01175 -4.09155,5.69647 -6.37868,12.8402 -7.0429,20.16595 -0.65375,7.26418 0.39342,14.80523 2.46462,22.16251 4.05139,14.51625 12.50883,28.09699 20.40099,42.56699 7.88746,14.15846 15.2699,29.91834 16.40436,47.46279 0.32343,5.40462 -0.0513,10.92512 -1.255,16.3198 -0.73403,3.28987 -1.77436,6.52323 -3.14534,9.64583 -3.65058,8.31337 -9.83972,15.57406 -17.89507,20.15441 -7.181,3.98217 -15.31429,5.60035 -23.19365,5.21193 -7.91852,-0.38699 -15.50135,-2.56902 -22.36922,-5.81913 -13.86849,-6.61794 -24.85486,-16.76165 -35.20805,-26.23613 -10.63281,-9.54112 -21.09869,-18.76031 -33.16873,-23.49564 -6.10606,-2.42792 -12.53977,-3.81918 -18.77965,-3.54291 -6.28604,0.28053 -12.49265,2.13812 -17.31668,5.66701 -2.79437,1.97259 -5.32819,4.69446 -8.00562,7.58892 -2.67788,2.95017 -5.51433,6.13028 -8.95538,9.02152 -7.69822,6.30422 -16.93045,9.79446 -26.03372,11.47335 -9.23858,1.73726 -18.32522,1.94177 -27.02272,2.13422 -10.40132,0.29226 -21.22642,0.48533 -31.87873,-1.99036 -5.43127,-1.2786 -10.74973,-3.3426 -15.57941,-6.36118 -4.90706,-3.06343 -9.19925,-7.19606 -12.29176,-12.20367 -5.2225,-8.74517 -6.34084,-18.97176 -4.80397,-28.25084 1.10531,-6.74681 3.35461,-13.05251 6.29862,-18.89086 2.94401,-5.83835 6.58273,-11.20936 10.51193,-16.09336 8.15117,-10.20934 17.33227,-18.71052 25.52483,-27.33862 4.2864,-4.5502 8.36533,-9.15967 11.92625,-13.93457 3.56091,-4.7749 6.60389,-9.71519 8.87138,-14.90842 2.37584,-5.48215 3.9322,-11.31267 4.39468,-17.01139 0.46248,-5.69871 -0.16876,-11.26582 -2.10133,-16.30731 -1.59945,-4.45501 -4.1759,-8.4631 -7.21576,-12.18074 -3.03985,-3.71763 -6.54333,-7.14474 -10.07731,-10.41319 -3.83305,-3.47678 -7.80559,-6.85086 -11.56875,-10.39665 -3.76316,-3.54578 -7.31719,-7.26303 -10.38723,-11.36261 -4.24971,-5.72823 -7.31149,-12.02129 -9.26188,-18.41243 -1.95039,-6.39115 -2.78976,-12.88122 -2.62975,-19.12999 0,-1e-5 0,-2e-5 0,-3e-5 0.19088,-7.26987 1.72236,-14.15448 4.14428,-20.33544 2.42191,-6.18095 5.73478,-11.66033 9.56875,-16.29266 4.88689,-5.898 10.56316,-10.38575 16.27935,-13.65225 5.7162,-3.266493 11.47811,-5.31623 16.85135,-6.462014 6.23131,-1.326195 11.90587,-1.454717 16.73218,-1.05385 4.82631,0.400867 8.81707,1.330955 11.94401,2.303388 3.12695,0.972434 5.40023,1.986826 6.88229,2.741746 1.48206,0.75492 2.1791,1.249619 2.12043,1.376495 -0.0587,0.126876 -0.87171,-0.115871 -2.43506,-0.608348 -1.56335,-0.492477 -3.88326,-1.233098 -6.99077,-1.923611 -3.10751,-0.690513 -7.0128,-1.329921 -11.65728,-1.460856 -4.64448,-0.130934 -10.04088,0.247158 -15.86792,1.739282 -5.0256,1.284671 -10.37121,3.415128 -15.6218,6.649768 -5.25058,3.23463 -10.41193,7.57794 -14.76817,13.14633 -3.42244,4.36947 -6.34225,9.5044 -8.43093,15.24016 -2.08868,5.73576 -3.34679,12.07441 -3.37389,18.67635 0,10e-6 0,2e-5 0,3e-5 -0.0274,5.67454 0.86182,11.55593 2.74261,17.31442 1.88079,5.75849 4.75356,11.39491 8.65454,16.45477 2.79505,3.66333 6.15533,7.0388 9.83252,10.36754 3.67718,3.32874 7.67155,6.61051 11.66226,10.15166 3.75856,3.27297 7.54852,6.87967 10.94795,10.98771 3.39942,4.10803 6.40851,8.71735 8.52518,14.02134 2.3176,6.11996 3.18995,12.7035 2.79095,19.33057 -0.399,6.62707 -2.06955,13.29785 -4.77183,19.50522 -2.5196,5.82636 -5.78668,11.30115 -9.53605,16.48988 -3.74936,5.18874 -7.98108,10.09139 -12.37681,14.7918 -8.32013,8.96579 -17.29224,17.40932 -24.7943,27.04611 -3.56563,4.61842 -6.8535,9.54975 -9.46237,14.75453 -2.60888,5.20477 -4.53876,10.68298 -5.34335,16.38895 -1.07474,7.74884 -0.25575,16.0117 3.79071,22.30747 2.26672,3.68893 5.63373,6.82875 9.51037,9.25402 3.83682,2.39688 8.26254,4.04804 12.91079,5.13944 9.13038,2.17579 19.14611,1.8338 29.5597,1.56567 8.71092,-0.27622 17.3042,-0.47547 25.49026,-2.10925 8.00599,-1.63113 15.8104,-4.50179 21.7245,-9.56234 2.71363,-2.24723 5.21928,-5.13504 7.97904,-8.15891 2.70443,-3.01833 5.71045,-6.18535 9.43866,-8.93619 6.6075,-4.74941 14.5602,-7.25197 22.54837,-7.56414 7.86924,-0.30958 15.65135,1.28384 22.80576,4.16237 14.02612,5.7076 25.5252,15.52145 36.16677,25.23592 10.51342,9.41203 20.72233,19.00433 32.80576,24.546 5.93998,2.75092 12.26778,4.61232 18.59548,4.86358 6.2529,0.24473 12.60729,-0.96108 17.85546,-3.95958 5.9594,-3.29084 10.72541,-9.00135 13.64704,-15.49988 1.10699,-2.46206 1.94259,-5.06327 2.53177,-7.74983 0.96612,-4.40536 1.26547,-9.01875 1.02637,-13.59789 -0.69703,-14.96064 -7.66364,-29.332 -15.15861,-43.23649 -7.77948,-14.12057 -16.50539,-28.42967 -21.17292,-44.65938 -2.35743,-8.25957 -3.49497,-16.99151 -2.74511,-25.71809 0.75565,-8.85018 3.66684,-17.59754 8.88412,-24.96836 5.39537,-7.40024 12.41352,-12.73999 19.19924,-17.32007 6.81383,-4.71069 13.48972,-8.87998 18.60827,-14.11308 4.83049,-4.83353 8.52712,-10.73966 11.01479,-17.10964 2.48768,-6.36997 3.76637,-13.20367 3.77248,-19.9398 0.0315,-13.93323 -5.32169,-27.63448 -13.76676,-38.38785 -8.76171,-11.1685 -20.94014,-19.30551 -33.93704,-24.09849 -13.56139,-5.00222 -28.12323,-6.39462 -42.08141,-5.22712 -4.63323,0.40247 -9.36505,1.09736 -14.19423,1.60833 -4.82918,0.51097 -9.75573,0.83802 -14.77713,0.5501 -5.15964,-0.30365 -10.37422,-1.39529 -15.22738,-3.59017 -4.96546,-2.2392 -9.3982,-5.788478 -12.48741,-10.432131 -2.71367,-4.21006 -4.13482,-8.921474 -4.59968,-13.535314 -0.4819,-4.681697 -0.14791,-9.221125 0.51069,-13.509464 0.65373,-4.416135 1.59972,-8.609919 2.3674,-12.64067 0.76768,-4.030751 1.35713,-7.898467 1.35312,-11.657178 0.0712,-8.063561 -2.40869,-15.992756 -6.49795,-22.634415 -4.30562,-6.999767 -10.45006,-12.6392346 -17.25654,-16.6193737 -6.58523,-3.8499143 -13.87093,-6.1016497 -21.08538,-6.914222 -7.21445,-0.8125724 -14.35905,-0.1862465 -20.89022,1.693974 -10e-6,2.8e-6 -2e-5,5.7e-6 -3e-5,8.5e-6 -7.58249,2.170997 -14.36375,6.0166422 -19.95902,10.7361304 -5.59527,4.7194878 -10.00741,10.3148508 -13.10309,16.2053298 -1.97059,3.73881 -3.41883,7.603007 -4.42169,11.445668 -1.00287,3.842661 -1.56042,7.664164 -1.74984,11.360129 -0.37885,7.39193 0.71303,14.251873 2.66939,20.165654 2.25274,6.829081 5.61401,12.41136 9.04068,16.812489 3.42667,4.40113 6.93142,7.639211 9.92387,10.030035 2.99246,2.390823 5.48228,3.949698 7.16253,4.990159 1.68025,1.040461 2.55573,1.573021 2.49257,1.713236 z"
       id="path3003"
       inkscape:original-d="m 413.61538,99.442115 c -4.91517,-30.506152 23.30776,-128.823562 51.56804,-101.1166241 11.13808,10.919984 14.54255,31.1105701 25.78403,42.1319251 9.52949,9.342907 -5.6986,37.979901 0,49.153919 2.2344,4.381305 49.56741,3.099071 53.00049,9.83078 5.97518,11.716415 125.71128,66.343905 78.78448,112.351815 -11.0283,10.81241 -24.3532,18.25881 -37.2435,30.89675 -37.9387,37.19578 143.913,133.66743 11.4595,176.9541 -53.52618,17.49271 -108.55652,-20.39563 -150.40679,-47.74951 -6.66041,-4.35333 -15.49286,15.1895 -17.18935,16.85277 -5.21569,5.11357 -40.29311,15.85616 -50.1356,12.63958 -18.82893,-6.15342 -43.79713,-6.42522 -55.86538,-18.25717 -6.57403,-6.44531 -1.1814,-16.11437 -4.29734,-25.27916 -20.42801,-60.08408 45.077,-97.8905 64.46006,-126.39579 4.79807,-7.05618 -34.66249,-41.38116 -40.10848,-44.94072 -93.27662,-60.96682 13.03319,-64.65766 70.18984,-87.072665 z"
       inkscape:connector-curvature="0"
       inkscape:path-effect="#path-effect3005;#path-effect3007"
       inkscape:export-filename="C:\Users\Smoosh\Dropbox\Bacteria_Vectors\germMania.png"
       inkscape:export-xdpi="125"
       inkscape:export-ydpi="125" />
    <path
       style="opacity:0.2;fill:#00ffff"
       d="m 573.26152,420.06701 c -13.1075,-1.90742 -24.6805,-8.86478 -49.35042,-29.66802 -26.51322,-22.35765 -43.51946,-30.03157 -61.39968,-27.70612 -10.29318,1.33871 -16.38267,4.90713 -28.37788,16.62937 -8.1995,8.01292 -12.55952,11.09816 -19.04661,13.47775 -11.80354,4.32981 -28.74151,6.25189 -48.17765,5.46708 -13.78697,-0.5567 -17.95635,-1.27199 -24.38991,-4.18434 -14.40289,-6.51991 -20.53049,-15.2073 -20.60266,-29.20945 -0.0829,-16.07339 8.25289,-31.44556 28.93894,-53.36712 24.34566,-25.79975 30.69742,-34.9515 35.50046,-51.14985 3.24142,-10.93178 2.36148,-23.09886 -2.39485,-33.114 -2.69882,-5.68277 -8.5715,-12.54936 -22.22066,-25.98136 -19.39713,-19.08851 -23.42049,-25.0048 -26.46288,-38.91316 -4.54057,-20.75741 6.38706,-45.0264 25.69926,-57.07506 13.14871,-8.203318 30.81144,-10.49375 49.70189,-6.445124 3.88635,0.832931 3.68086,0.525006 -2.14868,-3.219751 -8.99441,-5.777795 -17.35744,-14.365589 -21.78547,-22.370973 -17.65663,-31.921229 1.90721,-71.4618631 39.24179,-79.3119191 21.91853,-4.6086389 47.55215,7.733905 57.74118,27.8022791 3.55077,6.9936 4.13971,9.743747 4.0111,18.730174 -0.0829,5.793144 -0.84109,13.37689 -1.68485,16.852774 -0.84375,3.475886 -1.5357,10.427651 -1.53764,15.448375 -0.004,11.115043 3.42025,19.274849 10.16282,24.215079 8.73717,6.401626 13.46092,7.060316 43.25286,6.031226 24.93264,-0.86124 28.47784,-0.68479 38.64414,1.92322 39.3458,10.0937 64.7426,44.07238 57.6983,77.19535 -3.7898,17.82016 -9.3912,25.00949 -32.6858,41.95119 -21.6044,15.7126 -27.7787,27.14278 -26.5706,49.18873 0.8797,16.05132 4.3211,25.56664 18.9512,52.40005 6.5616,12.03479 13.7023,26.57031 15.8683,32.30115 7.4725,19.771 4.9798,40.76415 -6.2134,52.32916 -7.0533,7.2875 -19.6286,11.33534 -30.3626,9.77329 l 0,0 z"
       id="path3010"
       inkscape:connector-curvature="0"
       inkscape:export-filename="C:\Users\Smoosh\Dropbox\Bacteria_Vectors\germMania.png"
       inkscape:export-xdpi="125"
       inkscape:export-ydpi="125" />
    <path
       transform="matrix(0.50135599,0,0,0.49153918,297.58728,-54.096133)"
       sodipodi:type="arc"
       style="opacity:0.2;fill:#00ffff"
       id="path3013"
       sodipodi:cx="548.57141"
       sodipodi:cy="433.79074"
       sodipodi:rx="34.285713"
       sodipodi:ry="35.714287"
       d="m 582.85712,433.79074 a 34.285713,35.714287 0 1 1 -68.57142,0 34.285713,35.714287 0 1 1 68.57142,0 z"
       inkscape:export-filename="C:\Users\Smoosh\Dropbox\Bacteria_Vectors\germMania.png"
       inkscape:export-xdpi="125"
       inkscape:export-ydpi="125" />
    <path
       transform="matrix(0.50135599,0,0,0.49153918,297.58728,-54.096133)"
       sodipodi:type="arc"
       style="opacity:0.2;fill:#00ffff"
       id="path3015"
       sodipodi:cx="437.14285"
       sodipodi:cy="689.50507"
       sodipodi:rx="25.714285"
       sodipodi:ry="25.714285"
       d="m 462.85714,689.50507 a 25.714285,25.714285 0 1 1 -51.42857,0 25.714285,25.714285 0 1 1 51.42857,0 z"
       inkscape:export-filename="C:\Users\Smoosh\Dropbox\Bacteria_Vectors\germMania.png"
       inkscape:export-xdpi="125"
       inkscape:export-ydpi="125" />
    <path
       transform="matrix(0.50135599,0,0,0.49153918,297.58728,-54.096133)"
       sodipodi:type="arc"
       style="opacity:0.2;fill:#00ffff"
       id="path3017"
       sodipodi:cx="275.71429"
       sodipodi:cy="495.21933"
       sodipodi:rx="41.42857"
       sodipodi:ry="40"
       d="m 317.14286,495.21933 a 41.42857,40 0 1 1 -82.85714,0 41.42857,40 0 1 1 82.85714,0 z"
       inkscape:export-filename="C:\Users\Smoosh\Dropbox\Bacteria_Vectors\germMania.png"
       inkscape:export-xdpi="125"
       inkscape:export-ydpi="125" />
    <path
       transform="matrix(0.50135599,0,0,0.49153918,297.58728,-54.096133)"
       sodipodi:type="arc"
       style="opacity:0.2;fill:#00ffff"
       id="path3019"
       sodipodi:cx="290"
       sodipodi:cy="626.64789"
       sodipodi:rx="21.428572"
       sodipodi:ry="22.857143"
       d="m 311.42857,626.64789 a 21.428572,22.857143 0 1 1 -42.85714,0 21.428572,22.857143 0 1 1 42.85714,0 z"
       inkscape:export-filename="C:\Users\Smoosh\Dropbox\Bacteria_Vectors\germMania.png"
       inkscape:export-xdpi="125"
       inkscape:export-ydpi="125" />
    <path
       transform="matrix(0.50135599,0,0,0.49153918,297.58728,-54.096133)"
       sodipodi:type="arc"
       style="opacity:0.2;fill:#00ffff"
       id="path3021"
       sodipodi:cx="230"
       sodipodi:cy="775.2193"
       sodipodi:rx="35.714287"
       sodipodi:ry="34.285713"
       d="m 265.71429,775.2193 a 35.714287,34.285713 0 1 1 -71.42858,0 35.714287,34.285713 0 1 1 71.42858,0 z"
       inkscape:export-filename="C:\Users\Smoosh\Dropbox\Bacteria_Vectors\germMania.png"
       inkscape:export-xdpi="125"
       inkscape:export-ydpi="125" />
    <path
       transform="matrix(0.50135599,0,0,0.49153918,297.58728,-54.096133)"
       sodipodi:type="arc"
       style="opacity:0.2;fill:#00ffff"
       id="path3023"
       sodipodi:cx="298.57144"
       sodipodi:cy="209.50504"
       sodipodi:rx="35.714287"
       sodipodi:ry="40"
       d="m 334.28573,209.50504 a 35.714287,40 0 1 1 -71.42858,0 35.714287,40 0 1 1 71.42858,0 z"
       inkscape:export-filename="C:\Users\Smoosh\Dropbox\Bacteria_Vectors\germMania.png"
       inkscape:export-xdpi="125"
       inkscape:export-ydpi="125" />
    <path
       transform="matrix(0.50135599,0,0,0.49153918,297.58728,-54.096133)"
       sodipodi:type="arc"
       style="opacity:0.2;fill:#00ffff"
       id="path3025"
       sodipodi:cx="435.71429"
       sodipodi:cy="432.36218"
       sodipodi:rx="35.714287"
       sodipodi:ry="34.285713"
       d="m 471.42858,432.36218 a 35.714287,34.285713 0 1 1 -71.42857,0 35.714287,34.285713 0 1 1 71.42857,0 z"
       inkscape:export-filename="C:\Users\Smoosh\Dropbox\Bacteria_Vectors\germMania.png"
       inkscape:export-xdpi="125"
       inkscape:export-ydpi="125" />
    <path
       transform="matrix(0.50135599,0,0,0.49153918,297.58728,-54.096133)"
       sodipodi:type="arc"
       style="opacity:0.2;fill:#00ffff"
       id="path3027"
       sodipodi:cx="490"
       sodipodi:cy="565.2193"
       sodipodi:rx="38.57143"
       sodipodi:ry="38.57143"
       d="m 528.57143,565.2193 a 38.57143,38.57143 0 1 1 -77.14286,0 38.57143,38.57143 0 1 1 77.14286,0 z"
       inkscape:export-filename="C:\Users\Smoosh\Dropbox\Bacteria_Vectors\germMania.png"
       inkscape:export-xdpi="125"
       inkscape:export-ydpi="125" />
    <path
       transform="matrix(0.50135599,0,0,0.49153918,297.58728,-54.096133)"
       sodipodi:type="arc"
       style="opacity:0.2;fill:#00ffff"
       id="path3029"
       sodipodi:cx="531.42859"
       sodipodi:cy="855.2193"
       sodipodi:rx="42.857143"
       sodipodi:ry="42.857143"
       d="m 574.28573,855.2193 a 42.857143,42.857143 0 1 1 -85.71428,0 42.857143,42.857143 0 1 1 85.71428,0 z"
       inkscape:export-filename="C:\Users\Smoosh\Dropbox\Bacteria_Vectors\germMania.png"
       inkscape:export-xdpi="125"
       inkscape:export-ydpi="125" />
    <path
       transform="matrix(0.50135599,0,0,0.49153918,297.58728,-54.096133)"
       sodipodi:type="arc"
       style="opacity:0.2;fill:#ffffff"
       id="path3031"
       sodipodi:cx="471.42856"
       sodipodi:cy="782.36218"
       sodipodi:rx="37.142857"
       sodipodi:ry="38.57143"
       d="m 508.57141,782.36218 a 37.142857,38.57143 0 1 1 -74.28571,0 37.142857,38.57143 0 1 1 74.28571,0 z"
       inkscape:export-filename="C:\Users\Smoosh\Dropbox\Bacteria_Vectors\germMania.png"
       inkscape:export-xdpi="125"
       inkscape:export-ydpi="125" />
    <path
       transform="matrix(0.50135599,0,0,0.49153918,297.58728,-54.096133)"
       sodipodi:type="arc"
       style="opacity:0.2;fill:#ffffff"
       id="path3033"
       sodipodi:cx="355.71429"
       sodipodi:cy="762.36218"
       sodipodi:rx="52.857143"
       sodipodi:ry="58.57143"
       d="m 408.57144,762.36218 a 52.857143,58.57143 0 1 1 -105.71429,0 52.857143,58.57143 0 1 1 105.71429,0 z"
       inkscape:export-filename="C:\Users\Smoosh\Dropbox\Bacteria_Vectors\germMania.png"
       inkscape:export-xdpi="125"
       inkscape:export-ydpi="125" />
    <path
       transform="matrix(0.50135599,0,0,0.49153918,297.58728,-54.096133)"
       sodipodi:type="arc"
       style="opacity:0.2;fill:#ffffff"
       id="path3035"
       sodipodi:cx="428.57144"
       sodipodi:cy="562.36218"
       sodipodi:rx="128.57143"
       sodipodi:ry="130"
       d="m 557.14287,562.36218 a 128.57143,130 0 1 1 -257.14285,0 128.57143,130 0 1 1 257.14285,0 z"
       inkscape:export-filename="C:\Users\Smoosh\Dropbox\Bacteria_Vectors\germMania.png"
       inkscape:export-xdpi="125"
       inkscape:export-ydpi="125" />
    <path
       transform="matrix(0.50135599,0,0,0.49153918,297.58728,-54.096133)"
       sodipodi:type="arc"
       style="opacity:0.2;fill:#ffffff"
       id="path3037"
       sodipodi:cx="208.57143"
       sodipodi:cy="450.93362"
       sodipodi:rx="65.714287"
       sodipodi:ry="52.857143"
       d="m 274.28571,450.93362 a 65.714287,52.857143 0 1 1 -131.42857,0 65.714287,52.857143 0 1 1 131.42857,0 z"
       inkscape:export-filename="C:\Users\Smoosh\Dropbox\Bacteria_Vectors\germMania.png"
       inkscape:export-xdpi="125"
       inkscape:export-ydpi="125" />
    <path
       transform="matrix(0.50135599,0,0,0.49153918,297.58728,-54.096133)"
       sodipodi:type="arc"
       style="opacity:0.2;fill:#ffffff"
       id="path3039"
       sodipodi:cx="330"
       sodipodi:cy="339.50504"
       sodipodi:rx="55.714287"
       sodipodi:ry="64.285713"
       d="m 385.71429,339.50504 a 55.714287,64.285713 0 1 1 -111.42858,0 55.714287,64.285713 0 1 1 111.42858,0 z"
       inkscape:export-filename="C:\Users\Smoosh\Dropbox\Bacteria_Vectors\germMania.png"
       inkscape:export-xdpi="125"
       inkscape:export-ydpi="125" />
    <path
       transform="matrix(0.50135599,0,0,0.49153918,297.58728,-54.096133)"
       sodipodi:type="arc"
       style="opacity:0.2;fill:#ffffff"
       id="path3041"
       sodipodi:cx="264.28571"
       sodipodi:cy="206.6479"
       sodipodi:rx="70"
       sodipodi:ry="77.14286"
       d="m 334.28571,206.6479 a 70,77.14286 0 1 1 -140,0 70,77.14286 0 1 1 140,0 z"
       inkscape:export-filename="C:\Users\Smoosh\Dropbox\Bacteria_Vectors\germMania.png"
       inkscape:export-xdpi="125"
       inkscape:export-ydpi="125" />
    <path
       transform="matrix(0.50135599,0,0,0.49153918,297.58728,-54.096133)"
       sodipodi:type="arc"
       style="opacity:0.2;fill:#ffffff"
       id="path3043"
       sodipodi:cx="167.14285"
       sodipodi:cy="800.93359"
       sodipodi:rx="55.714287"
       sodipodi:ry="57.142857"
       d="m 222.85714,800.93359 a 55.714287,57.142857 0 1 1 -111.42857,0 55.714287,57.142857 0 1 1 111.42857,0 z"
       inkscape:export-filename="C:\Users\Smoosh\Dropbox\Bacteria_Vectors\germMania.png"
       inkscape:export-xdpi="125"
       inkscape:export-ydpi="125" />
    <path
       transform="matrix(0.50135599,0,0,0.49153918,297.58728,-54.096133)"
       sodipodi:type="arc"
       style="opacity:0.2;fill:#ffffff"
       id="path3045"
       sodipodi:cx="268.57144"
       sodipodi:cy="740.93359"
       sodipodi:rx="65.714287"
       sodipodi:ry="62.857143"
       d="m 334.28573,740.93359 a 65.714287,62.857143 0 1 1 -131.42858,0 65.714287,62.857143 0 1 1 131.42858,0 z"
       inkscape:export-filename="C:\Users\Smoosh\Dropbox\Bacteria_Vectors\germMania.png"
       inkscape:export-xdpi="125"
       inkscape:export-ydpi="125" />
    <path
       transform="matrix(0.50135599,0,0,0.49153918,297.58728,-54.096133)"
       sodipodi:type="arc"
       style="opacity:0.2;fill:#ffffff"
       id="path3047"
       sodipodi:cx="414.28571"
       sodipodi:cy="572.36218"
       sodipodi:rx="60"
       sodipodi:ry="60"
       d="m 474.28571,572.36218 a 60,60 0 1 1 -120,0 60,60 0 1 1 120,0 z"
       inkscape:export-filename="C:\Users\Smoosh\Dropbox\Bacteria_Vectors\germMania.png"
       inkscape:export-xdpi="125"
       inkscape:export-ydpi="125" />
    <path
       transform="matrix(0.50135599,0,0,0.49153918,297.58728,-54.096133)"
       sodipodi:type="arc"
       style="opacity:0.2;fill:#ffffff"
       id="path3049"
       sodipodi:cx="585.71429"
       sodipodi:cy="439.50504"
       sodipodi:rx="82.85714"
       sodipodi:ry="81.428574"
       d="m 668.57143,439.50504 a 82.85714,81.428574 0 1 1 -165.71428,0 82.85714,81.428574 0 1 1 165.71428,0 z"
       inkscape:export-filename="C:\Users\Smoosh\Dropbox\Bacteria_Vectors\germMania.png"
       inkscape:export-xdpi="125"
       inkscape:export-ydpi="125" />
    <path
       sodipodi:type="arc"
       style="fill:#ffffff"
       id="path3192"
       sodipodi:cx="212.85715"
       sodipodi:cy="435.21933"
       sodipodi:rx="70"
       sodipodi:ry="68.571426"
       d="m 282.85715,435.21933 a 70,68.571426 0 1 1 -140,0 70,68.571426 0 1 1 140,0 z"
       transform="matrix(0.50135599,0,0,0.49153918,304.7495,-51.287333)"
       inkscape:export-filename="C:\Users\Smoosh\Dropbox\Bacteria_Vectors\germMania.png"
       inkscape:export-xdpi="125"
       inkscape:export-ydpi="125" />
    <path
       transform="matrix(0.50135599,0,0,0.49153918,410.75049,-52.691733)"
       d="m 282.85715,435.21933 a 70,68.571426 0 1 1 -140,0 70,68.571426 0 1 1 140,0 z"
       sodipodi:ry="68.571426"
       sodipodi:rx="70"
       sodipodi:cy="435.21933"
       sodipodi:cx="212.85715"
       id="path3194"
       style="fill:#ffffff"
       sodipodi:type="arc"
       inkscape:export-filename="C:\Users\Smoosh\Dropbox\Bacteria_Vectors\germMania.png"
       inkscape:export-xdpi="125"
       inkscape:export-ydpi="125" />
    <path
       style="fill:#000000;fill-rule:evenodd;stroke:none"
       d="m 399.29092,155.61803 c -0.16725,-0.29876 -0.20096,-0.66943 -0.044,-1.10134 0.15692,-0.43191 0.5068,-0.92555 1.09658,-1.39204 0.58979,-0.4665 1.42226,-0.90501 2.49504,-1.15104 1.07277,-0.24604 2.38816,-0.2976 3.85556,0.064 0,0 0,0 0,0 1.35677,0.35183 2.76305,1.03963 4.00958,2.13101 1.24654,1.09138 2.33172,2.5881 2.98964,4.47583 0.62905,1.85003 0.78654,3.94667 0.2929,6.06873 -0.46646,1.9779 -1.47311,3.86343 -3.0084,5.40733 -0.74355,0.74311 -1.58721,1.38451 -2.51247,1.90169 -0.91978,0.51411 -1.90193,0.89527 -2.91813,1.13955 -2.11856,0.50232 -4.25228,0.37548 -6.1826,-0.26032 -2.30349,-0.76766 -4.14817,-2.20196 -5.41897,-3.93133 0,-1e-5 0,-1e-5 0,-1e-5 -1.42602,-1.95667 -2.01578,-4.13866 -2.01109,-6.11736 0.0145,-2.44259 0.92022,-4.39179 1.99907,-5.69034 1.20004,-1.43612 2.53946,-2.03268 3.50913,-2.17282 0.96966,-0.14014 1.58322,0.15517 1.8482,0.6285 0.26498,0.47333 0.19373,1.0966 0.0739,1.81386 -0.1198,0.71726 -0.29195,1.55534 -0.2538,2.38522 0.0301,0.74685 0.20703,1.55168 0.56706,2.158 0.28471,0.49217 0.70416,0.95426 1.14094,1.21146 0,0 0,0 0,0 0.3808,0.23348 0.8608,0.40321 1.26308,0.42726 0.33953,0.0284 0.73361,-0.0125 1.04382,-0.11856 0.1497,-0.0478 0.30764,-0.11811 0.45963,-0.20308 0.15289,-0.0855 0.29644,-0.18386 0.41614,-0.2871 0.25264,-0.209 0.49361,-0.52361 0.64702,-0.82798 0.17086,-0.32455 0.27556,-0.75829 0.29405,-1.15908 0.0441,-0.37511 -0.0593,-0.84157 -0.23781,-1.28697 -0.17849,-0.4454 -0.43341,-0.86898 -0.73372,-1.21342 0,0 0,-1e-5 0,-1e-5 -0.31603,-0.38779 -0.75999,-0.71533 -1.22445,-0.98673 -0.46447,-0.27139 -0.95149,-0.48611 -1.40599,-0.67357 -0.909,-0.37492 -1.7154,-0.64177 -2.04991,-1.2393 z"
       id="path3196"
       inkscape:path-effect="#path-effect3198;#path-effect3200"
       inkscape:original-d="m 399.29092,155.61803 c 7.7109,-0.44301 5.3508,1.92081 10.02712,4.21319 5.59972,2.74504 0.0265,12.65258 -8.59468,8.42639 -6.33114,-3.10359 -0.0374,-11.5454 -1.43244,-12.63958 z"
       inkscape:connector-curvature="0"
       inkscape:export-filename="C:\Users\Smoosh\Dropbox\Bacteria_Vectors\germMania.png"
       inkscape:export-xdpi="125"
       inkscape:export-ydpi="125" />
    <path
       inkscape:connector-curvature="0"
       inkscape:original-d="m 500.99457,152.80923 c 7.71089,-0.44301 5.35079,1.92081 10.02712,4.21319 5.59971,2.74504 0.0265,12.65259 -8.59468,8.42639 -6.33114,-3.10359 -0.0374,-11.5454 -1.43244,-12.63958 z"
       inkscape:path-effect="#path-effect3204;#path-effect3206"
       id="path3202"
       d="m 500.99457,152.80923 c -0.16725,-0.29876 -0.20096,-0.66943 -0.044,-1.10134 0.15692,-0.43191 0.5068,-0.92555 1.09658,-1.39204 0.58979,-0.4665 1.42226,-0.90501 2.49504,-1.15104 1.07277,-0.24604 2.38816,-0.2976 3.85556,0.064 0,0 0,0 0,0 1.35677,0.35183 2.76305,1.03963 4.00958,2.13101 1.24654,1.09138 2.33172,2.5881 2.98964,4.47583 0.62905,1.85003 0.78654,3.94667 0.2929,6.06873 -0.46646,1.9779 -1.47311,3.86343 -3.0084,5.40733 -0.74355,0.74311 -1.58721,1.38451 -2.51247,1.90169 -0.91978,0.51411 -1.90193,0.89527 -2.91813,1.13955 -2.11856,0.50232 -4.25228,0.37548 -6.1826,-0.26032 -2.30349,-0.76766 -4.14817,-2.20196 -5.41897,-3.93133 0,-1e-5 0,-1e-5 0,-1e-5 -1.42602,-1.95667 -2.01578,-4.13866 -2.01109,-6.11736 0.0145,-2.44259 0.92022,-4.39179 1.99907,-5.69034 1.20004,-1.43612 2.53946,-2.03268 3.50913,-2.17282 0.96966,-0.14014 1.58322,0.15517 1.8482,0.6285 0.26498,0.47333 0.19373,1.0966 0.0739,1.81386 -0.1198,0.71726 -0.29195,1.55534 -0.2538,2.38522 0.0301,0.74685 0.20703,1.55168 0.56706,2.158 0.28471,0.49217 0.70416,0.95426 1.14094,1.21146 0,0 0,0 0,0 0.3808,0.23348 0.8608,0.40321 1.26308,0.42726 0.33953,0.0284 0.73361,-0.0125 1.04382,-0.11856 0.1497,-0.0478 0.30764,-0.11811 0.45963,-0.20308 0.15289,-0.0855 0.29644,-0.18386 0.41614,-0.2871 0.25264,-0.209 0.49361,-0.52361 0.64702,-0.82798 0.17086,-0.32455 0.27556,-0.75829 0.29405,-1.15908 0.0441,-0.37511 -0.0593,-0.84157 -0.23781,-1.28697 -0.17849,-0.4454 -0.43341,-0.86898 -0.73372,-1.21342 0,0 0,-1e-5 0,-1e-5 -0.31603,-0.38779 -0.75999,-0.71533 -1.22445,-0.98673 -0.46447,-0.27139 -0.95149,-0.48611 -1.40599,-0.67357 -0.909,-0.37492 -1.7154,-0.64177 -2.04991,-1.2393 z"
       style="fill:#000000;fill-rule:evenodd;stroke:none"
       inkscape:export-filename="C:\Users\Smoosh\Dropbox\Bacteria_Vectors\germMania.png"
       inkscape:export-xdpi="125"
       inkscape:export-ydpi="125" />
    <path
       style="fill:#000000;fill-rule:evenodd;stroke:none"
       d="m 631.34712,137.36086 c -0.39026,0.55457 -3.19475,-0.54576 -7.75636,-3.40433 -4.56161,-2.85857 -10.86924,-7.51848 -17.81002,-14.28722 -6.94078,-6.76874 -14.49919,-15.67561 -21.29746,-26.673416 -3.39913,-5.498901 -6.60547,-11.511974 -9.44455,-17.9757 -2.83908,-6.463726 -5.31005,-13.377913 -7.25217,-20.639162 0,-3e-6 0,-6e-6 -10e-6,-9e-6 -0.2739,-1.015868 -0.53774,-2.042123 -0.78918,-3.078388 -1.53599,-6.330411 -2.53522,-12.784275 -2.65167,-19.206602 -0.15561,-8.008052 1.26645,-15.919841 4.33051,-22.8786893 1.71087,-3.8909274 3.98172,-7.4273584 6.63754,-10.4499652 2.65581,-3.0226068 5.69617,-5.5314226 8.95515,-7.4493865 3.94574,-2.31618 8.17534,-3.630126 12.21677,-4.086495 4.04143,-0.45637 7.89583,-0.05736 11.29773,0.957588 2.62602,0.802785 4.92673,1.9602905 6.87937,3.2753655 1.95264,1.315075 3.55842,2.7878913 4.84742,4.2672407 1.45827,1.6758274 2.50392,3.3467906 3.25193,4.85859265 0.748,1.51180205 1.20003,2.86606135 1.46522,3.98042565 0.26518,1.1143642 0.34499,1.99032 0.31895,2.5938593 -0.026,0.6035393 -0.15687,0.9356545 -0.36137,0.9917051 -0.2045,0.056051 -0.47701,-0.1647956 -0.83364,-0.6177568 -0.35664,-0.4529612 -0.79903,-1.1386118 -1.38218,-1.996426 -0.58315,-0.8578142 -1.30882,-1.8890469 -2.24506,-3.0033201 -0.93625,-1.1142732 -2.08477,-2.31315225 -3.50037,-3.45493122 -1.24951,-1.00945688 -2.71529,-1.97863998 -4.39434,-2.79771688 -1.67905,-0.819077 -3.57243,-1.4884473 -5.62149,-1.8682058 -2.63418,-0.5118543 -5.56753,-0.5071383 -8.59895,0.1233106 -3.03143,0.6304488 -6.16271,1.8874888 -9.00484,3.7757156 -2.38629,1.5787119 -4.59314,3.6420193 -6.52327,6.1063113 -1.93012,2.4642919 -3.58357,5.3294979 -4.85054,8.4349274 -2.28402,5.606267 -3.21704,12.165799 -3.03171,19.011701 0.15746,5.511637 1.11722,11.230107 2.52752,17.079361 0.23086,0.957501 0.47196,1.912219 0.72104,2.863727 0,3e-6 0,5e-6 0,8e-6 3.58162,13.56266 8.93163,25.920288 14.90195,36.536094 5.97031,10.615806 12.54565,19.491317 18.52951,26.558027 5.98385,7.06671 11.36628,12.34998 15.08811,16.04757 1.86092,1.8488 3.30966,3.30303 4.23848,4.37271 0.92881,1.06968 1.33711,1.7562 1.14198,2.03348 z"
       id="path3208"
       inkscape:path-effect="#path-effect3210;#path-effect3212"
       inkscape:original-d="m 631.34712,137.36086 c 73.1192,-56.29457 -38.5097,-64.439236 -58.7303,-84.263863 -18.6188,-18.254241 29.8269,-64.024861 34.3788,-61.7934961 5.8964,2.89051 11.1878,12.930143 17.1893,16.852773"
       inkscape:connector-curvature="0"
       inkscape:export-filename="C:\Users\Smoosh\Dropbox\Bacteria_Vectors\germMania.png"
       inkscape:export-xdpi="125"
       inkscape:export-ydpi="125" />
    <path
       style="fill:#000000;fill-rule:evenodd;stroke:none"
       d="m 336.26331,127.53008 c -0.6083,0.26216 -2.29795,-1.95872 -4.63183,-6.36422 -2.33387,-4.40549 -5.29414,-11.01071 -8.14295,-19.51926 -2.84881,-8.508546 -5.57043,-18.92975 -7.37748,-30.778817 -1.80705,-11.849066 -2.68603,-25.125227 -2.02001,-39.089804 0,-3e-6 0,-6e-6 0,-9e-6 0.10182,-2.329232 0.26376,-4.759164 0.59707,-7.26333 0.20237,-1.520409 0.46647,-3.054102 0.81395,-4.593492 0.92118,-4.165304 2.64528,-8.303823 5.34802,-11.9297318 2.53384,-3.1451813 5.41517,-5.5154462 8.30038,-7.4556833 2.88521,-1.9402371 5.77387,-3.4511458 8.392,-4.8311808 2.73226,-1.5289701 5.2101,-2.9730981 7.21469,-4.6363058 2.08914,-1.7577503 3.80898,-3.6584053 4.74409,-5.6994333 0.71944,-1.472956 1.10373,-3.120601 1.18266,-4.746877 0.0789,-1.626277 -0.14758,-3.231255 -0.64673,-4.672865 -0.55857,-1.655309 -1.4998,-3.169347 -2.6358,-4.428225 -1.13601,-1.258879 -2.46717,-2.262915 -3.8594,-2.959361 -1.73822,-0.88333 -3.63254,-1.317387 -5.42456,-1.416444 -1.79203,-0.09906 -3.48424,0.136738 -4.96471,0.585044 -1.67547,0.4995 -3.11503,1.275187 -4.29865,2.083313 -1.18362,0.808126 -2.11558,1.651523 -2.85214,2.37895 -0.73657,0.727428 -1.28202,1.341046 -1.70413,1.744042 -0.4221,0.402996 -0.72445,0.596134 -0.92648,0.514339 -0.20203,-0.08179 -0.29819,-0.437741 -0.23728,-1.061703 0.0609,-0.623963 0.28135,-1.517959 0.77803,-2.611795 0.49668,-1.093837 1.27331,-2.390326 2.46521,-3.71827 1.1919,-1.327945 2.80334,-2.690255 4.92774,-3.77123 1.88297,-0.950641 4.13537,-1.654491 6.65714,-1.870485 2.52177,-0.215995 5.31542,0.05668 8.12595,1.084639 2.24109,0.830204 4.42888,2.124211 6.36446,3.890828 1.93558,1.766617 3.61908,4.006415 4.7906,6.669229 1.01227,2.33073 1.59933,4.912113 1.65946,7.595827 0.0601,2.683714 -0.40684,5.469822 -1.49853,8.154036 -1.50653,3.5633816 -3.88622,6.6731397 -6.71659,9.1484568 -2.65805,2.3488231 -5.57008,4.253376 -8.43296,5.9409271 -2.64594,1.6461755 -5.31458,3.1395417 -7.68144,4.7211682 -2.36686,1.5816269 -4.4312,3.2518729 -5.81569,5.3163589 -1.67047,2.188553 -2.76262,5.070777 -3.51551,8.213551 -0.27412,1.174164 -0.48135,2.396159 -0.64397,3.661008 -0.26785,2.08325 -0.41184,4.251181 -0.54104,6.470823 0,3e-6 0,6e-6 0,8e-6 -0.7193,13.31286 -0.20982,25.992836 1.00143,37.42364 1.21125,11.430803 3.11483,21.611757 5.02567,30.090935 1.91084,8.479179 3.81589,15.265349 5.03966,20.009309 1.22377,4.74395 1.74797,7.45993 1.13967,7.72209 z"
       id="path3214"
       inkscape:path-effect="#path-effect3216;#path-effect3218"
       inkscape:original-d="M 336.26331,127.53008 C 323.84789,104.42175 293.5984,57.007776 319.07396,32.031034 c 3.69511,-3.622762 1.83883,-19.15858 5.72978,-21.065968 4.36545,-2.1399841 32.53976,-16.2454441 28.64892,-23.874758 -3.49358,-6.850355 -23.68598,-8.459475 -30.08136,-12.639579"
       inkscape:connector-curvature="0"
       inkscape:export-filename="C:\Users\Smoosh\Dropbox\Bacteria_Vectors\germMania.png"
       inkscape:export-xdpi="125"
       inkscape:export-ydpi="125" />
    <path
       style="fill:#000000;fill-rule:evenodd;stroke:none"
       d="m 379.23668,168.25761 c -0.24275,0.0368 -0.54103,-0.2818 -0.85847,-0.95868 -0.31743,-0.67689 -0.65322,-1.71347 -0.90821,-3.10497 -0.255,-1.3915 -0.42822,-3.13991 -0.37113,-5.20654 0.0571,-2.06664 0.34562,-4.45358 1.04783,-7.05732 0.76336,-2.82263 2.01734,-5.88485 3.93389,-8.93286 1.91656,-3.04801 4.49837,-6.08275 7.83541,-8.71389 2.6251,-2.06484 5.69075,-3.8545 9.12294,-5.17839 3.4322,-1.32389 7.2312,-2.18157 11.24687,-2.36624 0,0 0,0 0,0 3.52212,-0.15723 7.16831,0.2073 10.77394,1.14993 3.60562,0.94262 7.17036,2.4635 10.48795,4.5941 6.10534,3.93339 11.22011,9.87018 14.14518,17.08975 1.06334,2.63577 1.82264,5.41073 2.25311,8.25773 0.70749,4.67912 0.5051,9.41713 -0.54299,13.90315 -1.78839,7.60377 -5.94422,14.23854 -11.34486,19.03241 -2.96298,2.62254 -6.25877,4.66764 -9.67092,6.14303 -3.41215,1.47539 -6.94036,2.38123 -10.41056,2.75828 -4.02786,0.43229 -7.92186,0.1497 -11.49816,-0.64283 -3.57629,-0.79252 -6.83527,-2.09442 -9.68214,-3.70905 0,0 0,0 -10e-6,-1e-5 -4.57854,-2.61182 -7.97312,-5.96987 -10.38793,-9.25018 -2.41481,-3.28031 -3.86109,-6.4884 -4.70076,-9.17359 -0.83966,-2.68518 -1.08494,-4.85575 -1.07679,-6.32799 0.008,-1.47223 0.25955,-2.25335 0.60581,-2.30584 0.34626,-0.0525 0.77255,0.62147 1.38713,1.86 0.61458,1.23853 1.42999,3.04673 2.69959,5.19643 1.26961,2.1497 3.00538,4.64909 5.41898,7.09927 2.41361,2.45017 5.51378,4.85831 9.31332,6.53619 0,0 0,0 0,0 2.37751,1.06033 5.03729,1.8564 7.88002,2.26097 2.84273,0.40457 5.86873,0.41766 8.8963,-0.0945 2.60947,-0.43676 5.24823,-1.26963 7.77363,-2.50135 2.5254,-1.23172 4.93728,-2.86218 7.05089,-4.86897 3.86439,-3.65485 6.84596,-8.68933 8.06813,-14.22913 0.72747,-3.2657 0.8497,-6.75646 0.33202,-10.19347 -0.31498,-2.09124 -0.86128,-4.12518 -1.62173,-6.0409 -2.07342,-5.25474 -5.799,-9.75301 -10.1982,-12.75308 -2.38508,-1.63343 -5.00721,-2.85671 -7.68545,-3.67158 -2.67825,-0.81486 -5.41239,-1.22121 -8.06228,-1.23721 0,0 0,0 0,0 -3.02143,-0.0237 -5.97283,0.45833 -8.6986,1.3019 -2.72577,0.84357 -5.22603,2.04876 -7.41523,3.48789 -2.78828,1.82702 -5.10461,4.04843 -6.95163,6.3477 -1.84702,2.29926 -3.22654,4.67797 -4.23201,6.93057 -0.9304,2.08062 -1.55342,4.06282 -1.9951,5.83188 -0.44168,1.76906 -0.70301,3.32703 -0.89906,4.61144 -0.19605,1.28441 -0.32808,2.2972 -0.48319,2.99806 -0.15511,0.70085 -0.33478,1.09107 -0.57753,1.12787 z"
       id="path3070"
       inkscape:original-d="m 379.23668,168.25761 c -1.45133,-4.3392 -1.89764,-13.81594 1.43245,-15.44838 19.58282,-9.59969 20.90041,29.23753 15.7569,39.32313 -4.08171,8.00358 -17.18935,-19.96344 -17.18935,-23.87475 z"
       inkscape:connector-curvature="0"
       inkscape:path-effect="#path-effect3072;#path-effect3074"
       inkscape:export-filename="C:\Users\Smoosh\Dropbox\Bacteria_Vectors\germMania.png"
       inkscape:export-xdpi="125"
       inkscape:export-ydpi="125" />
    <path
       inkscape:connector-curvature="0"
       inkscape:original-d="m 482.37277,164.04441 c -1.45132,-4.3392 -1.89764,-13.81593 1.43245,-15.44838 19.58282,-9.59969 20.90041,29.23754 15.7569,39.32315 -4.0817,8.00356 -17.18935,-19.96345 -17.18935,-23.87477 z"
       id="path3078"
       d="m 482.37277,164.04441 c -0.24275,0.0368 -0.54103,-0.2818 -0.85847,-0.95868 -0.31743,-0.67689 -0.65322,-1.71347 -0.90821,-3.10497 -0.255,-1.3915 -0.42822,-3.13991 -0.37112,-5.20654 0.0571,-2.06664 0.34561,-4.45358 1.04782,-7.05731 0.76336,-2.82264 2.01735,-5.88487 3.9339,-8.93288 1.91655,-3.04801 4.49837,-6.08275 7.83541,-8.7139 2.6251,-2.06484 5.69075,-3.85451 9.12295,-5.1784 3.4322,-1.32389 7.23121,-2.18156 11.24687,-2.36624 10e-6,0 10e-6,0 10e-6,0 3.52212,-0.15722 7.16832,0.20731 10.77394,1.14993 3.60563,0.94263 7.17037,2.46351 10.48797,4.59411 6.10535,3.93339 11.22011,9.87019 14.14519,17.08976 1.06334,2.63578 1.82264,5.41075 2.25311,8.25775 0.70749,4.67912 0.5051,9.41713 -0.54299,13.90316 -1.7884,7.60378 -5.94424,14.23855 -11.34488,19.03242 -2.96299,2.62254 -6.25878,4.66765 -9.67094,6.14303 -3.41215,1.47539 -6.94036,2.38123 -10.41056,2.75828 -4.02786,0.43229 -7.92188,0.1497 -11.49817,-0.64283 -3.57629,-0.79253 -6.83528,-2.09443 -9.68215,-3.70906 0,-10e-6 -1e-5,-10e-6 -1e-5,-10e-6 -4.57854,-2.61183 -7.97313,-5.96987 -10.38793,-9.25019 -2.41481,-3.28031 -3.8611,-6.4884 -4.70076,-9.17359 -0.83966,-2.68519 -1.08494,-4.85576 -1.07679,-6.328 0.008,-1.47223 0.25955,-2.25335 0.60581,-2.30584 0.34626,-0.0525 0.77255,0.62147 1.38713,1.86 0.61458,1.23853 1.42998,3.04674 2.69959,5.19644 1.26961,2.1497 3.00537,4.64909 5.41898,7.09927 2.41361,2.45018 5.51378,4.85832 9.31332,6.5362 0,0 0,0 0,0 2.37751,1.06033 5.03729,1.8564 7.88003,2.26098 2.84273,0.40457 5.86874,0.41766 8.89631,-0.0945 2.60948,-0.43677 5.24824,-1.26964 7.77364,-2.50136 2.5254,-1.23172 4.93728,-2.86218 7.0509,-4.86897 3.86439,-3.65485 6.84597,-8.68933 8.06815,-14.22914 0.72747,-3.26571 0.8497,-6.75647 0.33202,-10.19348 -0.31498,-2.09124 -0.86128,-4.12519 -1.62174,-6.04091 -2.07342,-5.25475 -5.799,-9.75303 -10.1982,-12.7531 -2.38509,-1.63343 -5.00722,-2.85672 -7.68547,-3.67158 -2.67824,-0.81487 -5.41239,-1.22122 -8.06228,-1.23722 0,0 0,0 0,0 -3.02143,-0.0237 -5.97283,0.45833 -8.69861,1.30191 -2.72578,0.84357 -5.22604,2.04876 -7.41524,3.48789 -2.78828,1.82702 -5.10462,4.04844 -6.95164,6.34771 -1.84702,2.29926 -3.22654,4.67798 -4.23201,6.93057 -0.9304,2.08063 -1.55342,4.06283 -1.9951,5.83189 -0.44168,1.76907 -0.70301,3.32703 -0.89906,4.61144 -0.19605,1.28441 -0.32808,2.2972 -0.48319,2.99806 -0.15511,0.70085 -0.33478,1.09107 -0.57753,1.12787 z"
       style="fill:#000000;fill-rule:evenodd;stroke:none"
       inkscape:path-effect="#path-effect3080;#path-effect3082"
       inkscape:export-filename="C:\Users\Smoosh\Dropbox\Bacteria_Vectors\germMania.png"
       inkscape:export-xdpi="125"
       inkscape:export-ydpi="125" />
    <path
       style="fill:#000000;fill-rule:evenodd;stroke:none"
       d="m 422.21005,234.2643 c 0.51372,-0.1908 1.44415,0.9055 2.89376,2.91696 1.4496,2.01146 3.4439,4.93969 6.27758,8.28288 2.83367,3.34319 6.52483,7.10486 11.22507,10.6055 4.70024,3.50065 10.41506,6.73854 16.97371,8.83845 10e-6,0 10e-6,0 10e-6,10e-6 6.79198,2.19645 14.54871,3.15866 22.51394,2.46399 8.30932,-0.72469 16.08401,-3.18701 22.5732,-6.75008 0,0 0,0 10e-6,0 5.94431,-3.24222 10.87283,-7.40028 14.78476,-11.61711 3.91193,-4.21683 6.81301,-8.49201 8.96837,-12.20833 2.15536,-3.71633 3.58141,-6.88018 4.64168,-9.065 1.06028,-2.18481 1.77822,-3.3963 2.31112,-3.29806 0.5329,0.0982 0.84299,1.50864 0.69586,4.06399 -0.14712,2.55535 -0.77369,6.26352 -2.36405,10.72083 -1.59036,4.45732 -4.16505,9.66771 -8.13021,14.89397 -3.96515,5.22625 -9.33383,10.46242 -16.178,14.65018 -1e-5,0 -1e-5,0 -1e-5,0 -3.74699,2.28051 -7.89363,4.21832 -12.34055,5.68653 -4.44693,1.46822 -9.19354,2.46627 -14.09309,2.89319 -9.3933,0.81847 -18.56349,-0.55671 -26.50099,-3.50182 0,0 0,0 -10e-6,0 -7.65341,-2.86103 -14.02673,-7.08665 -18.98119,-11.58231 -4.95445,-4.49566 -8.50214,-9.25242 -10.91475,-13.43909 -2.41261,-4.18666 -3.71217,-7.80329 -4.32033,-10.34659 -0.60815,-2.5433 -0.54961,-4.01729 -0.0359,-4.20809 z"
       id="path3084"
       inkscape:path-effect="#path-effect3086;#path-effect3088"
       inkscape:original-d="m 422.21005,234.2643 c 15.40176,12.60286 20.84953,27.77561 35.81115,35.10994 15.18566,7.44416 77.35206,-15.13621 77.35206,-44.94073"
       inkscape:connector-curvature="0"
       inkscape:export-filename="C:\Users\Smoosh\Dropbox\Bacteria_Vectors\germMania.png"
       inkscape:export-xdpi="125"
       inkscape:export-ydpi="125" />
  </g>
  <g
     inkscape:label="Layer 1"
     inkscape:groupmode="layer"
     id="layer1"
     transform="translate(0,-552.36218)">
    <path
       style="fill:#ffffff"
       id="path3234"
       d="m 125.80889,139.82902 c -7.56979,5.37806 -14.61411,11.25525 -21.27802,17.71634 -6.225188,6.58803 -11.987956,13.52678 -17.237409,20.90657 -4.420465,5.31563 -7.792121,11.34929 -10.695129,17.58969 -4.020941,5.51304 -5.431505,12.06531 -7.370458,18.45054 -2.419388,7.08166 -2.299874,14.30018 -1.790692,21.64209 0.765674,8.076 0.945178,16.39427 3.440638,24.16746 2.460614,6.61082 5.151666,13.12654 7.890489,19.6288 3.162055,6.99752 7.173958,13.57031 11.003542,20.22324 3.872024,6.96485 7.732796,14.26742 12.610799,20.60156 3.63996,5.68512 8.13459,10.67333 12.84977,15.46527 5.59973,6.01356 12.77461,9.76502 19.54484,14.20046 7.1648,3.8163 14.37948,7.52069 22.36228,9.21127 7.55945,3.65933 15.67988,5.35375 23.96133,6.28191 8.4067,0.52555 16.90444,1.2142 25.28775,0.19235 2.7562,-0.82927 5.7425,-0.33595 8.51326,-1.04019 0.43188,-0.10977 6.55835,-2.85384 7.06911,-3.04676 6.64512,-2.50986 0.798,0.29764 6.77443,-2.79351 1.00349,-0.44997 2.05003,-0.81416 3.01047,-1.3499 2.11979,-1.18244 8.31813,-5.00645 6.21536,-3.794 -83.13923,47.93762 -56.831,35.53411 -40.97329,22.32899 6.4974,-5.51534 12.08101,-11.8738 16.74394,-18.97889 4.69388,-5.61314 7.074,-12.10385 7.72862,-19.31565 0,0 52.44337,-26.50098 52.44337,-26.50098 l 0,0 c 0.1088,8.03808 -1.47966,15.85842 -6.14012,22.56883 -2.74621,3.12096 -4.2049,6.7671 -6.86536,9.94796 -2.96069,3.53984 -6.47398,6.71798 -9.58352,10.13047 -19.42565,18.63039 -44.56661,30.06232 -68.75608,41.49093 -7.61317,2.70922 -15.12753,5.16414 -23.34123,5.14867 -8.68286,0.2487 -17.40441,-0.0479 -26.02283,-1.18467 -8.42289,-1.37243 -16.4688,-3.85502 -24.47905,-6.77198 -8.19158,-2.52081 -15.734261,-6.60137 -23.155088,-10.84569 -7.352687,-4.46321 -14.571765,-9.0682 -20.705764,-15.18183 -4.726778,-5.1114 -9.362989,-10.25571 -13.049729,-16.20104 -4.786963,-6.69962 -8.903883,-14.00284 -12.836124,-21.22278 -3.978051,-6.79824 -8.257481,-13.4338 -11.4136,-20.67102 -3.143995,-6.53686 -5.532274,-13.43547 -8.175992,-20.19044 -2.73407,-8.15344 -3.266267,-16.90392 -4.007411,-25.43554 -0.744415,-7.85121 -1.572,-15.67623 0.6388,-23.40111 0.286988,-1.11354 0.573976,-2.22708 0.860965,-3.34062 0.366394,-1.00288 0.81246,-1.98014 1.099182,-3.00863 1.291284,-4.63193 1.807263,-9.45768 4.680182,-13.52572 2.524618,-3.18416 2.565853,-5.50081 4.505522,-8.86771 1.877927,-3.25973 4.145462,-6.36348 6.109565,-9.58353 3.028806,-3.22995 4.95733,-6.88995 7.717357,-10.34118 7.62854,-9.53901 -1.814445,2.74497 6.462051,-7.02517 1.145094,-1.35175 2.11366,-2.84364 3.170489,-4.26546 4.509169,-4.5485 8.94839,-9.81991 14.111415,-13.65089 1.100603,-0.81665 2.427932,-1.28815 3.546557,-2.07993 0.902526,-0.63883 1.6596,-1.46162 2.4894,-2.19243 0,0 55.035413,-22.08615 55.035413,-22.08615 z"
       inkscape:connector-curvature="0" />
  </g>
</svg>
