<?xml version="1.0" encoding="UTF-8" standalone="no"?>
<!-- Created with Inkscape (http://www.inkscape.org/) -->

<svg
   xmlns:dc="http://purl.org/dc/elements/1.1/"
   xmlns:cc="http://creativecommons.org/ns#"
   xmlns:rdf="http://www.w3.org/1999/02/22-rdf-syntax-ns#"
   xmlns:svg="http://www.w3.org/2000/svg"
   xmlns="http://www.w3.org/2000/svg"
   xmlns:sodipodi="http://sodipodi.sourceforge.net/DTD/sodipodi-0.dtd"
   xmlns:inkscape="http://www.inkscape.org/namespaces/inkscape"
   width="64px"
   height="64px"
   id="svg2985"
   version="1.1"
   inkscape:version="0.48.5 r10040"
   sodipodi:docname="potion.svg">
  <defs
     id="defs2987">
    <inkscape:path-effect
       effect="skeletal"
       id="path-effect3837"
       is_visible="true"
       pattern="M 0,5 10,10 10,0 z"
       copytype="single_stretched"
       prop_scale="1"
       scale_y_rel="false"
       spacing="0"
       normal_offset="0"
       tang_offset="0"
       prop_units="false"
       vertical_pattern="false"
       fuse_tolerance="0" />
    <inkscape:path-effect
       effect="spiro"
       id="path-effect3835"
       is_visible="true" />
    <inkscape:path-effect
       effect="skeletal"
       id="path-effect3801"
       is_visible="true"
       pattern="M 0,5 10,10 10,0 z"
       copytype="single_stretched"
       prop_scale="1"
       scale_y_rel="false"
       spacing="0"
       normal_offset="0"
       tang_offset="0"
       prop_units="false"
       vertical_pattern="false"
       fuse_tolerance="0" />
    <inkscape:path-effect
       effect="spiro"
       id="path-effect3799"
       is_visible="true" />
  </defs>
  <sodipodi:namedview
     id="base"
     pagecolor="#ffffff"
     bordercolor="#666666"
     borderopacity="1.0"
     inkscape:pageopacity="0.0"
     inkscape:pageshadow="2"
     inkscape:zoom="5.5"
     inkscape:cx="18.66224"
     inkscape:cy="32"
     inkscape:current-layer="layer1"
     showgrid="true"
     inkscape:document-units="px"
     inkscape:grid-bbox="true"
     inkscape:window-width="1498"
     inkscape:window-height="856"
     inkscape:window-x="312"
     inkscape:window-y="89"
     inkscape:window-maximized="0" />
  <metadata
     id="metadata2990">
    <rdf:RDF>
      <cc:Work
         rdf:about="">
        <dc:format>image/svg+xml</dc:format>
        <dc:type
           rdf:resource="http://purl.org/dc/dcmitype/StillImage" />
        <dc:title></dc:title>
      </cc:Work>
    </rdf:RDF>
  </metadata>
  <g
     inkscape:groupmode="layer"
     id="layer2"
     inkscape:label="water" />
  <g
     id="layer1"
     inkscape:label="Layer 1"
     inkscape:groupmode="layer">
    <path
       style="opacity:0.95132744999999996;fill:#f10000;fill-opacity:0.77127659;stroke:#000000;stroke-width:3;stroke-miterlimit:4;stroke-opacity:0;stroke-dasharray:none"
       id="path3047"
       d="m -36.132806,2.4258133 c -0.104594,-0.3257284 -0.276675,-0.6264002 -0.440038,-0.925949 -0.150418,-0.295215 -0.346684,-0.56144139 -0.51296,-0.84763709 -0.187698,-0.2584861 -0.360738,-0.5266037 -0.538957,-0.79141133 -0.207729,-0.32935085 -0.469376,-0.61853058 -0.732231,-0.90394278 -0.286937,-0.3323693 -0.630277,-0.6031811 -0.971357,-0.8761595 -0.302325,-0.1876026 -0.612367,-0.3581539 -0.905354,-0.5605671 -0.314728,-0.1673736 -0.611358,-0.3640897 -0.953204,-0.4731131 -0.296731,-0.1510578 -0.604145,-0.2975777 -0.928297,-0.3793883 -0.05214,-0.00841 -0.105981,-0.0096 -0.15643,-0.025237 -0.120119,-0.053462 -0.197092,-0.092665 -0.320782,-0.1303392 -0.139527,-0.042497 -0.281743,-0.055053 -0.42616,-0.06741 -0.276394,-0.1431353 -0.575351,-0.1725072 -0.88028,-0.1872421 -0.333254,0.025658 -0.634995,-0.1142516 -0.961218,-0.1582728 -0.327633,-0.031259 -0.657284,-0.029748 -0.986075,-0.0308 -0.361137,-7.72e-5 -0.722273,0.00112 -1.083409,0.00172 -0.06068,7.93e-5 -0.122072,-0.00902 -0.182042,2.38e-4 -0.113723,0.017564 -0.219498,0.07069 -0.332219,0.093826 -0.183239,0.03761 -0.368168,0.054179 -0.554225,0.069624 -0.121784,0.031702 -0.252133,-0.010235 -0.374155,0.01611 -0.05093,0.010996 -0.0937,0.045847 -0.142167,0.064955 -0.149804,0.059056 -0.300731,0.080538 -0.459325,0.1000669 -0.34042,0.038546 -0.663993,0.175267 -0.990875,0.2782371 -0.06213,0.013694 -0.127412,0.017206 -0.18638,0.041081 -0.05238,0.021207 -0.09259,0.06529 -0.142369,0.092025 -0.255683,0.1373103 -0.04371,0.00133 -0.311944,0.108142 -0.05001,0.019913 -0.09433,0.051882 -0.141489,0.077823 -0.05441,0.018794 -0.108813,0.037588 -0.163219,0.056382 0.124572,-0.013855 -0.356411,0.2334912 -0.264087,0.1802446 13.896536,-8.0146466 0.169133,-0.076806 -0.286253,0.16681 -1.776586,0.9504144 6.879271,-4.1840771 5.241213,-3.010913 -0.230764,0.1292115 -0.468648,0.2883909 -0.638862,0.4934806 -0.246673,0.1599914 -0.413336,0.4040328 -0.58317,0.6384054 -0.193582,0.2345462 -0.328857,0.507564 -0.498937,0.7566937 -0.187786,0.2717757 -0.330257,0.5635732 -0.463824,0.8651924 -0.113261,0.3379393 -0.189543,0.6890256 -0.269003,1.0368642 -0.07358,0.3434197 -0.08774,0.6949292 -0.09726,1.04479447 -0.0065,0.36189699 -0.0048,0.72387924 -0.0042,1.08581664 7.52e-4,0.3637686 0.0011,0.72753789 0.0013,1.09130719 -0.01011,0.2892527 -0.0018,0.5765133 0.08958,0.8533152 0.116893,0.2771647 0.200205,0.5685817 0.324883,0.8421713 0.119761,0.2445156 0.269035,0.4740416 0.407333,0.7091628 0.171289,0.2116706 0.317556,0.4509663 0.436421,0.696436 0.142418,0.2044825 0.206895,0.4533487 0.364928,0.6470759 0.113603,0.225712 0.312547,0.3247452 0.490336,0.4756641 0.20499,0.145902 0.405243,0.2885526 0.628721,0.4073836 0.237639,0.1895295 0.523866,0.3022096 0.769369,0.4754999 0.258965,0.1563012 0.526241,0.2873563 0.800046,0.415321 0.305666,0.1174136 0.608614,0.2409088 0.919755,0.3475107 0.356863,0.070208 0.691333,0.1994762 1.053072,0.2509786 0.371062,0.016552 0.722331,0.025903 1.033029,0.2468149 0.130608,0.148426 0.493816,0.6611189 0.214892,0.8222888 -5.603508,3.237863 -3.517817,2.965599 -5.837023,3.244807 -0.05828,0.0053 -0.117899,0.0024 -0.174853,0.01585 -0.05514,0.01304 -0.105303,0.04188 -0.157955,0.06282 -0.05946,0.01601 -0.118354,0.03432 -0.17839,0.04802 -0.189376,0.04323 -0.381118,0.06079 -0.574145,0.07728 -0.124852,0.03203 -0.257898,-0.01019 -0.383017,0.01575 -0.05181,0.01074 -0.09581,0.04515 -0.145245,0.064 -0.151504,0.05776 -0.303828,0.0792 -0.463664,0.09842 -0.109297,0.03384 -0.228842,-0.0095 -0.338434,0.01796 -0.04685,0.01172 -0.08353,0.04891 -0.127731,0.06836 -0.144309,0.06346 -0.277485,0.0739 -0.416762,0.152039 -0.05205,0.01741 -0.106314,0.02925 -0.15616,0.05223 -0.06042,0.02786 -0.613547,0.382435 -0.292621,0.198931 9.205057,-5.263398 6.860012,-3.9125666 4.976203,-2.8585831 -0.263042,0.1549441 -0.465769,0.3888361 -0.714666,0.5576761 -0.186067,0.171336 -0.347266,0.394037 -0.552109,0.541492 -0.191499,0.202654 -0.374468,0.415724 -0.594831,0.591965 -0.04377,0.136011 -0.184077,0.202312 -0.256649,0.315757 -0.07308,0.114242 -0.127353,0.230417 -0.208565,0.342408 -0.112359,0.261966 -0.272203,0.471299 -0.32073,0.75865 -0.110247,0.294364 -0.182968,0.598579 -0.277666,0.897945 -0.05074,0.314325 -0.171963,0.608098 -0.252252,0.914908 -0.07166,0.327507 -0.07756,0.664144 -0.08424,0.997899 -0.0044,0.36238 -0.0027,0.724801 -0.002,1.087197 -0.02914,0.317239 0.03425,0.620223 0.09197,0.92913 0.03802,0.288907 0.13002,0.5681 0.22496,0.842651 0.119455,0.25788 0.301578,0.475958 0.448914,0.718178 0.153561,0.230774 0.353478,0.420543 0.52852,0.632795 0.180377,0.180731 0.374077,0.350231 0.541387,0.543993 0.203726,0.18293 0.362355,0.407626 0.577595,0.580237 0.214973,0.213676 0.497061,0.328678 0.738224,0.501407 0.09833,0.09267 0.23468,0.07109 0.34876,0.11309 0.140413,0.0517 0.247798,0.12386 0.396346,0.160031 0.294928,0.01513 0.548714,0.154864 0.841402,0.194949 0.314857,-0.0044 0.592856,0.137091 0.902412,0.179455 0.325388,0.03049 0.652746,0.02841 0.979238,0.02914 0.3613,-2.38e-4 0.722597,-0.0015 1.083896,-0.0022 0.364047,-5.87e-4 0.728095,-6.68e-4 1.092142,-7.27e-4 0.363699,-3.6e-5 0.727397,-2.1e-5 1.091096,-1.4e-5 0.363634,7e-6 0.727268,9e-6 1.090901,10e-6 0.363636,1e-6 0.727271,1e-6 1.090906,1e-6 0.236072,-0.03345 0.49321,0.04415 0.727273,0 0.0987,-0.01862 0.186125,-0.07599 0.281502,-0.107477 0.146173,-0.06913 0.326241,-0.01947 0.474805,-0.06413 0.04544,-0.01366 0.07898,-0.05316 0.121617,-0.074 0.108897,-0.05323 0.162968,-0.05717 0.281272,-0.08269 0.05256,-0.0063 0.108026,-6e-4 0.157679,-0.01896 0.04337,-0.01604 0.07217,-0.05861 0.112633,-0.08099 0.201128,-0.11123 0.05749,-0.0014 0.275739,-0.08519 0.04607,-0.01769 0.08574,-0.04889 0.12861,-0.07333 0.05182,-0.01729 0.103638,-0.03458 0.155457,-0.05186 0.0569,-0.01216 0.117207,-0.01357 0.170689,-0.03648 0.516107,-0.221048 -0.263755,0.0283 0.271117,-0.154009 0.161843,-0.05516 0.309219,-0.05716 0.466443,-0.12947 0.34394,-0.0994 0.708572,-0.106432 1.005325,-0.321959 2.013212,-0.973517 0.274942,-0.137151 -5.250361,3.01104 -0.04203,0.02395 0.08006,-0.0548 0.123152,-0.0768 0.112845,-0.0576 0.216943,-0.08485 0.321843,-0.159042 0.146234,-0.227541 0.233768,-0.477107 0.369461,-0.710047 0.0985,-0.260973 0.213238,-0.509994 0.340393,-0.757892 0,0 5.885984,-2.609777 5.885984,-2.609777 l 0,0 c -0.147814,0.209578 -0.273184,0.41808 -0.369748,0.654599 -0.02663,0.102999 -0.04014,0.188965 -0.09589,0.281043 -0.02065,0.03411 -0.06038,0.05537 -0.07681,0.09169 -0.06011,0.13284 -0.04049,0.298029 -0.166036,0.403037 -0.05118,0.240645 -0.09804,0.425042 -0.321456,0.553361 -5.671604,3.257554 -3.640175,2.437754 -5.810868,3.304926 -0.352829,0.06545 -0.700501,0.155576 -1.033905,0.290629 -0.311833,0.07769 -0.586919,0.255604 -0.898266,0.33542 -0.284134,0.120227 -0.577177,0.202382 -0.875134,0.269775 -0.294202,0.09981 -0.60263,0.09673 -0.902876,0.180433 -0.353706,0.02886 -0.713622,-0.02796 -1.069504,-0.0039 -0.363636,0 -0.727272,0 -1.090908,-3e-6 -0.363633,-3e-6 -0.727266,-9e-6 -1.090899,-7e-6 -0.363639,7e-6 -0.727279,9e-6 -1.090919,1.82e-4 -0.363875,2.14e-4 -0.727749,6.02e-4 -1.091624,0.0012 -0.364419,4.09e-4 -0.728907,0.0019 -1.09325,-0.0068 -0.35516,-0.01209 -0.712299,-0.0297 -1.059005,-0.114386 -0.303095,-0.07798 -0.602287,-0.135269 -0.910248,-0.188408 -0.297529,-0.08654 -0.594201,-0.161871 -0.889023,-0.254311 -0.283962,-0.122914 -0.580953,-0.217605 -0.831047,-0.406742 -0.284792,-0.164834 -0.537861,-0.379434 -0.791418,-0.587739 -0.207429,-0.206114 -0.411736,-0.415201 -0.618075,-0.622368 -0.188296,-0.185226 -0.372904,-0.374375 -0.551498,-0.568992 -0.201778,-0.229152 -0.392668,-0.46669 -0.562073,-0.721099 -0.17909,-0.275828 -0.390298,-0.531689 -0.514196,-0.840607 -0.113023,-0.304716 -0.242482,-0.611186 -0.281974,-0.935986 -0.05656,-0.344695 -0.163408,-0.681417 -0.128837,-1.035068 -6.14e-4,-0.364421 -0.0018,-0.728839 -0.0026,-1.093259 10e-6,-0.362586 -0.002,-0.725799 0.02653,-1.08753 0.01828,-0.170855 0.0358,-0.341287 0.08683,-0.506354 0.02924,-0.09458 0.09324,-0.17599 0.122386,-0.270598 0.01856,-0.06024 0.01884,-0.124644 0.02825,-0.186966 0.06526,-0.314255 0.166216,-0.616205 0.242013,-0.927127 0.145121,-0.252445 0.04437,-0.60895 0.290001,-0.819262 0.02979,-0.107597 0.0442,-0.194635 0.106268,-0.289311 0.02333,-0.03559 0.06579,-0.05694 0.0859,-0.09445 0.07456,-0.139059 0.07021,-0.304546 0.225523,-0.396047 0.0492,-0.11001 0.07598,-0.20176 0.166765,-0.286218 0.03407,-0.0317 0.08474,-0.04147 0.119065,-0.07289 0.103254,-0.09453 0.117562,-0.252387 0.266922,-0.296242 0.22195,-0.3476 -0.0707,0.07153 0.180844,-0.182116 0.03351,-0.03379 0.04346,-0.08641 0.07686,-0.120297 0.02896,-0.02937 0.07651,-0.03534 0.105494,-0.06469 0.248686,-0.251857 -0.09089,-0.01364 0.187818,-0.191805 0.217939,-0.322154 -0.05419,0.04592 0.201852,-0.204347 0.03944,-0.03856 0.05928,-0.09433 0.09902,-0.132576 0.03832,-0.03688 0.09246,-0.05407 0.131937,-0.0897 0.317883,-0.286913 -0.08523,-0.005 0.278361,-0.241062 0.197152,-0.188747 0.09358,-0.111788 0.328554,-0.248532 2.794976,-1.62652 3.8725,-2.7246041 6.19048,-3.4736178 0.316377,-0.057344 0.624232,-0.1168674 0.94219,-0.1630076 0.329503,-0.084795 0.653878,-0.1039254 0.98949,-0.1508681 0.350507,-0.080142 0.697637,-0.1882238 1.036688,-0.3017961 1.928375,-1.1355837 0.175488,-0.1026847 -5.294523,3.0370156 -0.02876,0.01678 0.07272,-0.0269 0.09964,-0.0073 0.130382,0.09499 0.202047,0.294515 0.319813,0.403857 -0.127122,0.0084 0.0284,0.0026 -0.19721,-0.02301 -0.234831,-0.02669 -0.474042,-0.03141 -0.702924,-0.101901 -0.371833,-0.0985 -0.743809,-0.200403 -1.106668,-0.327277 -0.32947,-0.126263 -0.667118,-0.234838 -0.979854,-0.400836 -0.279363,-0.152274 -0.57151,-0.282109 -0.836267,-0.46112 -0.266214,-0.1387551 -0.503798,-0.3257411 -0.771,-0.4636871 -0.227938,-0.152921 -0.459541,-0.298563 -0.672767,-0.47296 -0.235653,-0.168815 -0.422761,-0.3918803 -0.584494,-0.6311068 -0.16037,-0.2393783 -0.273604,-0.5010003 -0.419239,-0.7488198 -0.106541,-0.2320037 -0.263872,-0.4380797 -0.408753,-0.6469853 -0.149436,-0.2548744 -0.304296,-0.508534 -0.428827,-0.7762659 -0.129212,-0.287841 -0.232522,-0.5868643 -0.356634,-0.8771474 -0.131304,-0.3394169 -0.191891,-0.701673 -0.173134,-1.0659553 -8.4e-5,-0.3634973 -2.09e-4,-0.7269948 -8.57e-4,-1.0904916 -6.94e-4,-0.3655434 -0.0022,-0.7310887 -0.0012,-1.0966326 0.0027,-0.3806621 0.0058,-0.762385 0.05179,-1.1408178 0.05533,-0.38000489 0.175382,-0.73989299 0.226412,-1.1199262 0.08618,-0.33520722 0.208459,-0.67811044 0.388008,-0.9724923 0.02271,-0.045315 0.04541,-0.09063 0.06812,-0.1359452 0.0305,-0.033894 0.06901,-0.06202 0.09151,-0.1016824 0.02908,-0.051266 0.03563,-0.1127065 0.06043,-0.1661729 0.07385,-0.1591771 0.220704,-0.2386117 0.264865,-0.4138732 0.180249,-0.2528512 0.343707,-0.4983856 0.510264,-0.761069 0.264842,-0.1670436 -0.05344,0.05432 0.188499,-0.1919361 0.03096,-0.03151 0.07989,-0.040859 0.111312,-0.071908 0.03699,-0.036553 0.05283,-0.091144 0.09025,-0.1272634 0.398304,-0.3845249 -0.175617,0.2811731 0.226639,-0.2040971 1.908155,-1.0845214 5.051943,-2.8706855 5.775219,-3.3622945 1.706393,-1.1598295 -7.162846,4.0990397 -5.360144,3.0954252 1.901764,-1.0587645 3.770725,-2.1754054 5.657363,-3.2608949 0.1607,-0.09246 0.117005,-0.067603 0.301268,-0.1188424 0.313252,-0.1386893 0.636148,-0.2450967 0.966117,-0.3330038 0.34359,-0.1063138 0.698317,-0.1682439 1.051153,-0.2307539 0.328584,-0.085756 0.650394,-0.1052363 0.987333,-0.1375755 0.370877,-0.061071 0.736685,-0.1394055 1.115134,-0.1016262 0.364277,-2.863e-4 0.728622,-0.0015 1.092821,0.00733 0.354473,0.012 0.710328,0.030099 1.05783,0.1067992 0.310821,0.069655 0.614864,0.1082125 0.933033,0.1268124 0.308186,0.053545 0.599844,0.1604396 0.905067,0.2192973 0.322852,0.083637 0.629758,0.2129944 0.949855,0.3051141 0.319667,0.1300503 0.634806,0.2669089 0.943417,0.4211407 0.351478,0.1729618 0.697438,0.3593325 1.028535,0.568832 0.318357,0.1960766 0.635857,0.3985164 0.931123,0.6279252 0.351233,0.2975047 0.669389,0.632143 0.992281,0.9596298 0.293915,0.307828 0.589975,0.6171491 0.831001,0.9694641 0.181647,0.2768696 0.365623,0.5515546 0.550148,0.8265386 0.173966,0.292242 0.372072,0.5699988 0.530047,0.871997 0.15659,0.3084536 0.302179,0.6217663 0.485476,0.91590634 0,0 -5.633162,3.20743346 -5.633162,3.20743346 z"
       inkscape:connector-curvature="0"
       inkscape:export-filename="C:\Users\Joe\Desktop\Team_Germ\Germs\Assets\Graphics\GameItems\Shop\empty.png"
       inkscape:export-xdpi="90"
       inkscape:export-ydpi="90" />
    <path
       style="opacity:0.95132744999999996;fill:#f10000;fill-opacity:0.77127659;stroke:#000000;stroke-width:3;stroke-miterlimit:4;stroke-opacity:0;stroke-dasharray:none"
       id="path3051"
       d="m -21.479074,2.8208034 c -0.04103,0.407874 -0.01862,0.8148773 -0.07989,1.2208882 -0.06489,0.3388139 -0.0951,0.6818904 -0.111625,1.0259805 -0.0033,0.3780607 -0.0098,0.7514956 -0.07182,1.1249228 -0.06746,0.3470684 -0.09534,0.6991937 -0.111123,1.0518044 -0.01228,0.360482 -0.01152,0.7212395 -0.01159,1.0818805 3.02e-4,0.36365 7.75e-4,0.727299 0.001,1.090948 2.11e-4,0.363684 2.3e-4,0.7273682 2.46e-4,1.0910522 9e-6,0.36364 3e-6,0.727279 0,1.090918 0.0027,0.35235 -0.0053,0.704851 0.0038,1.057118 0.06253,0.344744 0.09168,0.695525 0.153111,1.040148 0.09391,0.324108 0.148383,0.65513 0.179715,0.990494 0.04504,0.356697 0.121739,0.707877 0.163288,1.065599 0.01694,0.320221 0.111213,0.627825 0.163033,0.943084 0.02306,0.351104 0.08936,0.694259 0.150256,1.040035 0.02378,0.329637 0.112353,0.645547 0.181693,0.966832 0.03003,0.310004 0.115892,0.607403 0.1824,0.910295 -0.163363,-0.205452 0.07492,0.177526 0.05412,0.134054 -1.065061,-2.226723 -0.996271,0.251437 -5.761783,2.943061 -0.01955,0.01104 0.0284,-0.03608 0.03501,-0.05754 0.01129,-0.03666 0.01182,-0.0758 0.01774,-0.113706 0.0082,-0.328523 -0.0734,-0.659242 -0.109773,-0.987461 -0.01664,-0.323538 -0.112469,-0.634217 -0.165175,-0.952621 -0.01426,-0.313592 -0.09166,-0.614453 -0.154572,-0.920081 -0.03879,-0.34673 -0.111371,-0.686585 -0.175424,-1.029135 -0.067,-0.373503 -0.08419,-0.752896 -0.09467,-1.131405 -0.0072,-0.365785 -0.0058,-0.731669 -0.0054,-1.097505 5.92e-4,-0.363563 9.29e-4,-0.727128 0.0011,-1.090692 1.5e-4,-0.363597 1.5e-4,-0.727195 1.55e-4,-1.090792 1e-6,-0.363635 -5e-6,-0.72727 -7e-6,-1.090905 -0.02469,-0.380758 0.0591,-0.7522 0.114605,-1.126065 0.03015,-0.316206 0.09861,-0.634899 0.236676,-0.921854 0.08111,-0.284045 0.219974,-0.552026 0.403319,-0.783651 0.214309,-0.22572 0.466841,-0.4538292 0.747487,-0.5983882 0.262553,-0.19867 0.536277,-0.376769 0.814229,-0.552101 1.935796,-1.3411828 4.020604,-2.4989484 6.12104,-3.5584642 0.49367,-0.2490204 -0.126115,0.1061441 0.350739,-0.1752399 0.112573,-0.084656 0.259077,-0.077768 0.381659,-0.1338981 0.05446,-0.024938 0.09641,-0.071648 0.148629,-0.1009959 0.156042,-0.087702 0.320605,-0.1154847 0.494556,-0.1420782 0.113807,-0.037389 0.238114,0.00678 0.352476,-0.021058 0.04784,-0.011645 0.08574,-0.048878 0.131056,-0.068129 0.197644,-0.08396 0.297955,-0.028285 0.477642,0.071005 0.291628,0.2505882 0.530796,0.5660749 0.714945,0.9027891 0.186854,0.2683383 0.324559,0.56381 0.452556,0.8633004 0.120552,0.3206987 0.260602,0.6325849 0.385585,0.9516401 0.139044,0.3456713 0.232898,0.7079343 0.332227,1.0666213 0.110598,0.335055 0.191424,0.678445 0.31113,1.010285 0.08059,0.2881436 0.184298,0.5679756 0.282197,0.8506096 0.140177,0.324862 0.245175,0.663228 0.373768,0.992067 0.107744,0.290847 0.208498,0.584026 0.308978,0.877634 0.06484,0.302354 0.164032,0.595273 0.23692,0.895576 0.109296,0.265498 0.163733,0.545871 0.235988,0.822015 0.103826,0.279779 0.138797,0.576671 0.225676,0.860869 0.07661,0.194372 0.08096,0.408121 0.145909,0.605107 0.0051,0.01556 0.02837,0.05905 0.0221,0.04391 -0.02443,-0.05898 -0.05108,-0.117017 -0.07662,-0.175526 -7.469276,4.314716 -5.688936,5.101319 -5.636281,2.46329 0.0045,-0.364958 0.0032,-0.729958 0.0027,-1.094935 -5.51e-4,-0.365613 -7.88e-4,-0.731226 -9.24e-4,-1.096838 0.01354,-0.363497 -0.02612,-0.730258 0.01582,-1.091803 0.08312,-0.323283 0.105781,-0.657258 0.173221,-0.982924 0.08595,-0.35699 0.132088,-0.719954 0.217128,-1.077079 0.08118,-0.359986 0.112657,-0.726352 0.190014,-1.087125 0.05742,-0.364961 0.133291,-0.724604 0.211311,-1.0856 0.04381,-0.332864 0.0914,-0.6571096 0.174966,-0.9825346 0.03884,-0.306257 0.16731,-0.58944 0.263933,-0.87987 0.115272,-0.251436 0.320907,-0.430554 0.475753,-0.651922 0.08678,-0.06312 0.140369,-0.161334 0.222815,-0.2286073 0.0377,-0.03076 0.0864,-0.045578 0.125481,-0.074567 1.820995,-1.3509147 3.656434,-3.0697537 5.9209717,-3.4092283 0.254999,-0.205633 0.594714,-0.191379 0.9058501,-0.1992575 0.3829028,-0.05036 0.7358919,0.063363 1.1069163,0.1290856 0.1490198,0.098458 0.3372905,0.1131967 0.4962611,0.1829502 0.1463957,0.064236 0.2594229,0.1464972 0.4145559,0.193811 0.2965445,0.1471786 0.5080549,0.3773179 0.6993322,0.6426888 0.1954131,0.214874 0.3513984,0.4651123 0.5140099,0.7056004 0.2002297,0.2252483 0.3681362,0.4788027 0.5396239,0.7263248 0.132552,0.264095 0.3291823,0.4833632 0.4712385,0.7409899 0.1527851,0.2313808 0.2888656,0.4782474 0.4022248,0.7317694 0.1408885,0.331065 0.2901257,0.657212 0.3984846,1.000696 0.084203,0.330288 0.19923,0.648691 0.2638564,0.9840936 0.020129,0.314946 0.096557,0.618257 0.1592794,0.926047 0.04741,0.277175 0.1179248,0.553492 0.2031584,0.821565 0.1106153,0.302391 0.1909178,0.615116 0.2772292,0.925183 0.078969,0.297209 0.1630987,0.596142 0.2631879,0.887135 0.12153,0.276139 0.1622386,0.575668 0.2528952,0.861299 0.1129329,0.309904 0.1289159,0.639151 0.1757651,0.961879 0.085817,0.321036 0.1363193,0.647703 0.1654735,0.978238 0.00662,0.35741 0.090331,0.705678 0.1406651,1.058202 0.027917,0.322508 0.127667,0.63122 0.1825714,0.949468 0.036287,0.200457 0.026486,0.408422 0.08666,0.604757 0.030454,0.09937 0.025092,0.09768 0.042702,0.05485 -0.024612,-0.05988 -0.049224,-0.119753 -0.073837,-0.179629 0,0 -5.3954543,3.650928 -5.3954543,3.650928 l 0,0 c -0.054521,-0.07026 -0.1090421,-0.140526 -0.1635632,-0.210789 -0.1187997,-0.288511 -0.1770962,-0.599537 -0.19055,-0.9104 -0.041383,-0.328526 -0.149574,-0.641991 -0.178252,-0.971001 -0.037861,-0.364866 -0.1312766,-0.719786 -0.1632535,-1.083225 -0.016999,-0.304502 -0.046553,-0.608151 -0.1364562,-0.901299 -0.070006,-0.295473 -0.052182,-0.603715 -0.1469065,-0.895255 -0.091305,-0.279558 -0.1372744,-0.566021 -0.2404668,-0.841526 -0.1141293,-0.305334 -0.1865237,-0.630878 -0.2744321,-0.944039 -0.0757,-0.295401 -0.1799101,-0.582138 -0.2712521,-0.872548 -0.1084868,-0.292509 -0.1780938,-0.607924 -0.2425959,-0.91167 -0.05363,-0.314883 -0.162352,-0.618382 -0.16209,-0.940809 -0.04177,-0.317324 -0.150129,-0.612977 -0.216618,-0.924236 -0.08208,-0.323643 -0.232494,-0.617624 -0.383535,-0.913904 -0.09884,-0.238493 -0.238815,-0.459926 -0.373584,-0.679269 -0.129225,-0.236842 -0.314041,-0.44129 -0.428143,-0.6880026 -0.173648,-0.249499 -0.353529,-0.493344 -0.543856,-0.730439 -0.159242,-0.231632 -0.321486,-0.460316 -0.508812,-0.670478 -0.139437,-0.168663 -0.288509,-0.289997 -0.50443,-0.352299 -0.257302,-0.123486 -0.525932,-0.241041 -0.811497,-0.276576 -0.3373,-0.05234 -0.670573,-0.03305 -1.006424,0.03251 -0.291639,0.07324 -0.534095,0.229838 -0.813005,0.331142 -1.774511,1.336009 -0.195025,0.139619 5.258926,-3.0464918 0.04231,-0.024717 -0.09051,0.039949 -0.129385,0.069781 -0.04202,0.032248 -0.06665,0.084446 -0.110429,0.1142616 -0.04012,0.027321 -0.09035,0.035497 -0.135526,0.053245 -0.03609,0.0274 -0.07218,0.0548 -0.10827,0.0822 -0.268063,0.1511498 0.05672,-0.052987 -0.182525,0.1750973 -0.02889,0.027546 -0.07599,0.030255 -0.104894,0.05779 -0.03283,0.031275 -0.04233,0.082015 -0.07493,0.1135235 -0.22602,0.2184281 0.01515,-0.1338817 -0.171864,0.1714253 -0.22875,0.1562079 -0.239422,0.4359819 -0.386164,0.6562619 -0.04932,0.3365638 -0.195757,0.6367397 -0.195659,0.9802459 -0.05463,0.3711512 -0.175537,0.7226852 -0.206457,1.0967552 -0.06785,0.366849 -0.166464,0.721423 -0.185662,1.09674 -0.07088,0.3613457 -0.176788,0.7098037 -0.210218,1.0786207 -0.02495,0.103326 -0.06718,0.202459 -0.08599,0.307078 -0.03865,0.214924 -0.0084,0.444261 -0.08091,0.655099 -0.02619,0.08746 -0.07374,0.169265 -0.08764,0.259501 -0.03648,0.236928 0.0277,0.489404 -10e-5,0.727671 -1.06e-4,0.365653 -3.15e-4,0.731307 -3.8e-4,1.09696 1.11e-4,0.363595 -1.56e-4,0.727216 0.0056,1.090776 0.06016,2.787499 1.14918,0.455904 -5.659486,3.89418 -0.03146,-0.06402 -0.0705,-0.124845 -0.09437,-0.192066 -0.06602,-0.185909 0.01704,-0.43343 -0.09165,-0.61545 -0.09153,-0.28722 -0.136357,-0.579851 -0.228369,-0.866759 -0.09326,-0.286272 -0.118075,-0.592226 -0.255362,-0.866277 -0.05564,-0.284667 -0.17109,-0.551289 -0.210616,-0.839215 -0.08755,-0.287616 -0.195359,-0.567396 -0.281024,-0.855537 -0.123524,-0.327847 -0.209202,-0.668532 -0.374964,-0.980579 -0.124747,-0.282498 -0.22068,-0.577839 -0.294302,-0.877383 -0.118196,-0.352106 -0.188134,-0.715275 -0.322309,-1.062542 -0.08032,-0.331152 -0.184597,-0.657605 -0.296462,-0.978701 -0.138955,-0.306914 -0.248346,-0.626516 -0.371974,-0.9395857 -0.135815,-0.280519 -0.268614,-0.559163 -0.443396,-0.819065 -0.06888,-0.1303 -0.248879,-0.484692 -0.420288,-0.400077 -0.221583,0.189955 -0.508989,0.114464 -0.761156,0.247177 -0.311002,0.153935 -0.623939,0.293218 -0.927051,0.461304 -0.365695,0.179113 -0.0069,-0.0033 -0.346216,0.188374 -0.05705,0.03223 -0.230561,0.124574 -0.173881,0.09169 9.377391,-5.4397152 6.941947,-3.9009192 5.037464,-2.9232258 -0.263799,0.1977958 -0.530651,0.3715656 -0.816412,0.5362421 -0.157899,0.1513447 -0.356096,0.2115017 -0.528977,0.3424604 -0.04169,0.031584 -0.0659,0.083455 -0.109401,0.1124947 -0.03987,0.026612 -0.08978,0.033615 -0.134672,0.050423 -0.06745,0.04863 -0.150725,0.07664 -0.209463,0.135503 -0.03169,0.03176 -0.03986,0.08183 -0.07033,0.114768 -0.02613,0.02825 -0.07109,0.03502 -0.09565,0.06465 -0.02923,0.03526 -0.04017,0.08231 -0.06026,0.123471 -0.02711,0.02837 -0.05422,0.05673 -0.08132,0.0851 -0.03076,0.108762 -0.04151,0.177836 -0.101028,0.274084 -0.02142,0.03464 -0.06027,0.05771 -0.07707,0.09481 -0.06075,0.134083 -0.04956,0.30644 -0.147097,0.428665 -0.035,0.355987 -0.124673,0.702718 -0.148908,1.0557533 1e-6,0.363637 4e-6,0.727273 10e-6,1.090909 4e-6,0.36367 1.7e-5,0.72734 -4.6e-5,1.09101 -8.9e-5,0.363776 -2.29e-4,0.727553 -8.4e-4,1.091329 -6.31e-4,0.362062 -0.002,0.724128 -5.08e-4,1.08619 0.0031,0.348711 0.0058,0.698561 0.0504,1.044986 0.0522,0.340045 0.160009,0.667002 0.184467,1.010636 0.05474,0.316879 0.165207,0.622234 0.163746,0.94705 0.04077,0.333092 0.146959,0.653221 0.167715,0.987594 0.02724,0.35172 0.0747,0.701353 0.183141,1.038579 0.0037,0.04164 0.0051,0.08355 0.01107,0.124923 0.0057,0.03944 0.05796,0.0964 0.02392,0.117145 -2.22462,1.355741 -4.72159,5.291308 -5.804607,3.026628 -0.0083,-0.01739 -0.02985,-0.213066 -0.02999,-0.214207 -0.05566,-0.306937 -0.169488,-0.600014 -0.181724,-0.914115 -0.05839,-0.332552 -0.172231,-0.653179 -0.178202,-0.993797 -0.051,-0.349808 -0.157639,-0.688506 -0.167059,-1.043096 -0.0402,-0.329491 -0.145666,-0.646102 -0.1655,-0.976839 -0.02667,-0.362757 -0.08025,-0.721301 -0.176149,-1.072892 -0.01768,-0.308544 -0.05019,-0.61553 -0.142839,-0.912097 -0.08528,-0.360642 -0.07637,-0.737296 -0.169613,-1.098172 -0.06831,-0.371061 -0.03145,-0.748475 -0.03969,-1.124701 3e-6,-0.363633 7e-6,-0.727267 10e-6,-1.0909 -1e-6,-0.363588 6e-6,-0.727176 -10e-5,-1.090764 -1.38e-4,-0.363627 -3.75e-4,-0.727253 -9.82e-4,-1.090879 -5.42e-4,-0.366702 -0.0019,-0.733425 0.0024,-1.10011 0.0068,-0.3775343 0.01709,-0.7561443 0.07381,-1.1301413 0.05929,-0.350529 0.145668,-0.68593 0.107221,-1.046361 0.0063,-0.3692423 0.01488,-0.739937 0.07532,-1.1051118 0.07053,-0.3759703 0.171164,-0.7137017 0.08479,-1.1025802 0,0 5.769124,-2.9395154 5.769124,-2.9395154 z"
       inkscape:connector-curvature="0"
       inkscape:export-filename="C:\Users\Joe\Desktop\Team_Germ\Germs\Assets\Graphics\GameItems\Shop\empty.png"
       inkscape:export-xdpi="90"
       inkscape:export-ydpi="90" />
    <path
       style="opacity:0.95132744999999996;fill:#f10000;fill-opacity:0.77127659;stroke:#000000;stroke-width:3;stroke-miterlimit:4;stroke-opacity:0;stroke-dasharray:none"
       id="path3061"
       d="m 3.1093673,37.121669 c 0.1284991,-0.393089 0.1616923,-0.808388 0.1886825,-1.218606 0.02068,-0.379249 0.021372,-0.759178 0.02207,-1.138871 -4.92e-5,-0.363794 -8.631e-4,-0.727586 -0.00127,-1.09138 -3.634e-4,-0.36341 -4.13e-4,-0.726821 -4.499e-4,-1.090231 -2.23e-5,-0.36362 -1.27e-5,-0.72724 -8.7e-6,-1.090859 4.3e-6,-0.363639 5.7e-6,-0.727278 6.5e-6,-1.090917 6e-7,-0.363637 6e-7,-0.727273 6e-7,-1.09091 -1e-7,-0.363637 -1e-7,-0.727273 -1e-7,-1.090909 0,-0.363637 0,-0.727273 0,-1.090909 0,-0.363637 0,-0.727273 0,-1.090909 0,-0.363637 0,-0.727273 0,-1.09091 0,-0.363636 0,-0.727272 0,-1.090909 0,-0.363636 0,-0.727272 0,-1.090909 0,-0.363636 0,-0.727272 0,-1.090909 0,-0.363636 0,-0.727273 0,-1.090909 C 3.3357758,20.271726 3.2484196,19.970784 3.2011696,19.666115 3.1503602,19.319611 3.1495962,18.969061 3.1344922,18.619999 3.0729678,18.251762 3.0162516,17.883777 2.9845283,17.511635 2.9401798,17.148763 2.8616487,16.791747 2.8190257,16.428144 2.7807846,16.057147 2.775985,15.683925 2.7725339,15.311328 c -0.0019,-0.364224 -8.101e-4,-0.728456 -3.323e-4,-1.092683 4.827e-4,-0.363537 6.173e-4,-0.727075 7.004e-4,-1.090612 0.02979,-0.31683 -0.033219,-0.619403 -0.090763,-0.927958 -0.063169,-0.352556 -0.077221,-0.710882 -0.086682,-1.068109 0.00679,-0.364379 -0.031797,-0.732286 0.010536,-1.09472 C 2.6895598,9.7137668 2.7125134,9.3795208 2.7801388,9.0535952 2.8661994,8.696614 2.9123414,8.3336291 2.9973893,7.9764906 3.0544255,7.6456005 3.1138972,7.3225268 3.2048307,6.9991073 3.2487369,6.6944988 3.3775016,6.4128385 3.4742511,6.1231147 3.6236228,5.8620559 3.8368435,5.5837484 4.1133961,5.4503538 5.9364444,4.0514796 4.9301805,4.8153318 9.8941796,2.1328156 11.724704,1.1436109 2.7307606,6.3649357 4.4742164,5.2292829 4.9670102,4.9082867 8.2207907,2.1699794 10.427482,1.9347956 c 0.09663,-0.1325498 0.261629,-0.1001655 0.387364,-0.1613843 0.04058,-0.01976 0.06272,-0.066047 0.100475,-0.090786 0.08995,-0.058943 0.165292,-0.065898 0.268043,-0.089249 0.05199,-0.00599 0.106995,4.451e-4 0.155981,-0.017984 0.04256,-0.016011 0.0695,-0.059581 0.109192,-0.081775 0.177384,-0.099196 0.40209,-0.097545 0.598501,-0.108768 0.263564,-0.1805813 0.590778,-0.1748055 0.898011,-0.1846021 0.358104,-0.00639 0.716295,-0.00286 1.074428,-0.0012 0.364256,0.00177 0.728516,0.00235 1.092775,0.0027 0.351766,-0.00882 0.676152,0.1382106 0.989647,0.2771943 0.297348,0.1080211 0.583167,0.2378538 0.873756,0.3641152 0.276442,0.096276 0.527839,0.2493663 0.790342,0.3783393 0.270663,0.06381 0.443584,0.3049879 0.700123,0.3972692 0.245169,0.1411646 0.434991,0.3511742 0.6601,0.5176177 0.193777,0.1770959 0.357671,0.3898585 0.562669,0.5541298 0.183035,0.1787397 0.344241,0.3863968 0.544757,0.5463925 0.183196,0.1783647 0.344616,0.3856265 0.545142,0.5453765 0.265624,0.2408755 0.519081,0.4964195 0.755543,0.765501 0.204461,0.2100916 0.426852,0.4040649 0.618647,0.6257388 0.206449,0.2392214 0.359424,0.5148506 0.539056,0.7723951 0.152989,0.2406118 0.258607,0.5079416 0.40098,0.7539414 0.127034,0.2664544 0.287442,0.5110367 0.446315,0.7588867 0.169044,0.2675931 0.341789,0.5318917 0.503831,0.8044228 0.159987,0.2805529 0.294225,0.5613811 0.374079,0.8758007 0.07431,0.358977 0.07893,0.726886 0.08409,1.091951 -0.0019,0.381326 0.01825,0.763543 -0.02935,1.142583 -0.06725,0.349894 -0.111673,0.702417 -0.135317,1.05775 -0.0064,0.336154 -0.02586,0.679261 -0.137227,0.998872 -0.105668,0.340261 -0.335264,0.616148 -0.514041,0.917553 -0.199038,0.247784 -0.415478,0.479419 -0.625797,0.720712 -0.270959,0.31665 -0.569774,0.604128 -0.859919,0.902205 -1.885828,1.087051 -3.771657,2.174102 -5.657485,3.261152 -0.06185,0.0076 -0.126099,0.0041 -0.185538,0.02281 -0.04937,0.01553 -0.0873,0.05627 -0.134348,0.07784 -0.147209,0.06746 -0.305907,0.08035 -0.4644,0.09604 -0.35015,0.01978 -0.701151,0.01369 -1.051678,0.01147 -0.0011,-7e-6 -0.361942,-0.0024 -0.362703,-0.0023 -0.04982,0.0091 -0.09226,0.04196 -0.139673,0.05975 -0.148201,0.0556 -0.296142,0.07751 -0.452256,0.09688 -0.347665,0.02882 -0.696996,0.02564 -1.045566,0.02553 -0.363533,-9.41e-4 -0.727066,-0.0022 -1.090601,-0.0028 -0.179091,-0.02052 -0.367662,0.02503 -0.546007,-5.22e-4 -0.168312,-0.02412 -0.339939,-0.09471 -0.507801,-0.129579 -0.317439,-0.05065 -0.6400622,-0.0506 -0.9606712,-0.0538 -0.2470174,-0.01154 -0.4977175,0.03668 -0.7349777,-0.0535 C 8.7398878,20.331562 8.6242229,20.259717 8.502025,20.202611 8.2218819,20.040916 8.0161089,19.791527 7.7686724,19.591722 7.5820914,19.410936 7.4208956,19.198361 7.2182162,19.035056 7.036298,18.856518 6.875448,18.649663 6.6755394,18.49034 6.4667535,18.370345 6.264173,18.243527 6.0458143,18.135032 c 0,0 5.4113887,-3.525793 5.4113887,-3.525793 l 0,0 c 0.245335,0.149808 0.502672,0.282591 0.714193,0.48224 0.180846,0.183287 0.363644,0.364633 0.544613,0.5478 0.179253,0.183729 0.358835,0.367233 0.541537,0.547522 0.17523,0.169966 0.35861,0.349337 0.593586,0.430931 0.31019,0.09797 0.643771,0.01098 0.964978,0.05219 0.347767,0.01891 0.695008,0.051 1.034411,0.133367 0.319604,0.063 0.640164,0.03072 0.965073,0.0363 0.361554,1.26e-4 0.723203,0.0012 1.08464,-0.0094 0.335031,-0.01351 0.671174,-0.03395 0.998546,-0.111978 0.33618,-0.07543 0.6599,-0.07549 1.003626,-0.06506 0.329835,-0.01174 0.665136,-0.02408 0.979544,-0.13505 2.13088,-0.871434 4.494602,-2.432458 -4.66717,2.802438 0.233351,-0.09651 0.283197,-0.171874 0.467126,-0.333345 0.156971,-0.137806 0.333946,-0.251651 0.458513,-0.426498 0.133139,-0.146374 0.277499,-0.369741 0.405907,-0.497394 0.03228,-0.03209 0.08186,-0.04298 0.113936,-0.07528 0.03728,-0.03754 0.06025,-0.08697 0.09038,-0.130461 0.249244,-0.192224 0.384932,-0.483133 0.589351,-0.720027 0.03519,-0.07538 0.09748,-0.136363 0.130557,-0.212697 0.05649,-0.130379 0.126842,-0.461732 0.125464,-0.603295 0.01162,-0.376982 0.02977,-0.75519 0.103319,-1.126121 0.02283,-0.106273 0.06239,-0.20935 0.07529,-0.317278 0.02843,-0.237863 -0.01946,-0.48493 0.0014,-0.723592 -0.0012,-0.321852 9.9e-4,-0.645087 -0.03762,-0.965133 -0.04426,-0.256401 -0.158065,-0.469051 -0.28095,-0.696435 C 18.30558,12.229558 18.151728,11.969055 17.983691,11.715523 17.806123,11.460027 17.644224,11.193906 17.495437,10.920929 17.366254,10.684582 17.259386,10.43613 17.122506,10.203798 16.973105,9.9655553 16.830265,9.7208508 16.629152,9.5204875 16.42546,9.3091561 16.227508,9.0925737 16.030673,8.8748771 15.802301,8.6199288 15.555812,8.3887692 15.283159,8.1813239 15.102376,7.9983456 14.919609,7.8173343 14.737716,7.6354657 14.557197,7.4524316 14.374921,7.2711297 14.193138,7.0893597 14.016598,6.9109616 13.838975,6.7329115 13.650616,6.5669862 13.470424,6.4076261 13.276344,6.2627683 13.061193,6.1537252 12.837349,6.0057665 12.61526,5.865113 12.366369,5.7619529 12.121605,5.6280565 11.861317,5.5229993 11.606813,5.4089358 11.32455,5.2791962 11.025866,5.1868913 10.738293,5.0699109 10.473321,4.9745734 10.191349,4.9656649 9.9120055,4.9788721 9.5482628,4.9782352 9.1845105,4.9767663 8.8207726,4.9793841 8.4731255,4.9838773 8.1235241,4.9872395 7.779671,5.0444876 7.4823553,5.1060205 7.2071955,5.2452358 6.9043447,5.2683047 6.7253963,5.3288086 6.5593336,5.438695 6.3791702,5.4899262 c -0.048032,0.013658 -0.1003113,0.0091 -0.147769,0.024641 -0.044503,0.01457 -0.083171,0.043056 -0.1247569,0.064584 -0.1691072,0.099943 -0.2085551,0.097897 -0.384134,0.157008 C 5.5881426,5.7813957 5.4788637,5.8898424 5.325963,5.882614 3.6043471,6.8827988 11.054089,2.653913 10.501391,2.9146718 8.5368575,3.8415242 6.7297447,5.0707036 4.8439216,6.1487195 10.290191,3.0168798 12.147931,2.1934331 10.121479,3.0973666 9.9503879,3.2477446 9.8889393,3.1835827 9.7360131,3.2995281 c -0.040951,0.031049 -0.064072,0.082615 -0.106762,0.1112258 -0.039019,0.02615 -0.088106,0.032598 -0.1321593,0.048896 -0.034584,0.024891 -0.069168,0.049783 -0.1037521,0.074674 -0.22965,0.1574199 -0.2397099,0.4395984 -0.3880341,0.6606796 -0.052699,0.3409488 -0.2058843,0.6407778 -0.222586,0.9874276 -0.07089,0.361417 -0.1768052,0.709953 -0.2103125,1.078832 -0.024997,0.1034291 -0.067248,0.2026649 -0.086116,0.3073855 -0.038779,0.2152236 -0.00874,0.4448845 -0.081608,0.6559632 -0.026309,0.087429 -0.074025,0.16915 -0.088046,0.2593689 -0.036288,0.2334976 0.026809,0.4825518 0.00182,0.7174118 0.00442,0.3250765 0.00842,0.651347 0.053106,0.9739351 0.056513,0.3446064 0.1632768,0.681274 0.1282247,1.0348211 -2.86e-5,0.363734 -6.36e-5,0.727469 -3.987e-4,1.091203 -3.851e-4,0.36304 -0.00114,0.72608 -0.00149,1.089121 2.625e-4,0.355084 -7.438e-4,0.71047 0.019178,1.065126 0.027201,0.371405 0.08355,0.738096 0.1741409,1.099744 0.01736,0.360035 0.050562,0.719122 0.1314375,1.07128 0.066824,0.34202 0.037047,0.690019 0.076287,1.036234 0.040775,0.335944 0.1473545,0.662897 0.1462914,1.001793 0,0.363636 0,0.727273 0,1.090909 0,0.363637 0,0.727273 0,1.090909 0,0.363637 0,0.727273 0,1.090909 0,0.363637 0,0.727273 0,1.090909 0,0.363637 0,0.727273 0,1.09091 0,0.363636 0,0.727272 0,1.090909 0,0.363636 0,0.727272 0,1.090909 0,0.363636 0,0.727272 0,1.090909 0,0.363637 0,0.727274 -5e-7,1.090912 -6e-7,0.36364 -1.8e-6,0.727279 -4.2e-6,1.090919 -1.9e-6,0.363594 -7.4e-6,0.727187 1.53e-5,1.09078 3.34e-5,0.363234 8.38e-5,0.726467 3.297e-4,1.089701 2.61e-4,0.364755 8.203e-4,0.729512 3.516e-4,1.094268 -0.00119,0.393122 -0.003,0.786389 -0.021256,1.179169 -0.022402,0.423871 -0.064555,0.846027 -0.090545,1.269537 0,0 -5.8247626,2.82446 -5.8247626,2.82446 z"
       inkscape:connector-curvature="0"
       inkscape:export-filename="C:\Users\Joe\Desktop\Team_Germ\Germs\Assets\Graphics\GameItems\Shop\empty.png"
       inkscape:export-xdpi="90"
       inkscape:export-ydpi="90" />
    <path
       style="opacity:0.95132744999999996;fill:#f10000;fill-opacity:0.77127659;stroke:#000000;stroke-width:3;stroke-miterlimit:4;stroke-opacity:0;stroke-dasharray:none"
       id="path3075"
       d="m 39.430017,-5.1791966 c -0.04512,0.4178338 -0.03312,0.8395913 -0.02968,1.2591949 0.0096,0.4140449 -0.002,0.8279102 -0.0012,1.2419541 0.0085,0.4230587 -0.0021,0.8459463 -7.15e-4,1.2689996 0.0129,0.46077523 -0.06135,0.91823743 -0.1222,1.37364304 -0.04125,0.43602476 -0.05327,0.87469609 -0.06037,1.31245976 -0.0016,0.4075387 0.0045,0.8150566 0.0077,1.2225762 0.0026,0.3670601 0.0031,0.7341306 0.0034,1.1011986 -0.0079,0.4081567 -0.0092,0.816276 -0.0063,1.2245517 0.0032,0.3791338 0.0049,0.7582771 0.0058,1.1374228 6.74e-4,0.3638871 6.51e-4,0.727775 6.62e-4,1.0916626 -1.1e-5,0.36341 -3.6e-5,0.72682 -4.9e-5,1.09023 -1.1e-5,0.3636181 -1.2e-5,0.7272362 -1.3e-5,1.0908544 -10e-7,0.3636387 -10e-7,0.7272774 0,1.0909159 0,0.363637 0,0.727274 0,1.090911 0,0.363636 0,0.727273 0,1.090909 0,0.363636 0,0.727273 0,1.090909 0,0.363636 0,0.727273 0,1.090909 0,0.363637 0,0.727273 0,1.090909 0,0.363637 0,0.727273 0,1.090909 0.0082,0.342239 -0.01435,0.685794 0.0076,1.027559 0.06584,0.321182 0.117615,0.643389 0.146395,0.970045 0.0072,0.356966 0.0915,0.704665 0.142122,1.05672 0.04964,0.372634 0.05963,0.748738 0.06599,1.124105 0.02716,0.308009 -0.0425,0.630082 0.03268,0.932857 0.0063,0.0036 0.02533,0.0076 0.01884,0.01082 -6.871353,3.396398 -5.783709,4.890343 -5.782761,2.263975 -0.0563,-0.367944 -0.113148,-0.734882 -0.144912,-1.105962 -0.03346,-0.333942 -0.0035,-0.671437 -0.0622,-1.002389 -0.07841,-0.334605 -0.113694,-0.675751 -0.134467,-1.018052 -0.02412,-0.327352 0.0082,-0.657236 -0.04786,-0.981454 -0.07751,-0.334787 -0.112921,-0.675887 -0.133753,-1.018194 -0.01731,-0.364176 -0.01707,-0.728878 -0.01758,-1.093375 3.1e-5,-0.364093 6.24e-4,-0.728186 9.2e-4,-1.092279 0.01438,-0.320936 0.0027,-0.633212 -0.06023,-0.947618 -0.07417,-0.344807 -0.09754,-0.696787 -0.112102,-1.048242 0.0071,-0.312082 -0.08023,-0.613584 -0.127652,-0.919751 -0.04936,-0.35819 -0.0566,-0.720164 -0.06213,-1.081126 -0.0036,-0.364599 -0.0025,-0.729224 -0.0021,-1.093835 4.87e-4,-0.36377 6.81e-4,-0.727541 7.94e-4,-1.091312 8.6e-5,-0.36363 8.1e-5,-0.727259 8.2e-5,-1.0908892 0.01363,-0.3633897 -0.02601,-0.7300387 0.01591,-1.0914774 0.07188,-0.3078912 0.119637,-0.6184151 0.144392,-0.9334257 0.02255,-0.3478797 -3.65e-4,-0.6931342 0.06846,-1.0360329 0.06755,-0.291782 0.111941,-0.5895756 0.115066,-0.8893503 -0.0047,-0.016525 -0.0032,-0.036247 -0.01407,-0.049576 -0.01875,-0.023059 -0.332458,0.016871 -0.437616,0.017933 -0.373795,0.049244 -0.650647,-0.048758 -1.004811,-0.1173644 -0.319996,-0.047474 -0.644523,-0.047434 -0.967285,-0.050375 -0.174938,-0.020937 -0.359208,0.024388 -0.533391,-5.496e-4 -0.167617,-0.023997 -0.338467,-0.09405 -0.50578,-0.128328 -0.317844,-0.049886 -0.64072,-0.0498 -0.961637,-0.052928 -0.363157,-0.017035 -0.732645,0.044958 -1.085089,-0.052748 C 27.484995,5.191024 27.166607,5.1757531 26.850165,5.165191 26.552978,5.0407507 26.240354,5.0035043 25.922137,4.9869613 25.632919,4.8548933 25.325417,4.8204597 25.012301,4.8044469 c -0.172438,0.03321 -0.488782,-0.07114 -0.645299,-0.00257 -0.03251,0.014243 -0.09513,0.1021698 -0.06401,0.0851 1.863978,-1.022403 3.713817,-2.070377 5.570725,-3.1055656 0.181392,-0.1511484 -0.239488,-0.2577689 -0.200061,-0.402231 0.0089,-0.032426 0.0393,0.05518 0.0642,0.077761 0.09044,0.082028 0.04281,0.0038 0.150947,0.066305 0.04503,0.026025 0.08258,0.063237 0.123867,0.094856 0.09552,0.089185 0.228318,0.068385 0.338982,0.109527 0.142036,0.052805 0.251524,0.1256082 0.401712,0.1628354 0.296639,0.016271 0.552263,0.1563369 0.846661,0.1967351 0.260704,0.1805689 0.583578,0.1444047 0.86115,0.2639924 0.305278,0.071041 0.594215,0.186397 0.901142,0.2525983 0.218446,0.062379 0.453586,0.017194 0.673665,0.05351 0.130097,0.021468 0.254582,0.069043 0.383082,0.098602 0.350519,0.071605 0.709039,0.078891 1.065394,0.084296 0.378906,-0.025869 0.736135,0.1024817 1.109928,0.1482129 0.354638,0.034455 0.711391,0.033687 1.067323,0.034521 0.362369,-2.564e-4 0.724737,-0.0015 1.087105,-0.00212 0.363684,-5.547e-4 0.727368,-6.243e-4 1.091053,-6.776e-4 0.363659,-3.14e-5 0.727318,-1.63e-5 1.090977,-9.8e-6 0.363637,6.6e-6 0.727274,8.7e-6 1.090912,9.9e-6 0.363636,9e-7 0.727272,8e-7 1.090908,8e-7 0.176846,-0.026169 0.369911,0.033112 0.545454,-10e-8 0.118293,-0.022313 0.288026,-0.1088521 0.432056,-0.139195 0.213295,-0.068165 0.455367,0.00499 0.668468,-0.043588 0.09519,-0.0217 0.177827,-0.081451 0.27025,-0.112907 0.326132,-0.074164 0.663637,-0.069056 0.996259,-0.071812 0.117648,-0.022973 0.241553,0.022259 0.359186,-4.6e-5 0.04945,-0.00938 0.09123,-0.042786 0.138268,-0.060689 0.147819,-0.056259 0.296352,-0.077157 0.452275,-0.096143 0.349863,-0.00433 0.66875,-0.130663 1.016733,-0.1725674 0.22005,-0.1293599 0.480495,-0.1172419 0.717854,-0.179088 0.1187,-0.030929 0.230351,-0.085092 0.348316,-0.1187176 0.353056,-0.093068 0.742127,-0.2143133 1.029869,-0.4456941 0.194016,-0.125983 0.433526,-0.1669572 0.631637,-0.2820645 0.166106,-0.1443908 0.07635,-0.083271 0.268701,-0.1841843 -1.794577,1.0406294 -3.589151,2.081265 -5.383725,3.1219005 0,0 5.99593,-2.3733139 5.99593,-2.3733139 l 0,0 c -1.875112,1.0990363 -3.750224,2.1980725 -5.625337,3.2971088 -0.287323,0.1688756 -0.617528,0.260457 -0.89892,0.4457211 -0.370093,0.1118186 -0.729861,0.2567503 -1.110203,0.335011 -0.364776,0.098533 -0.738716,0.178834 -1.109399,0.2494918 -0.342192,0.07759 -0.682125,0.1286621 -1.027709,0.1838486 -0.330798,0.077049 -0.650327,0.081862 -0.988964,0.086247 -0.317658,0.029413 -0.629273,0.084587 -0.934622,0.179125 -0.315468,0.049981 -0.643695,0.025649 -0.952612,0.133994 -0.34453,0.066698 -0.690113,0.01059 -1.039634,0.025478 -0.363636,-4e-7 -0.727273,-9e-7 -1.09091,-3.4e-6 -0.363635,-2.7e-6 -0.727271,-8.4e-6 -1.090907,-4.2e-6 -0.363613,1.06e-5 -0.727227,1.97e-5 -1.09084,1.987e-4 -0.363589,2.151e-4 -0.727177,6.173e-4 -1.090765,0.00107 -0.364907,1.939e-4 -0.729888,0.00121 -1.094701,-0.00838 -0.373125,-0.01319 -0.746525,-0.035749 -1.114501,-0.1028483 -0.3577,-0.062696 -0.70893,-0.098157 -1.072712,-0.094091 -0.376802,-0.028507 -0.75058,-0.07934 -1.119318,-0.1637523 C 28.787128,6.3708974 28.414191,6.3752094 28.063919,6.2510225 27.754541,6.158063 27.440091,6.0925993 27.133803,5.9886016 26.844057,5.9544135 26.587119,5.8174923 26.303887,5.7622333 26.004856,5.675049 25.706611,5.5985139 25.410301,5.5052627 25.124766,5.3819935 24.825607,5.2879442 24.573319,5.0993061 24.182367,4.8841025 23.938222,4.5702614 23.805179,4.1376622 c 5.70371,-3.18643783 3.63848,-3.37996743 6.4571,-3.0603247 0.305919,0.049758 0.600939,0.1539125 0.908445,0.1810224 0.30601,0.047809 0.604185,0.1497189 0.913076,0.1624845 0.325106,0.035762 0.642778,0.1069918 0.965882,0.1531117 0.345454,-0.025459 0.69332,-7.01e-4 1.039196,0.00479 0.347956,0.018634 0.695463,0.050164 1.035155,0.132086 0.319548,0.063067 0.640146,0.031111 0.964834,0.048917 0.348738,0.017704 0.697177,0.047548 1.038247,0.1265972 0.324217,0.062393 0.651276,0.027776 0.977221,0.086407 0.429912,0.1011459 0.766828,0.3230381 0.905717,0.7651189 0.05846,0.3521531 0.02089,0.7114839 -0.02634,1.0640676 -0.02775,0.1355094 -0.09757,0.2775642 -0.118323,0.4108648 -0.02757,0.1771215 0.02098,0.3661776 -0.004,0.5441486 -0.0081,0.3385051 -0.01469,0.6805625 -0.09218,1.0118156 -0.02619,0.087467 -0.07373,0.1692772 -0.08762,0.259518 -0.03645,0.2367988 0.02772,0.48913 6e-6,0.7272683 2e-6,0.3636821 1.1e-5,0.7273642 -3.6e-5,1.0910464 -6.7e-5,0.3639713 -1.72e-4,0.7279426 -6.14e-4,1.0919137 -4.51e-4,0.3620532 -0.0014,0.7241087 -2.45e-4,1.086161 0.0022,0.334585 0.0035,0.669864 0.03533,1.003238 0.0396,0.330683 0.143488,0.651326 0.150238,0.984177 0.0074,0.316502 0.01596,0.634624 0.07485,0.946629 0.07253,0.356017 0.137955,0.703723 0.103914,1.070055 -2.22e-4,0.363863 -6.34e-4,0.727725 -0.0011,1.091588 -2.25e-4,0.354298 -0.0014,0.708676 0.008,1.062882 0.01154,0.31165 0.02848,0.624436 0.100751,0.929079 0.07764,0.355394 0.08582,0.707113 0.081,1.070628 0.01147,0.311245 0.02825,0.62364 0.100483,0.927878 0.07871,0.36003 0.08535,0.716756 0.08463,1.08492 0.0177,0.3592 0.05028,0.717786 0.134304,1.068498 0.549296,2.580461 -2.994797,2.249868 -5.738104,3.689226 -0.009,0.0047 0.01284,-0.01566 0.01926,-0.02349 0.06437,-0.313628 0.01683,-0.638018 0.03128,-0.955667 -0.0014,-0.353252 -0.002,-0.707081 -0.03186,-1.059335 -0.0381,-0.364469 -0.131985,-0.718784 -0.164723,-1.081772 -0.01819,-0.314479 -0.05286,-0.626884 -0.132832,-0.932546 -0.0652,-0.366393 -0.02598,-0.739716 -0.03589,-1.110763 0,-0.363636 0,-0.727272 0,-1.090909 0,-0.363636 0,-0.727272 0,-1.090909 0,-0.363636 0,-0.727273 0,-1.090909 0,-0.363636 0,-0.727273 0,-1.090909 0,-0.363636 0,-0.727273 0,-1.090909 0,-0.363637 10e-7,-0.727274 10e-7,-1.090911 0,-0.363638 0,-0.727277 0,-1.090916 -10e-7,-0.363613 -3e-6,-0.727227 -1.4e-5,-1.09084 -1.3e-5,-0.363394 -3.8e-5,-0.726788 -4.8e-5,-1.0901814 1e-5,-0.3641136 -1.2e-5,-0.7282276 6.64e-4,-1.0923408 9e-4,-0.3811121 0.0026,-0.7622217 0.0058,-1.143322 0.0028,-0.4060447 0.0017,-0.8119322 -0.0065,-1.2178516 1.25e-4,-0.3677806 2.77e-4,-0.7355628 0.002,-1.1033402 0.0023,-0.4129991 0.0065,-0.8259791 0.0099,-1.2389695 0.0011,-0.4549682 0.003,-0.9097587 0.0391,-1.3637645 0.02675,-0.4414837 0.129091,-0.8735219 0.141319,-1.3146169 0.0014,-0.4228105 -0.0092,-0.84545286 -7.16e-4,-1.26827029 8.5e-4,-0.41364642 -0.01077,-0.82711073 -0.0012,-1.24076001 0.0033,-0.4094339 0.01687,-0.8214911 -0.02968,-1.2289469 0,0 5.769124,-2.9395154 5.769124,-2.9395154 z"
       inkscape:connector-curvature="0"
       inkscape:export-filename="C:\Users\Joe\Desktop\Team_Germ\Germs\Assets\Graphics\GameItems\Shop\empty.png"
       inkscape:export-xdpi="90"
       inkscape:export-ydpi="90" />
    <path
       style="opacity:0.95132744999999996;fill:#f10000;fill-opacity:0.77127659;stroke:#000000;stroke-width:3;stroke-miterlimit:4;stroke-opacity:0;stroke-dasharray:none"
       id="path3083"
       d="m -25.25427,43.848941 c 0.1285,-0.393088 0.161693,-0.808388 0.188683,-1.218605 0.01269,-0.364371 0.04268,-0.730766 -0.0052,-1.093303 -0.04487,-0.257546 -0.212144,-0.436575 -0.364753,-0.633845 -0.174923,-0.259575 -0.416625,-0.455373 -0.653529,-0.65515 -0.260803,-0.195556 -0.551409,-0.353763 -0.808479,-0.554034 -0.262715,-0.189135 -0.552244,-0.322445 -0.854053,-0.437054 -0.335459,-0.162826 -0.687418,-0.30992 -1.050244,-0.401295 -0.310668,-0.134923 -0.620109,-0.284716 -0.949546,-0.36796 -0.324947,-0.02211 -0.612224,-0.16656 -0.933943,-0.211315 -0.04936,-0.0041 -0.09983,-9.91e-4 -0.148069,-0.01223 -0.118058,-0.0275 -0.228692,-0.08206 -0.346724,-0.10967 -0.167214,-0.03912 -0.336118,-0.05514 -0.506738,-0.06978 -0.353858,-0.02149 -0.708617,-0.01815 -1.062951,-0.01731 -0.235549,0.03421 -0.492439,-0.04236 -0.725947,0.0023 -0.09876,0.01889 -0.186173,0.07646 -0.281604,0.108136 -0.168191,-0.0057 -0.23502,0.129994 -0.380742,0.183164 -0.04588,0.01674 -0.0992,0.01279 -0.141877,0.03653 -0.03956,0.02201 -0.06412,0.06393 -0.09619,0.09589 -0.0406,0.01991 -0.08119,0.03983 -0.121791,0.05974 -0.04736,0.01143 -0.09928,0.01102 -0.142087,0.03429 -0.03936,0.0214 -0.0586,0.06909 -0.0953,0.09479 -0.133427,0.09344 -0.114791,0.03183 -0.265719,0.09048 -0.04534,0.01762 -0.08453,0.04815 -0.126796,0.07222 -0.05159,0.01697 -0.10318,0.03395 -0.154771,0.05093 -0.04831,0.02846 -0.09662,0.05692 -0.144926,0.08538 -0.05673,0.02154 -0.117834,0.03396 -0.170201,0.06462 -0.04974,0.02913 -0.08403,0.07963 -0.131633,0.112134 -0.04644,0.03171 -0.197513,0.107551 -0.148839,0.0794 1.784605,-1.032313 7.138901,-4.128398 5.356716,-3.091915 -1.881663,1.094337 -3.7701,2.176985 -5.65515,3.265478 8.046807,-6.862905 6.838606,-3.991241 4.94751,-2.814929 -0.350176,0.217819 0.0666,-0.09088 -0.265929,0.166095 -0.234951,0.136954 -0.451668,0.307475 -0.653509,0.491356 -0.119447,0.137325 -0.273325,0.273964 -0.374137,0.428993 -0.08617,0.180722 -0.03686,0.09843 -0.144489,0.248918 -0.173716,0.254729 -0.311048,0.542029 -0.377155,0.844129 -0.118725,0.279362 -0.20028,0.563476 -0.24051,0.864025 -0.0352,0.348463 -0.0344,0.699235 -0.03569,1.049082 -2.07e-4,0.363896 9.38e-4,0.727791 0.0015,1.091686 -3.06e-4,0.268199 0.101471,0.510779 0.191578,0.757276 0.119201,0.206485 0.184459,0.444032 0.338023,0.629213 0.169151,0.267956 0.366512,0.514216 0.554977,0.767693 0.179411,0.211551 0.388411,0.394198 0.568735,0.604069 0.184014,0.178115 0.378124,0.349329 0.545938,0.543879 0.210712,0.183163 0.449615,0.324605 0.653362,0.516094 0.24848,0.147251 0.506473,0.289055 0.77369,0.403462 0.319472,0.06766 0.602254,0.220384 0.926851,0.269252 0.312751,0.172634 0.678418,0.137596 1.003371,0.25779 0.184952,0.09758 0.400499,0.06926 0.595286,0.114825 0.118329,0.02768 0.230295,0.07815 0.347523,0.110177 0.336173,0.05735 0.674477,0.149232 0.98311,0.296929 0.317611,0.113539 0.594252,0.319108 0.857434,0.526913 0.263199,0.158382 0.500333,0.357178 0.737577,0.552913 0.257716,0.164337 0.511172,0.350132 0.725292,0.569921 0.241306,0.191376 0.41705,0.459357 0.593895,0.709421 0.157702,0.253011 0.299813,0.51332 0.442042,0.775351 0.116692,0.287644 0.239644,0.574066 0.324936,0.873158 0.08728,0.353374 0.09893,0.718398 0.108054,1.08044 0.0058,0.365248 0.0039,0.730564 0.0032,1.095842 -0.004,0.352236 0.03328,0.712444 -0.08935,1.048768 -0.100191,0.187831 -0.135436,0.405878 -0.269096,0.57847 -0.06253,0.08075 -0.145635,0.143667 -0.2111,0.222054 -1.769246,1.574316 -2.553312,1.533257 -5.91937,3.480518 -0.184162,0.106538 -0.213243,0.146562 -0.43253,0.200579 -0.05597,0.0074 -0.114804,0.003 -0.167895,0.0222 -0.0454,0.01641 -0.07971,0.05447 -0.119569,0.0817 -0.04528,0.01757 -0.08924,0.03903 -0.135846,0.0527 -0.180749,0.05301 -0.261428,0.01431 -0.423095,0.12861 -0.177932,0.123931 -0.40903,0.05397 -0.599964,0.10942 -0.09031,0.02622 -0.16602,0.0898 -0.254394,0.121944 -0.09479,0.05169 -0.209241,0.01263 -0.306544,0.04763 -0.04349,0.01564 -0.07262,0.05796 -0.113224,0.08004 -0.133607,0.07267 -0.271272,0.08112 -0.4054,0.157235 -0.338232,0.126146 -0.703503,0.133139 -1.06007,0.142838 -0.372093,-0.01094 -0.753083,0.0485 -1.113868,-0.05311 -0.194571,-0.09042 -0.417729,-0.06492 -0.619577,-0.113034 -0.119299,-0.02844 -0.232127,-0.0797 -0.350283,-0.112557 -0.16142,-0.06086 -0.342874,-0.03413 -0.507158,-0.0723 -0.164289,-0.03817 -0.320301,-0.112163 -0.486762,-0.149765 -0.309249,-0.01431 -0.576757,-0.160517 -0.882151,-0.203835 -0.199145,-0.122772 -0.434512,-0.120278 -0.651492,-0.177707 -0.123746,-0.03275 -0.24171,-0.0848 -0.364728,-0.120189 -0.365813,-0.05787 -0.706568,-0.19077 -1.074353,-0.243316 -0.225585,-0.122302 -0.488959,-0.11589 -0.72817,-0.181878 -0.117135,-0.03231 -0.226364,-0.08861 -0.341236,-0.128218 -0.29282,-0.09178 -0.56385,-0.24525 -0.852197,-0.355635 -0.299596,-0.180421 -0.634737,-0.303508 -0.92515,-0.496038 -0.257251,-0.14415 -0.496005,-0.339127 -0.695425,-0.557224 -0.217595,-0.144452 -0.305638,-0.391453 -0.425513,-0.610174 0,0 5.601957,-3.214165 5.601957,-3.214165 l 0,0 c 0.09398,0.174843 0.163486,0.328415 0.332689,0.447987 0.186454,0.159569 0.375199,0.314059 0.59557,0.42583 0.290147,0.140139 0.558666,0.325057 0.868546,0.42365 0.272418,0.117775 0.546295,0.231488 0.829735,0.318868 0.329719,0.105438 0.674976,0.172231 1.010968,0.254565 0.368218,0.09394 0.734967,0.189052 1.102726,0.283916 0.334655,0.09312 0.675858,0.169708 1.012235,0.254674 0.298027,0.0859 0.59241,0.16092 0.895279,0.226631 0.322519,0.09643 0.655858,0.130707 0.980105,0.223492 0.307394,0.06958 0.624739,0.104457 0.935025,0.161094 0.33943,-0.02812 0.682509,-0.0057 1.020605,-0.0568 0.335221,-0.05269 0.653585,-0.149148 0.959234,-0.298856 0.290715,-0.07563 0.569731,-0.173734 0.858101,-0.255836 0.443728,-0.123794 -0.182749,0.04075 0.299669,-0.0501 0.189681,-0.03572 0.35131,-0.157036 0.535574,-0.208604 0.206801,-0.02758 0.348149,-0.136568 0.542634,-0.197134 0.04894,-0.01524 0.102415,-0.01371 0.150521,-0.0314 0.04669,-0.01716 0.08715,-0.04799 0.130721,-0.07198 0.03118,-0.02036 0.221627,-0.145807 0.253771,-0.162371 0.04773,-0.0246 0.194989,-0.08924 0.148608,-0.06218 -8.907074,5.196394 -6.951552,4.045829 -5.088682,2.951969 0.437616,-0.23496 -0.19206,0.121064 0.228999,-0.180621 0.03755,-0.0269 0.08836,-0.02924 0.128164,-0.05268 0.119738,-0.07051 0.202267,-0.163089 0.229908,-0.300148 0.02143,-0.03716 0.04285,-0.07432 0.06428,-0.111473 0.02762,-0.02561 0.06392,-0.04427 0.08285,-0.07683 0.109448,-0.188274 0.08768,-0.417365 0.08849,-0.624555 7.66e-4,-0.361072 0.0024,-0.72215 6.18e-4,-1.083221 -0.0033,-0.312786 -0.0033,-0.627756 -0.05432,-0.937233 -0.05706,-0.254902 -0.173858,-0.487067 -0.25619,-0.73352 -0.127771,-0.238652 -0.250813,-0.478133 -0.393215,-0.708566 -0.1598,-0.218835 -0.324782,-0.430172 -0.537689,-0.600776 -0.220362,-0.184571 -0.446662,-0.360368 -0.683659,-0.523353 -0.240384,-0.178361 -0.466699,-0.375737 -0.72362,-0.531663 -0.240722,-0.156361 -0.475439,-0.313826 -0.758241,-0.386992 -0.313495,-0.07977 -0.618827,-0.183546 -0.938092,-0.24263 -0.317998,-0.07512 -0.644507,-0.113386 -0.954115,-0.226923 -0.343669,-0.04464 -0.664825,-0.169345 -1.000048,-0.249809 -0.332683,-0.113669 -0.662641,-0.239318 -0.984531,-0.379734 -0.308714,-0.157892 -0.633447,-0.295652 -0.888281,-0.538092 -0.239549,-0.182589 -0.490597,-0.354968 -0.700333,-0.572376 -0.185408,-0.181546 -0.367326,-0.366708 -0.548062,-0.552891 -0.203792,-0.213463 -0.400444,-0.433457 -0.581603,-0.66665 -0.189925,-0.256916 -0.391705,-0.504221 -0.578675,-0.763007 -0.168495,-0.250229 -0.288582,-0.522788 -0.422244,-0.792348 -0.108978,-0.317394 -0.243607,-0.622649 -0.2717,-0.962892 -3.1e-4,-0.364125 -8.45e-4,-0.728249 -0.0022,-1.092372 -0.0012,-0.364437 -0.0041,-0.728967 0.0051,-1.093328 0.01333,-0.342572 0.02424,-0.694727 0.159976,-1.014954 0.09086,-0.16063 0.09548,-0.317244 0.146624,-0.493129 0.104247,-0.35853 0.0022,0.01477 0.124105,-0.295485 0.02022,-0.05147 0.03094,-0.106181 0.04641,-0.159271 0.02221,-0.04521 0.04443,-0.09041 0.06664,-0.135613 0.02998,-0.03315 0.06815,-0.06043 0.08995,-0.09945 0.132904,-0.237904 -0.02407,-0.09394 0.137874,-0.304749 0.0292,-0.03801 0.07666,-0.06001 0.103744,-0.09955 0.03268,-0.04771 0.04828,-0.105091 0.07243,-0.157636 0.05892,-0.07986 0.100596,-0.173599 0.17039,-0.244155 0.03103,-0.03137 0.07999,-0.04044 0.111498,-0.07131 0.03703,-0.03628 0.05297,-0.0907 0.09044,-0.126535 0.397001,-0.379652 -0.173155,0.276892 0.226984,-0.202578 0.537517,-0.303658 -0.286754,0.177197 0.262114,-0.198412 0.0461,-0.03154 0.104676,-0.0405 0.152675,-0.06906 1.961546,-1.167381 2.290115,-4.744775 5.909388,-3.469705 -1.783174,1.031942 -7.126063,4.139143 -5.349521,3.095825 1.924415,-1.130161 3.76216,-2.431502 5.793561,-3.35565 0.163143,-0.07422 0.335589,-0.132272 0.499008,-0.207639 0.257001,-0.135681 0.514671,-0.259742 0.771475,-0.3866 0.275774,-0.143158 -0.04661,0.0095 0.264539,-0.08936 0.192193,-0.06107 0.364066,-0.140304 0.573255,-0.140543 0.354613,-0.02957 0.715745,0.02595 1.072543,0.0069 0.372198,0.008 0.7457,0.02032 1.113155,0.08546 0.348832,0.06767 0.690587,0.164833 1.040904,0.22186 0.321295,0.09232 0.64208,0.176966 0.962293,0.27138 0.31309,0.123185 0.623738,0.251517 0.937903,0.37075 0.367266,0.140561 0.732238,0.284688 1.08928,0.449696 0.329347,0.156793 0.653425,0.31996 0.941223,0.548076 0.286358,0.185883 0.563681,0.383975 0.829432,0.598456 0.270848,0.228626 0.51804,0.48581 0.744443,0.758439 0.219469,0.282136 0.403868,0.580878 0.493757,0.931489 0.07513,0.408143 0.09237,0.809572 0.05504,1.224738 -0.0224,0.423871 -0.06455,0.846027 -0.09055,1.269536 0,0 -5.824763,2.82446 -5.824763,2.82446 z"
       inkscape:connector-curvature="0"
       inkscape:export-filename="C:\Users\Joe\Desktop\Team_Germ\Germs\Assets\Graphics\GameItems\Shop\empty.png"
       inkscape:export-xdpi="90"
       inkscape:export-ydpi="90" />
    <path
       style="opacity:0.95132744999999996;fill:#f10000;fill-opacity:0.77127659;stroke:#000000;stroke-width:3;stroke-miterlimit:4;stroke-opacity:0;stroke-dasharray:none"
       id="path3087"
       d="m -8.7602422,34.764484 c 0.022928,0.425966 0.1003255,0.843521 0.1914007,1.259094 0.090391,0.358815 0.096089,0.730766 0.1787397,1.090372 0.091046,0.320872 0.1068198,0.655092 0.1729445,0.980457 0.057869,0.331333 0.1243572,0.657081 0.2128858,0.981379 0.063638,0.307265 0.1126036,0.613821 0.1908951,0.917908 0.0851,0.308243 0.081393,0.630025 0.1519149,0.940423 0.090325,0.334702 0.1250521,0.679086 0.1460461,1.023933 0.034444,0.35786 0.1108389,0.709878 0.1514783,1.0676 0.042568,0.356228 0.021112,0.716241 0.072529,1.0711 0.072369,0.371831 0.1133735,0.747771 0.1367282,1.125506 0.00452,0.35591 0.017371,0.705964 0.076272,1.057038 0.069022,0.372901 0.097104,0.750947 0.1133473,1.129248 0.012168,0.366508 0.011514,0.733277 0.011569,1.099938 -3.1e-4,0.363623 -7.829e-4,0.727245 -0.00103,1.090867 0.030115,0.30535 0.101398,0.604629 0.1380376,0.909902 0.03692,0.361195 0.040517,0.724599 0.043731,1.087315 0.00185,0.364437 8.884e-4,0.728881 4.735e-4,1.093321 -4.246e-4,0.363718 -5.492e-4,0.727437 -6.254e-4,1.091156 -0.029787,0.316839 0.033221,0.61942 0.090766,0.927982 0.063169,0.352555 0.07722,0.710878 0.086681,1.068103 -0.023969,0.317732 0.038952,0.621812 0.096297,0.931354 0.062611,0.3528 0.076368,0.711284 0.08566,1.068669 0.015282,0.273993 0.057202,0.550761 0.1255864,0.81678 0,0 -5.7037745,3.020997 -5.7037745,3.020997 l 0,0 c -0.02292,-0.306322 -0.08307,-0.606872 -0.14489,-0.90745 -0.0043,-0.325462 -0.0082,-0.652094 -0.05236,-0.975131 -0.05535,-0.341313 -0.160979,-0.674693 -0.129521,-1.024646 -0.0044,-0.325074 -0.0084,-0.651342 -0.05311,-0.973928 -0.05651,-0.344619 -0.163278,-0.681299 -0.128212,-1.034859 4.2e-5,-0.363913 1.02e-4,-0.727826 4.52e-4,-1.091739 3.8e-4,-0.362962 0.0012,-0.725924 8.56e-4,-1.088887 -0.001,-0.342433 -0.001,-0.685243 -0.0237,-1.027087 -0.02814,-0.329398 -0.0934,-0.650591 -0.159353,-0.974181 1.37e-4,-0.363651 3.72e-4,-0.727302 9.85e-4,-1.090952 5.41e-4,-0.360625 0.0019,-0.721271 -0.0023,-1.08188 -0.0064,-0.351706 -0.01605,-0.704467 -0.0715,-1.052561 -0.06336,-0.374816 -0.142055,-0.741427 -0.113427,-1.124777 -0.0108,-0.353973 -0.0295,-0.708618 -0.09894,-1.056833 -0.07136,-0.370443 -0.09661,-0.735203 -0.09605,-1.113107 -0.02666,-0.368089 -0.0807,-0.731913 -0.169996,-1.090475 -0.01093,-0.305021 -0.02504,-0.612068 -0.102347,-0.908967 -0.07965,-0.310614 -0.104457,-0.620521 -0.150374,-0.937099 -0.07298,-0.304279 -0.155588,-0.60128 -0.184404,-0.914154 -0.08214,-0.335134 -0.170006,-0.664194 -0.211668,-1.007781 -0.07739,-0.321887 -0.122486,-0.642778 -0.179909,-0.968616 -0.08834,-0.371924 -0.101903,-0.74612 -0.155077,-1.124129 -0.07731,-0.411285 -0.162914,-0.821305 -0.252499,-1.229048 0,0 5.7087453,-3.052155 5.7087453,-3.052155 z"
       inkscape:connector-curvature="0"
       inkscape:export-filename="C:\Users\Joe\Desktop\Team_Germ\Germs\Assets\Graphics\GameItems\Shop\empty.png"
       inkscape:export-xdpi="90"
       inkscape:export-ydpi="90" />
    <path
       style="opacity:0.95132744999999996;fill:#f10000;fill-opacity:0.77127659;stroke:#000000;stroke-width:3;stroke-miterlimit:4;stroke-opacity:0;stroke-dasharray:none"
       id="path3089"
       d="M 7.9326555,43.91984 C 7.7006645,43.654376 7.378407,43.580653 7.0437002,43.538646 6.689824,43.509106 6.3341826,43.516486 5.979456,43.519056 c -0.060532,4.69e-4 -0.1221988,-0.01027 -0.1815953,0.0014 -0.098898,0.01944 -0.1845768,0.08299 -0.2817498,0.109759 -0.1555713,0.04285 -0.315389,0.05385 -0.4753912,0.06614 -0.2518618,0.22143 -0.5851914,0.1013 -0.8467086,0.26088 -0.2898954,0.118747 -0.6129476,0.18015 -0.8940209,0.317209 -0.3546032,0.05285 -0.6242648,0.280225 -0.9448707,0.415986 1.7936772,-1.02748 3.5860606,-2.057222 5.3810315,-3.082441 0.045327,-0.02589 -0.086661,0.05838 -0.1319345,0.08436 -1.8859966,1.082371 -3.7471064,2.209699 -5.6617165,3.24061 -1.82746626,0.98399 7.1074867,-4.280054 5.4001929,-3.099794 -1.7868302,1.235245 -3.7089317,2.269763 -5.6396041,3.265301 -1.85047648,0.954185 3.5991452,-2.09406 5.3987177,-3.141089 -0.1867826,0.167468 -0.4512156,0.2517 -0.5854853,0.467987 -0.027649,0.02879 -0.060014,0.0537 -0.082947,0.08637 -0.028037,0.03994 -0.040438,0.08946 -0.068501,0.129384 -0.045411,0.0646 -0.1225443,0.102817 -0.1668285,0.168199 -0.079092,0.170188 -0.031967,0.09399 -0.137214,0.231121 -0.019257,0.1475 -0.154381,0.203415 -0.2260296,0.313315 -0.0727,0.111513 -0.1467026,0.250766 -0.2169429,0.3673 C 5.4220036,43.98613 5.2908954,44.286935 5.1061597,44.55914 4.9751938,44.824348 4.8341976,45.07931 4.697462,45.342576 4.5182706,45.626697 4.336113,45.910748 4.2467971,46.23673 4.0941223,46.508388 4.0584059,46.812532 3.9742102,47.104797 3.8578398,47.393196 3.811218,47.696069 3.7964936,48.004648 c -0.06549,0.301324 -0.1382992,0.598134 -0.173058,0.905191 -0.031277,0.349696 -0.032034,0.70115 -0.033868,1.051953 -8.125e-4,0.36377 1.18e-4,0.727542 5.519e-4,1.091312 0.00861,0.34244 -0.013878,0.686206 0.00817,1.02817 0.038304,0.269392 0.096151,0.530592 0.1994994,0.782315 0.1174958,0.306591 0.290184,0.58229 0.4635907,0.859025 0.1730853,0.295645 0.3817339,0.569461 0.5699165,0.856101 0.2095924,0.273128 0.4624253,0.505636 0.6851166,0.766572 0.2261695,0.226085 0.4906595,0.401994 0.7438169,0.595382 0.2568178,0.162454 0.5084275,0.32571 0.7787704,0.465279 0.2522863,0.10094 0.4840447,0.243922 0.7291063,0.363859 0.2997792,0.103593 0.5667572,0.27647 0.8738462,0.366233 0.3485652,0.154607 0.6865265,0.320875 1.0631336,0.394449 0.142067,0.100456 0.3250949,0.10857 0.4794439,0.173084 0.145215,0.06069 0.257315,0.139974 0.410981,0.183959 0.04202,0.0067 0.08551,0.0073 0.126059,0.02025 0.31946,0.101766 0.442478,0.159794 0.791386,0.191114 0.295088,0.13657 0.608855,0.173334 0.92906,0.189154 0.34466,0.01098 0.689578,0.0083 1.03436,0.0074 0.237662,-0.02827 0.489528,0.03479 0.725843,-0.0018 0.113739,-0.01763 0.220324,-0.06718 0.332262,-0.09396 0.06049,-0.01048 0.123791,-0.01039 0.181457,-0.03144 0.05119,-0.01868 0.09089,-0.06056 0.139277,-0.08562 0.294395,-0.152493 -0.0041,0.02093 0.303841,-0.104003 0.0491,-0.01992 0.0922,-0.05224 0.138302,-0.07836 0.05371,-0.01891 0.107416,-0.03782 0.161124,-0.05673 0.04984,-0.0297 0.09968,-0.0594 0.149524,-0.0891 0.05746,-0.02255 0.119316,-0.03612 0.172384,-0.06765 0.05018,-0.02981 0.08504,-0.08066 0.133068,-0.113827 0.08563,-0.05914 0.573811,-0.286075 0.311345,-0.134015 -1.793068,1.038821 -3.597941,2.057133 -5.396912,3.0857 14.964213,-8.65553 0.32815,-0.167714 0.248285,-0.121705 -0.03976,0.0229 0.06898,-0.0612 0.10801,-0.08533 0.03485,-0.02155 0.07853,-0.02704 0.111986,-0.05069 0.3932,-0.277921 -0.180338,0.0612 0.199868,-0.155517 0.183244,-0.190849 0.379629,-0.362201 0.577079,-0.543408 0.173147,-0.228936 0.314186,-0.49523 0.527316,-0.689501 0.18197,-0.196451 0.339392,-0.432012 0.493213,-0.657969 0.126625,-0.263225 0.235163,-0.534631 0.386338,-0.785258 0.104196,-0.251536 0.214072,-0.504541 0.36158,-0.735187 0.131087,-0.321237 0.309558,-0.621506 0.415901,-0.952301 0.153487,-0.261383 0.215721,-0.554076 0.339312,-0.827424 0.127292,-0.282176 0.149169,-0.591474 0.166646,-0.896127 -0.0086,-0.34449 0.01762,-0.676187 0.08896,-1.012594 0.06971,-0.322679 0.08529,-0.652874 0.09628,-0.981726 -0.01338,-0.330514 -0.06318,-0.66619 -0.132684,-0.990248 -0.09541,-0.290019 -0.126715,-0.598929 -0.251024,-0.878844 -0.123668,-0.286772 -0.281085,-0.553379 -0.384784,-0.848669 -0.09727,-0.254355 -0.218249,-0.497696 -0.32109,-0.749513 -0.08281,-0.259592 -0.18494,-0.512354 -0.302064,-0.758141 -0.08826,-0.216945 -0.194344,-0.440424 -0.36659,-0.603346 -0.163572,-0.180574 -0.320962,-0.378511 -0.513248,-0.530373 -0.203886,-0.213463 -0.329867,-0.480306 -0.486841,-0.725646 -0.141943,-0.244408 -0.257638,-0.507722 -0.448912,-0.71865 -0.153556,-0.199595 -0.321508,-0.398613 -0.542963,-0.525 C 10.977418,44.507149 10.706667,44.396843 10.46506,44.228558 10.205108,44.078733 9.9559461,43.916779 9.6889801,43.778486 9.5808965,43.660616 9.4274083,43.644135 9.2932018,43.580505 9.1463778,43.510892 9.0372932,43.433371 8.8793476,43.386487 8.7487102,43.280083 8.5779447,43.27277 8.429589,43.213511 8.2743163,43.151488 8.1473248,43.072101 7.9842458,43.026184 c -0.045627,-0.0076 -0.093189,-0.0077 -0.1368808,-0.02293 -0.1121671,-0.05664 -0.1751405,-0.09458 -0.2920436,-0.132407 -0.1534425,-0.04966 -0.266716,-0.05476 -0.4149093,-0.129658 -0.1841717,-0.07692 -0.3670286,-0.09056 -0.5450569,-0.180895 0,0 5.3547868,-3.602761 5.3547868,-3.602761 l 0,0 c 0.189982,0.03643 0.36577,0.112843 0.545579,0.182507 0.2888,0.05859 0.550848,0.205701 0.833492,0.285744 0.300222,0.134671 0.606314,0.252755 0.910147,0.37927 0.289823,0.148067 0.58124,0.29141 0.8611,0.458049 0.258745,0.162512 0.5244,0.31386 0.78384,0.475736 0.264191,0.148384 0.517636,0.313556 0.753649,0.50409 0.242675,0.1977 0.462811,0.416445 0.641726,0.675136 0.182959,0.249187 0.339322,0.515748 0.495957,0.781818 0.119118,0.199031 0.223559,0.4127 0.397357,0.57198 0.188142,0.191424 0.379936,0.380268 0.549048,0.589161 0.183678,0.231301 0.351151,0.479852 0.452218,0.759326 0.123136,0.258781 0.239577,0.523324 0.321655,0.797874 0.100495,0.267444 0.236503,0.520065 0.336067,0.788407 0.07817,0.279179 0.242382,0.520854 0.343579,0.791765 0.141737,0.316146 0.222869,0.646695 0.30552,0.981985 0.09793,0.373508 0.10892,0.765611 0.202112,1.141664 -0.0022,0.354576 -0.0032,0.710063 -0.04046,1.06308 -0.04395,0.319825 -0.177777,0.610578 -0.1396,0.937833 -0.0031,0.35355 -0.0034,0.709822 -0.06655,1.058892 -0.02943,0.117118 -0.03888,0.184995 -0.09432,0.292023 -0.02039,0.03936 -0.05746,0.06963 -0.073,0.111137 -0.05994,0.160095 -0.04558,0.351623 -0.154913,0.496542 -0.186579,0.276032 -0.231097,0.633827 -0.408503,0.919872 -0.02764,0.100928 -0.04229,0.188867 -0.101058,0.277553 -0.02179,0.03288 -0.06293,0.05121 -0.08102,0.08627 -0.06445,0.124951 -0.04891,0.280705 -0.184003,0.368981 -0.03126,0.110798 -0.04419,0.189374 -0.106142,0.287403 -0.023,0.0364 -0.0642,0.06009 -0.08345,0.0986 -0.06948,0.138985 -0.06564,0.311888 -0.199749,0.419799 -0.05862,0.202509 -0.137974,0.402985 -0.260809,0.575816 -0.0239,0.03363 -0.06767,0.05073 -0.08893,0.08608 -0.02816,0.0468 -0.03705,0.102755 -0.05558,0.154132 -0.244579,0.369753 0.08524,-0.09418 -0.188468,0.1924 -0.0348,0.03644 -0.04762,0.08998 -0.08135,0.127418 -0.03029,0.03362 -0.07853,0.048 -0.107799,0.08251 -0.354399,0.417892 0.181492,-0.109146 -0.183195,0.23682 -0.05714,0.125393 -0.134412,0.291131 -0.232837,0.39172 -0.02851,0.02914 -0.07584,0.03468 -0.10428,0.06389 -0.237214,0.243581 0.08337,0.02172 -0.181601,0.187571 -0.211204,0.331342 0.05783,-0.05199 -0.186804,0.191883 -0.230512,0.229798 0.06499,0.03771 -0.201438,0.194015 -1.873811,1.099286 -3.92256,1.943544 -5.622036,3.296828 -1.6227775,1.29221 3.592991,-2.074434 5.389487,-3.111651 -1.88617,1.079833 -3.77368,2.157328 -5.65851,3.239497 -0.100358,0.05762 -0.169039,0.119701 -0.276052,0.166973 -0.167195,0.07386 -0.345394,0.130536 -0.515898,0.197081 -0.320184,0.132128 -0.6501565,0.21923 -0.995354,0.248654 -0.3726922,0.03729 -0.7499984,-0.0032 -1.1245146,0.0099 -0.3615502,-0.0039 -0.7244843,-0.0077 -1.0831211,-0.05887 C 6.8719647,61.958046 6.5679116,61.850739 6.2503108,61.793974 5.9065141,61.715578 5.5708167,61.603415 5.2396602,61.485118 4.9695613,61.358223 4.6921975,61.247707 4.4065761,61.160122 4.0377533,61.026119 3.6840173,60.854647 3.3123567,60.727792 2.9958071,60.590073 2.6759117,60.458303 2.3657061,60.30819 2.1228403,60.171987 1.8647632,60.062677 1.6260627,59.917832 1.3551272,59.743441 1.0793915,59.577385 0.82191705,59.382227 0.53167895,59.170586 0.25330493,58.936423 0.01157046,58.670255 -0.23780688,58.397131 -0.49620168,58.130812 -0.71121732,57.828454 -0.90781112,57.542525 -1.1301953,57.273315 -1.2947422,56.965945 -1.4895249,56.669621 -1.6599379,56.358072 -1.8123324,56.038112 -1.9655698,55.734918 -2.04459,55.416651 -2.1002462,55.082495 c -0.065213,-0.366445 -0.025976,-0.739822 -0.036098,-1.110922 -2.601e-4,-0.364228 -7.242e-4,-0.728455 -0.0016,-1.092682 -6.62e-4,-0.363112 -0.00257,-0.726305 0.00652,-1.089337 0.011899,-0.326913 0.020494,-0.661017 0.1280779,-0.973319 0.1305329,-0.296491 0.023684,-0.654309 0.1426758,-0.961978 0.030149,-0.08564 0.085167,-0.161927 0.1094324,-0.249413 0.060516,-0.218183 0.024624,-0.467564 0.1529229,-0.669993 0.097859,-0.166997 0.1125828,-0.335386 0.1783068,-0.51628 0.099778,-0.274622 0.03516,-0.07187 0.1576776,-0.309854 0.025377,-0.04929 0.043427,-0.102025 0.065141,-0.153038 0.1070071,-0.152854 0.059603,-0.07192 0.1415147,-0.243199 0.022974,-0.03503 0.0647063,-0.05622 0.0841983,-0.0933 0.071675,-0.136349 0.067963,-0.304285 0.21074695,-0.403026 0.11858971,-0.324768 0.35470737,-0.574198 0.4730694,-0.901723 0.0532797,-0.07611 0.0879285,-0.164211 0.14140236,-0.240185 0.0228589,-0.03248 0.0657835,-0.04847 0.0855712,-0.08291 0.0720531,-0.125388 0.0548026,-0.27227 0.21468997,-0.336426 0.0205523,-0.04256 0.0411045,-0.08512 0.0616567,-0.127679 0.0283488,-0.02795 0.0654977,-0.04917 0.0850464,-0.08385 0.0973209,-0.172658 -0.009182,-0.127346 0.11789392,-0.273239 0.0258877,-0.02972 0.0714033,-0.03834 0.0958169,-0.06929 0.030019,-0.03805 0.041628,-0.08753 0.062442,-0.131299 0.1241122,-0.123235 0.1044989,-0.250322 0.2186717,-0.367134 0.029571,-0.03025 0.077615,-0.03747 0.1075938,-0.06732 0.23720832,-0.236182 -0.072382,-0.03094 0.19879312,-0.191558 1.8722362,-1.101544 3.926458,-1.940182 5.6167085,-3.30463 1.6160336,-1.304537 -7.24518562,4.059451 -5.3915051,3.122835 1.9394296,-0.979943 3.758686,-2.181662 5.6491542,-3.253018 1.8019511,-1.021193 -3.5893744,2.06781 -5.3835962,3.102522 -0.045682,0.02634 0.091979,-0.05161 0.1379679,-0.07741 1.8856408,-1.084293 3.7712816,-2.168586 5.6569225,-3.252879 0.3116029,-0.165546 0.6518103,-0.233059 0.9763815,-0.367083 0.3171999,-0.08564 0.6170072,-0.222892 0.938887,-0.294255 0.3114151,-0.0162 0.5806291,-0.188779 0.8943819,-0.182456 0.330109,-0.07047 0.645199,-0.142515 0.985404,-0.08984 0.384071,0.01093 0.771095,0.02891 1.143054,0.134477 0.363683,0.117165 0.685562,0.304694 1.022225,0.474996 0,0 -5.4152458,3.563039 -5.4152458,3.563039 z"
       inkscape:connector-curvature="0"
       inkscape:export-filename="C:\Users\Joe\Desktop\Team_Germ\Germs\Assets\Graphics\GameItems\Shop\empty.png"
       inkscape:export-xdpi="90"
       inkscape:export-ydpi="90" />
    <path
       style="opacity:0.95132744999999996;fill:#f10000;fill-opacity:0.77127659;stroke:#000000;stroke-width:3;stroke-miterlimit:4;stroke-opacity:0;stroke-dasharray:none"
       id="path3075-1"
       d="m 37.000057,32.793915 c -0.04512,0.417834 -0.03312,0.839592 -0.02968,1.259195 0.0096,0.414045 -0.002,0.827911 -0.0012,1.241955 0.0085,0.423058 -0.0021,0.845946 -7.15e-4,1.268999 0.0129,0.460775 -0.06135,0.918238 -0.1222,1.373643 -0.04125,0.436025 -0.05327,0.874696 -0.06037,1.31246 -0.0016,0.407539 0.0045,0.815057 0.0077,1.222576 0.0026,0.36706 0.0031,0.734131 0.0034,1.101199 -0.0079,0.408157 -0.0092,0.816276 -0.0063,1.224552 0.0032,0.379134 0.0049,0.758277 0.0058,1.137423 6.74e-4,0.363887 6.51e-4,0.727775 6.62e-4,1.091662 -1.1e-5,0.36341 -3.6e-5,0.72682 -4.9e-5,1.09023 -1.1e-5,0.363618 -1.2e-5,0.727237 -1.3e-5,1.090855 -10e-7,0.363638 -10e-7,0.727277 0,1.090916 0,0.363637 0,0.727273 0,1.09091 0,0.363636 0,0.727273 0,1.090909 0,0.363636 0,0.727273 0,1.090909 0,0.363636 0,0.727273 0,1.090909 0,0.363637 0,0.727273 0,1.090909 0,0.363637 0,0.727272 0,1.090908 0.0082,0.342239 -0.01435,0.685794 0.0076,1.027559 0.06584,0.321182 0.117615,0.643389 0.146395,0.970045 0.0072,0.356966 0.0915,0.704665 0.142122,1.05672 0.04964,0.372634 0.05963,0.748738 0.06599,1.124105 0.02716,0.308009 -0.0425,0.630082 0.03268,0.932857 0.0063,0.0036 0.02533,0.0076 0.01884,0.01082 -6.871353,3.396398 -5.783709,4.890343 -5.782761,2.263975 -0.0563,-0.367944 -0.113148,-0.734882 -0.144912,-1.105962 -0.03346,-0.333942 -0.0035,-0.671437 -0.0622,-1.002389 -0.07841,-0.334605 -0.113694,-0.675751 -0.134467,-1.018052 -0.02412,-0.327352 0.0082,-0.657236 -0.04786,-0.981454 -0.07751,-0.334787 -0.112921,-0.675887 -0.133753,-1.018194 -0.01731,-0.364176 -0.01707,-0.728878 -0.01758,-1.093375 3.1e-5,-0.364093 6.24e-4,-0.728186 9.2e-4,-1.092279 0.01438,-0.320936 0.0027,-0.633212 -0.06023,-0.947617 -0.07417,-0.344807 -0.09754,-0.696787 -0.112102,-1.048242 0.0071,-0.312082 -0.08023,-0.613584 -0.127652,-0.919751 -0.04936,-0.35819 -0.0566,-0.720164 -0.06213,-1.081126 -0.0036,-0.364599 -0.0025,-0.729224 -0.0021,-1.093835 4.87e-4,-0.36377 6.81e-4,-0.727541 7.94e-4,-1.091312 8.6e-5,-0.363629 8.1e-5,-0.727259 8.2e-5,-1.090889 0.01363,-0.363389 -0.02601,-0.730038 0.01591,-1.091477 0.07188,-0.307891 0.119637,-0.618415 0.144392,-0.933426 0.02255,-0.347879 -3.65e-4,-0.693134 0.06846,-1.036033 0.06755,-0.291782 0.111941,-0.589575 0.115066,-0.88935 -0.0047,-0.01652 -0.0032,-0.03625 -0.01407,-0.04958 -0.01875,-0.02306 -0.332458,0.01687 -0.437616,0.01793 -0.373795,0.04924 -0.650647,-0.04876 -1.004811,-0.117364 -0.319996,-0.04748 -0.644523,-0.04743 -0.967285,-0.05038 -0.174938,-0.02094 -0.359208,0.02439 -0.533391,-5.5e-4 -0.167617,-0.024 -0.338467,-0.09405 -0.50578,-0.128328 -0.317844,-0.04987 -0.64072,-0.04979 -0.961637,-0.05292 -0.363157,-0.01703 -0.732645,0.04496 -1.085089,-0.05275 -0.303882,-0.09828 -0.62227,-0.113551 -0.938712,-0.124113 -0.297187,-0.124441 -0.609811,-0.161687 -0.928028,-0.17823 -0.289218,-0.132068 -0.59672,-0.166502 -0.909836,-0.182514 -0.172438,0.03321 -0.488782,-0.07114 -0.645299,-0.0026 -0.03251,0.01424 -0.09513,0.102169 -0.06401,0.0851 1.863978,-1.022373 3.713817,-2.070348 5.570725,-3.105536 0.181392,-0.151149 -0.239488,-0.257769 -0.200061,-0.402231 0.0089,-0.03243 0.0393,0.05518 0.0642,0.07776 0.09044,0.08203 0.04281,0.0038 0.150947,0.0663 0.04503,0.02603 0.08258,0.06324 0.123867,0.09486 0.09552,0.08919 0.228318,0.06838 0.338982,0.109527 0.142036,0.0528 0.251524,0.125608 0.401712,0.162835 0.296639,0.01627 0.552263,0.156337 0.846661,0.196735 0.260704,0.180569 0.583578,0.144405 0.86115,0.263992 0.305278,0.07104 0.594215,0.186397 0.901142,0.252599 0.218446,0.06238 0.453586,0.01719 0.673665,0.05351 0.130097,0.02147 0.254582,0.06904 0.383082,0.0986 0.350519,0.07161 0.709039,0.07889 1.065394,0.0843 0.378906,-0.02587 0.736135,0.102481 1.109928,0.148213 0.354638,0.03446 0.711391,0.03369 1.067323,0.03452 0.362369,-2.57e-4 0.724737,-0.0015 1.087105,-0.0021 0.363684,-5.55e-4 0.727368,-6.25e-4 1.091053,-6.78e-4 0.363659,-3.1e-5 0.727318,-1.6e-5 1.090977,-10e-6 0.363637,7e-6 0.727274,9e-6 1.090912,10e-6 0.363636,1e-6 0.727272,1e-6 1.090908,1e-6 0.176846,-0.02617 0.369911,0.03311 0.545454,0 0.118293,-0.02231 0.288026,-0.108852 0.432056,-0.139195 0.213295,-0.06817 0.455367,0.005 0.668468,-0.04359 0.09519,-0.0217 0.177827,-0.08145 0.27025,-0.112907 0.326132,-0.07416 0.663637,-0.06906 0.996259,-0.07181 0.117648,-0.02297 0.241553,0.02226 0.359186,-4.6e-5 0.04945,-0.0094 0.09123,-0.04279 0.138268,-0.06069 0.147819,-0.05626 0.296352,-0.07716 0.452275,-0.09614 0.349863,-0.0043 0.66875,-0.130663 1.016733,-0.172568 0.22005,-0.129359 0.480495,-0.117241 0.717854,-0.179088 0.1187,-0.03093 0.230351,-0.08509 0.348316,-0.118717 0.353056,-0.09307 0.742127,-0.214313 1.029869,-0.445694 0.194016,-0.125983 0.433526,-0.166957 0.631637,-0.282065 0.166106,-0.144391 0.07635,-0.08327 0.268701,-0.184184 -1.794577,1.040629 -3.589151,2.081265 -5.383725,3.121901 0,0 5.99593,-2.373314 5.99593,-2.373314 l 0,0 c -1.875112,1.099036 -3.750224,2.198072 -5.625337,3.297109 -0.287323,0.168875 -0.617528,0.260457 -0.89892,0.445721 -0.370093,0.111818 -0.729861,0.25675 -1.110203,0.335011 -0.364776,0.09853 -0.738716,0.178834 -1.109399,0.249492 -0.342192,0.07759 -0.682125,0.128662 -1.027709,0.183848 -0.330798,0.07705 -0.650327,0.08186 -0.988964,0.08625 -0.317658,0.02941 -0.629273,0.08459 -0.934622,0.179125 -0.315468,0.04998 -0.643695,0.02565 -0.952612,0.133994 -0.34453,0.0667 -0.690113,0.01059 -1.039634,0.02548 -0.363636,0 -0.727273,-10e-7 -1.09091,-3e-6 -0.363635,-3e-6 -0.727271,-9e-6 -1.090907,-4e-6 -0.363613,1e-5 -0.727227,1.9e-5 -1.09084,1.98e-4 -0.363589,2.15e-4 -0.727177,6.18e-4 -1.090765,0.0011 -0.364907,1.94e-4 -0.729888,0.0012 -1.094701,-0.0084 -0.373125,-0.0132 -0.746525,-0.03576 -1.114501,-0.102863 -0.3577,-0.0627 -0.70893,-0.09816 -1.072712,-0.09409 -0.376802,-0.02851 -0.75058,-0.07934 -1.119318,-0.163753 -0.361013,-0.05934 -0.73395,-0.05503 -1.084222,-0.179219 -0.309378,-0.09296 -0.623828,-0.158423 -0.930116,-0.262421 -0.289746,-0.03419 -0.546684,-0.171109 -0.829916,-0.226368 -0.299031,-0.08718 -0.597276,-0.163719 -0.893586,-0.256971 -0.285535,-0.123269 -0.584694,-0.217318 -0.836982,-0.405956 -0.390952,-0.215204 -0.635097,-0.529045 -0.76814,-0.961644 5.70371,-3.186438 3.63848,-3.379968 6.4571,-3.060325 0.305919,0.04976 0.600939,0.153912 0.908445,0.181022 0.30601,0.04781 0.604185,0.149719 0.913076,0.162485 0.325106,0.03576 0.642778,0.106991 0.965882,0.153111 0.345454,-0.02546 0.69332,-7.01e-4 1.039196,0.0048 0.347956,0.01863 0.695463,0.05016 1.035155,0.132086 0.319548,0.06307 0.640146,0.03111 0.964834,0.04892 0.348738,0.0177 0.697177,0.04755 1.038247,0.126597 0.324217,0.06239 0.651276,0.02778 0.977221,0.08641 0.429912,0.101146 0.766828,0.323038 0.905717,0.765119 0.05846,0.352153 0.02089,0.711484 -0.02634,1.064068 -0.02775,0.13551 -0.09757,0.277565 -0.118323,0.410865 -0.02757,0.177122 0.02098,0.366178 -0.004,0.544149 -0.0081,0.338505 -0.01469,0.680562 -0.09218,1.011815 -0.02619,0.08747 -0.07373,0.169277 -0.08762,0.259518 -0.03645,0.236799 0.02772,0.48913 6e-6,0.727269 2e-6,0.363682 1.1e-5,0.727364 -3.6e-5,1.091046 -6.7e-5,0.363971 -1.72e-4,0.727943 -6.14e-4,1.091914 -4.51e-4,0.362053 -0.0014,0.724108 -2.45e-4,1.086161 0.0022,0.334585 0.0035,0.669864 0.03533,1.003237 0.0396,0.330683 0.143488,0.651326 0.150238,0.984177 0.0074,0.316502 0.01596,0.634624 0.07485,0.946629 0.07253,0.356017 0.137955,0.703723 0.103914,1.070055 -2.22e-4,0.363863 -6.34e-4,0.727725 -0.0011,1.091588 -2.25e-4,0.354298 -0.0014,0.708676 0.008,1.062882 0.01154,0.311649 0.02848,0.624435 0.100751,0.929078 0.07764,0.355394 0.08582,0.707113 0.081,1.070628 0.01147,0.311245 0.02825,0.62364 0.100483,0.927878 0.07871,0.36003 0.08535,0.716756 0.08463,1.08492 0.0177,0.3592 0.05028,0.717786 0.134304,1.068498 0.549296,2.580461 -2.994797,2.249868 -5.738104,3.689226 -0.009,0.0047 0.01284,-0.01566 0.01926,-0.02349 0.06437,-0.313628 0.01683,-0.638018 0.03128,-0.955667 -0.0014,-0.353252 -0.002,-0.707081 -0.03186,-1.059335 -0.0381,-0.364469 -0.131985,-0.718784 -0.164723,-1.081772 -0.01819,-0.314479 -0.05286,-0.626884 -0.132832,-0.932546 -0.0652,-0.366393 -0.02598,-0.739716 -0.03589,-1.110763 0,-0.363636 0,-0.727272 0,-1.090909 0,-0.363636 0,-0.727272 0,-1.090909 0,-0.363636 0,-0.727273 0,-1.090909 0,-0.363635 0,-0.727272 0,-1.090908 0,-0.363636 0,-0.727273 0,-1.090909 0,-0.363637 10e-7,-0.727274 10e-7,-1.090911 0,-0.363638 0,-0.727277 0,-1.090916 -10e-7,-0.363613 -3e-6,-0.727227 -1.4e-5,-1.09084 -1.3e-5,-0.363393 -3.8e-5,-0.726787 -4.8e-5,-1.090181 10e-6,-0.364113 -1.2e-5,-0.728227 6.64e-4,-1.09234 9e-4,-0.381113 0.0026,-0.762222 0.0058,-1.143322 0.0028,-0.406045 0.0017,-0.811933 -0.0065,-1.217852 1.25e-4,-0.367781 2.77e-4,-0.735563 0.002,-1.10334 0.0023,-0.412999 0.0065,-0.825979 0.0099,-1.23897 0.0011,-0.454968 0.003,-0.909759 0.0391,-1.363765 0.02675,-0.441483 0.129091,-0.873521 0.141319,-1.314617 0.0014,-0.42281 -0.0092,-0.845452 -7.16e-4,-1.26827 8.5e-4,-0.413646 -0.01077,-0.82711 -0.0012,-1.24076 0.0033,-0.409434 0.01687,-0.821491 -0.02968,-1.228947 0,0 5.769124,-2.939515 5.769124,-2.939515 z"
       inkscape:connector-curvature="0"
       inkscape:export-filename="C:\Users\Joe\Desktop\Team_Germ\Germs\Assets\Graphics\GameItems\Shop\empty.png"
       inkscape:export-xdpi="90"
       inkscape:export-ydpi="90" />
    <path
       style="opacity:0.95132745;fill:#f10000;fill-opacity:0.77127662;stroke:#000000;stroke-width:3;stroke-miterlimit:4;stroke-opacity:0;stroke-dasharray:none"
       id="path3887"
       d="m 53.611281,5.0246521 c -0.02775,0.5148536 0.114879,1.0228442 0.237636,1.5182759 0.186648,0.6886546 0.36981,1.377865 0.567798,2.0635173 0.181056,0.5688338 0.329842,1.1471934 0.501267,1.7188267 0.139678,0.418309 0.240841,0.847957 0.344713,1.276165 0.137658,0.504691 0.324,0.993887 0.488305,1.489992 0.15629,0.416875 0.295327,0.842403 0.484147,1.245989 0.189758,0.388558 0.38054,0.773939 0.602718,1.144671 0.219229,0.355173 0.473012,0.694478 0.79019,0.967364 0.309441,0.272468 0.634524,0.530017 1.022869,0.676923 0.332333,0.115353 0.564326,0.220355 0.921213,0.247748 0.334547,0.01469 0.669594,0.01009 1.00436,0.0085 0.374908,0.02828 0.701077,-0.07193 1.004459,-0.288855 2.025532,-0.991885 0.303483,-0.153299 -5.18619,2.977323 -0.05067,0.0289 0.09927,-0.06131 0.149631,-0.09074 0.167738,-0.09802 0.329329,-0.194926 0.488887,-0.306258 0.30031,-0.23701 0.581696,-0.507346 0.832716,-0.797757 0.273851,-0.306562 0.500981,-0.652305 0.732891,-0.991 0.248526,-0.389819 0.467121,-0.794673 0.698116,-1.194869 0.252412,-0.411458 0.436162,-0.856876 0.639853,-1.293017 0.234968,-0.448693 0.466832,-0.899162 0.686347,-1.355843 0.18776,-0.447659 0.419012,-0.874292 0.626618,-1.31248 0.188837,-0.410109 0.400451,-0.807588 0.631573,-1.195334 0.219795,-0.444796 0.487732,-0.858877 0.755366,-1.27531 0.223096,-0.3630462 0.48059,-0.6963875 0.743076,-1.0302493 0.204393,-0.2837828 0.427508,-0.5583851 0.612285,-0.8567252 0.174641,-0.331457 0.449697,-0.5954302 0.655708,-0.9060765 0.242189,-0.2653085 0.42975,-0.5746099 0.659924,-0.8481198 0.137847,-0.2566505 0.4226,-0.4099446 0.475692,-0.7071065 5.173809,-2.6042565 7.059597,-4.3333336 5.631205,-1.9262175 -0.256096,0.4797025 -0.487613,0.9725231 -0.695862,1.4750229 -0.314661,0.7637838 -0.58224,1.5430951 -0.82661,2.3318902 -0.204481,0.6811906 -0.388811,1.368276 -0.5907,2.0502148 -0.158842,0.6509749 -0.331021,1.2982559 -0.508313,1.9445039 -0.20548,0.686033 -0.4039,1.373976 -0.590946,2.065265 -0.191124,0.735647 -0.41807,1.461388 -0.651544,2.184502 -0.206677,0.725551 -0.536006,1.405571 -0.793947,2.112782 -0.261932,0.667633 -0.534077,1.331504 -0.820447,1.989074 -0.301512,0.6343 -0.581519,1.27871 -0.885269,1.911854 -0.292978,0.621008 -0.666685,1.197897 -1.019002,1.785689 -0.321479,0.558312 -0.693253,1.081623 -1.07058,1.602499 -0.344401,0.491192 -0.758989,0.927338 -1.193081,1.33941 -0.402395,0.389528 -0.830338,0.74822 -1.303263,1.04837 -2.043977,1.273492 -4.185661,2.418291 -6.265095,3.604522 -0.245822,0.140231 -0.50435,0.248877 -0.752584,0.384396 -0.517858,0.202839 -1.038293,0.396826 -1.586469,0.503651 -0.09567,0.01529 -0.192438,0.02485 -0.28702,0.04586 -0.622671,0.138306 0.101913,0.01536 -0.50439,0.137017 -0.270415,0.05426 -0.54672,0.06421 -0.8212,0.0784 -0.539883,0.109911 -1.089109,0.178416 -1.639583,0.201053 -0.541589,0.009 -1.075908,0.125238 -1.616354,0.17443 -0.307541,0.04114 -0.627472,-0.01381 -0.934195,0.02662 -0.131668,0.01735 -0.257577,0.06503 -0.387316,0.09341 -0.377922,0.07545 -0.763778,0.08671 -1.147806,0.09355 -0.335697,0.153179 -0.718331,0.09946 -1.056739,0.224935 -0.174072,0.07612 -0.37203,0.05983 -0.551622,0.105851 -0.180788,0.04632 -0.347066,0.117926 -0.533221,0.155293 -0.37397,0.06009 -0.753758,0.06078 -1.131487,0.06273 -0.331189,-0.07253 -0.578811,-0.283932 -0.772451,-0.551511 0,0 5.558118,-3.319903 5.558118,-3.319903 l 0,0 c 0.12169,0.107148 0.265889,0.098 0.416152,0.0658 0.354869,-0.02199 0.709144,-0.0606 1.05031,-0.166631 0.361023,-0.103255 0.730536,-0.160771 1.095789,-0.248019 0.376708,-0.03208 0.741945,-0.148914 1.121638,-0.14094 0.368055,-0.02807 0.73227,-0.08134 1.09596,-0.144039 0.441962,-0.045 0.890444,-0.01024 1.33132,-0.08074 0.538494,-0.05842 1.075738,-0.124023 1.616776,-0.153981 0.539329,-0.05747 1.074749,-0.140006 1.612939,-0.20491 0.523786,-0.0818 1.036507,-0.218966 1.552484,-0.338366 0.518145,-0.172817 1.03305,-0.362287 1.51403,-0.623351 0.360038,-0.172092 0.107715,-0.0476 0.468438,-0.235978 0.08689,-0.04537 0.346103,-0.184059 0.261334,-0.134839 -8.960126,5.202538 -6.559843,3.775433 -4.666182,2.699121 0.465199,-0.290511 0.956357,-0.543025 1.345214,-0.940364 0.438996,-0.390536 0.885906,-0.77474 1.253874,-1.234519 0.387213,-0.507481 0.785777,-1.010088 1.109306,-1.56176 0.365985,-0.567352 0.707489,-1.150766 1.051341,-1.731679 0.316036,-0.623857 0.599282,-1.262137 0.882032,-1.900674 0.327913,-0.632079 0.570183,-1.303732 0.861748,-1.952874 0.275819,-0.689737 0.525724,-1.38967 0.811181,-2.076008 0.214426,-0.718579 0.46696,-1.425697 0.658533,-2.151332 0.166713,-0.698639 0.363141,-1.390864 0.577167,-2.076265 0.184683,-0.641916 0.351915,-1.288305 0.494303,-1.9405 0.191784,-0.698116 0.424842,-1.38451 0.630763,-2.079001 0.229899,-0.7894264 0.492603,-1.5724132 0.774293,-2.3443647 0.158944,-0.5206614 0.357819,-1.0282366 0.600249,-1.5140505 0.971246,-2.3436527 3.051339,-1.8022042 6.275664,-3.2197996 0.01472,-0.00647 -0.01872,0.02614 -0.02808,0.03921 -0.03233,-0.00168 -0.06779,-0.019008 -0.09699,-0.00503 -0.156622,0.074962 -0.265971,0.551696 -0.47757,0.6100708 -0.386071,0.5925956 0.189763,-0.2674993 -0.22355,0.2744805 -0.04072,0.053401 -0.06313,0.118925 -0.101568,0.1739974 -0.103128,0.1477735 -0.244111,0.2709551 -0.326332,0.4345629 -0.257759,0.2485344 -0.413648,0.5938918 -0.690224,0.8272048 -0.126852,0.2028431 -0.226706,0.4229958 -0.373099,0.6135972 -0.03537,0.046054 -0.08646,0.078844 -0.120182,0.1261192 -0.04001,0.056093 -0.06611,0.1209126 -0.09916,0.1813688 -0.259307,0.3376765 -0.546276,0.6426735 -0.782425,0.9975372 -0.273211,0.3925283 -0.569388,0.7775168 -0.766228,1.2154053 -0.20128,0.4057472 -0.479644,0.7670744 -0.655418,1.1857719 -0.2283,0.422202 -0.419186,0.863966 -0.642559,1.288775 -0.202555,0.475546 -0.452298,0.922077 -0.65816,1.394711 -0.260194,0.410485 -0.400257,0.874818 -0.640684,1.293719 -0.110291,0.21458 -0.247618,0.412991 -0.349863,0.631491 -0.03476,0.07428 -0.05524,0.155163 -0.09449,0.227178 -0.06666,0.122308 -0.181566,0.214519 -0.230658,0.348455 -0.19526,0.386207 -0.45951,0.724432 -0.686471,1.091456 -0.126992,0.153231 -0.237153,0.328833 -0.368628,0.476892 -0.254891,0.287043 -0.03011,-0.02403 -0.287678,0.257579 -0.04914,0.05372 -0.08736,0.116492 -0.131044,0.174738 -0.188414,0.176467 -0.371642,0.346546 -0.596683,0.475724 -5.709698,3.277464 -3.675921,2.404055 -5.870689,3.337279 -0.389067,0.0895 -0.777267,0.10005 -1.17517,0.08077 -0.361212,-0.0064 -0.725651,-0.01335 -1.079001,-0.09704 -0.34845,-0.09786 -0.676095,-0.251261 -1.002091,-0.406624 -0.402378,-0.239684 -0.77481,-0.523437 -1.114602,-0.846357 -0.334193,-0.342374 -0.6503,-0.705878 -0.891803,-1.121159 -0.219104,-0.391594 -0.435937,-0.784385 -0.621065,-1.193525 -0.20868,-0.43092 -0.347467,-0.890878 -0.531473,-1.332418 -0.13535,-0.507448 -0.304939,-1.007204 -0.483395,-1.500709 -0.139159,-0.419451 -0.23399,-0.846899 -0.340424,-1.275151 -0.165805,-0.577516 -0.277524,-1.170274 -0.443034,-1.74832 C 48.644188,10.964291 48.450701,10.278074 48.26944,9.5880555 48.091536,9.0554246 47.962312,8.5118848 47.843264,7.9636036 c 0,0 5.768017,-2.9389515 5.768017,-2.9389515 z"
       inkscape:connector-curvature="0"
       inkscape:export-filename="C:\Users\Joe\Desktop\Team_Germ\Germs\Assets\Graphics\GameItems\Shop\empty.png"
       inkscape:export-xdpi="90"
       inkscape:export-ydpi="90" />
  </g>
</svg>
