<?xml version="1.0" encoding="UTF-8" standalone="no"?>
<!-- Created with Inkscape (http://www.inkscape.org/) -->

<svg
   xmlns:dc="http://purl.org/dc/elements/1.1/"
   xmlns:cc="http://creativecommons.org/ns#"
   xmlns:rdf="http://www.w3.org/1999/02/22-rdf-syntax-ns#"
   xmlns:svg="http://www.w3.org/2000/svg"
   xmlns="http://www.w3.org/2000/svg"
   xmlns:sodipodi="http://sodipodi.sourceforge.net/DTD/sodipodi-0.dtd"
   xmlns:inkscape="http://www.inkscape.org/namespaces/inkscape"
   width="64px"
   height="64px"
   id="svg2985"
   version="1.1"
   inkscape:version="0.48.5 r10040"
   sodipodi:docname="New document 2">
  <defs
     id="defs2987">
    <inkscape:path-effect
       effect="skeletal"
       id="path-effect3837"
       is_visible="true"
       pattern="M 0,5 10,10 10,0 z"
       copytype="single_stretched"
       prop_scale="1"
       scale_y_rel="false"
       spacing="0"
       normal_offset="0"
       tang_offset="0"
       prop_units="false"
       vertical_pattern="false"
       fuse_tolerance="0" />
    <inkscape:path-effect
       effect="spiro"
       id="path-effect3835"
       is_visible="true" />
    <inkscape:path-effect
       effect="skeletal"
       id="path-effect3801"
       is_visible="true"
       pattern="M 0,5 10,10 10,0 z"
       copytype="single_stretched"
       prop_scale="1"
       scale_y_rel="false"
       spacing="0"
       normal_offset="0"
       tang_offset="0"
       prop_units="false"
       vertical_pattern="false"
       fuse_tolerance="0" />
    <inkscape:path-effect
       effect="spiro"
       id="path-effect3799"
       is_visible="true" />
  </defs>
  <sodipodi:namedview
     id="base"
     pagecolor="#ffffff"
     bordercolor="#666666"
     borderopacity="1.0"
     inkscape:pageopacity="0.0"
     inkscape:pageshadow="2"
     inkscape:zoom="5.5"
     inkscape:cx="17.514174"
     inkscape:cy="32"
     inkscape:current-layer="layer2"
     showgrid="true"
     inkscape:document-units="px"
     inkscape:grid-bbox="true"
     inkscape:window-width="1027"
     inkscape:window-height="856"
     inkscape:window-x="568"
     inkscape:window-y="89"
     inkscape:window-maximized="0" />
  <metadata
     id="metadata2990">
    <rdf:RDF>
      <cc:Work
         rdf:about="">
        <dc:format>image/svg+xml</dc:format>
        <dc:type
           rdf:resource="http://purl.org/dc/dcmitype/StillImage" />
        <dc:title></dc:title>
      </cc:Work>
    </rdf:RDF>
  </metadata>
  <g
     inkscape:groupmode="layer"
     id="layer2"
     inkscape:label="water">
    <path
       style="fill:#ff0000;stroke:none"
       id="path3858"
       d="m 7.8592056,31.799526 c 0.092582,0.399766 0.1723266,0.80933 0.2711887,1.209696 0.078876,0.434802 0.2106692,0.841899 0.3652579,1.254341 0.1182979,0.375759 0.3880177,0.646206 0.6081514,0.958363 0.1445192,0.209157 0.262229,0.460837 0.4441556,0.642942 0.085673,0.08576 0.1908981,0.149481 0.2846822,0.226285 0.3660856,0.238538 0.6272606,0.612203 0.8856506,0.959096 0.297435,0.340181 0.481859,0.568435 0.929763,0.690005 0.246129,0.145373 0.543625,0.130159 0.805785,0.211149 0.143951,0.04447 0.274506,0.12435 0.413261,0.183056 0.412726,0.15219 0.854519,0.229859 1.249751,0.423227 0.437851,0.171628 0.863104,0.36586 1.326023,0.459307 0.408353,0.226753 0.84222,0.341923 1.301711,0.400437 0.475431,0.01221 0.938331,0.117869 1.409621,0.171038 0.488772,-0.0166 0.925595,0.19601 1.392173,0.305685 0.439297,0.09729 0.868942,0.208424 1.318207,0.255164 0.426889,0.190928 0.868987,0.301782 1.331387,0.357757 0.435024,0.151122 0.90891,0.115471 1.335322,0.277398 0.419084,0.139264 0.839217,0.287073 1.26945,0.389272 0.377635,0.217945 0.790193,0.358909 1.152607,0.602291 0.20423,0.1006 0.371629,0.252651 0.576056,0.353004 0.06179,0.03033 0.130303,0.04659 0.190002,0.08085 0.129797,0.07448 0.246007,0.170838 0.374238,0.247983 0.1438,0.14986 0.342398,0.207509 0.514174,0.30749 0.185228,0.107811 0.333292,0.237033 0.529826,0.328896 0.369847,0.166443 0.654968,0.450999 0.9791,0.687827 0.154584,0.211978 0.380849,0.356261 0.561718,0.541175 0.539754,0.551827 -0.221477,-0.164865 0.269626,0.290231 0.305168,0.261007 0.535428,0.584447 0.756699,0.917005 0.22349,0.313774 0.499326,0.579391 0.748437,0.872684 0.314868,0.263177 0.578984,0.583335 0.821432,0.913849 0.0458,0.05337 0.09532,0.103767 0.137414,0.160113 0.134141,0.179566 0.243632,0.363228 0.41855,0.510299 0.05359,0.04506 0.115736,0.07881 0.173604,0.118219 0.06339,0.05627 0.12678,0.112536 0.19017,0.168804 0.347849,0.259638 0.652889,0.564543 0.992125,0.834747 0.389367,0.222784 0.789785,0.422988 1.187189,0.633822 0.424243,0.186708 0.845725,0.370042 1.279073,0.53982 0.239387,0.118888 0.515331,0.116821 0.765721,0.190633 0.237042,0.06988 0.467752,0.190596 0.703122,0.270483 0.442316,0.09385 0.872188,0.228968 1.320667,0.293472 0.412909,0.208474 0.846045,0.320951 1.302168,0.378361 0.438576,0.129543 0.891143,0.17707 1.345427,0.20648 0.525708,0.02521 1.05211,0.02203 1.578242,0.02462 0.236147,0.07034 0.50917,0.09084 0.716792,0.238915 0.168975,0.120513 0.332761,0.315536 0.473652,0.468159 0.203543,0.310634 0.34717,0.654335 0.458883,1.007161 0,0 -3.261005,1.78454 -3.261005,1.78454 l 0,0 c -0.08648,-0.299294 -0.202251,-0.597607 -0.376903,-0.856575 -0.302639,-0.313572 -0.537259,-0.468458 -0.992187,-0.477555 -0.534604,2.47e-4 -1.069986,-0.002 -1.603487,-0.03958 -0.462181,-0.03937 -0.916227,-0.11849 -1.367125,-0.227655 -0.451118,-0.08419 -0.873157,-0.238556 -1.307472,-0.379305 -0.458826,-0.08697 -0.908188,-0.220071 -1.356376,-0.349635 -0.480618,-0.182951 -0.971023,-0.31578 -1.45937,-0.474702 -0.450473,-0.164713 -0.895299,-0.351868 -1.324934,-0.564261 -0.414532,-0.217331 -0.831619,-0.436499 -1.222065,-0.693568 -0.341149,-0.270792 -0.654977,-0.574393 -0.991666,-0.850771 -0.369382,-0.303422 -0.708144,-0.615053 -0.967232,-1.022546 -0.248465,-0.319489 -0.533358,-0.609456 -0.828399,-0.88623 -0.253318,-0.303085 -0.541028,-0.575759 -0.75922,-0.906886 -0.220356,-0.302828 -0.433559,-0.605272 -0.719875,-0.851188 -0.271671,-0.265184 -0.53596,-0.537619 -0.815982,-0.794547 -0.294471,-0.237611 -0.58908,-0.47458 -0.932598,-0.639413 -0.361139,-0.203539 -0.713423,-0.425274 -1.054974,-0.659944 -0.375357,-0.232185 -0.762142,-0.443781 -1.13556,-0.678936 -0.360065,-0.183842 -0.720739,-0.372297 -1.098629,-0.51581 -0.428082,-0.124982 -0.851072,-0.267285 -1.277257,-0.398663 -0.429952,-0.0873 -0.868944,-0.12957 -1.294847,-0.24064 -0.454424,-0.08071 -0.883471,-0.230735 -1.327239,-0.348894 -0.457648,-0.06475 -0.898279,-0.193556 -1.349093,-0.29229 -0.449995,-0.12636 -0.887473,-0.266935 -1.361339,-0.267876 -0.4722,-0.06173 -0.941298,-0.144402 -1.416382,-0.183535 -0.459592,-0.08857 -0.88662,-0.248019 -1.318949,-0.422877 C 11.92896,40.992867 11.492081,40.782648 11.03624,40.616757 10.617778,40.479632 10.194724,40.35501 9.7823272,40.200521 9.3863419,40.050076 8.9635028,39.991453 8.5752478,39.816104 8.1295854,39.626424 7.8220387,39.316967 7.5235132,38.941117 7.2840343,38.607362 7.0169452,38.298507 6.6764434,38.063222 6.3631004,37.793675 6.0984102,37.481049 5.8980049,37.117469 5.648651,36.784837 5.3846065,36.465935 5.2503558,36.064453 5.1734968,35.853058 5.0642456,35.64171 5.0062057,35.424575 4.9490336,35.210687 4.9499114,34.978814 4.8722076,34.768663 4.7695529,34.342151 4.704514,33.905726 4.5044307,33.508869 c 0,0 3.3547749,-1.709343 3.3547749,-1.709343 z"
       inkscape:connector-curvature="0"
       inkscape:export-filename="C:\Users\Smoosh\Dropbox\Bacteria_Vectors\healthPotion.png"
       inkscape:export-xdpi="125"
       inkscape:export-ydpi="125" />
    <path
       style="fill:#ff0000;stroke:none"
       d="M 13.818182,79.502238 C 10.192597,78.928976 6.0224418,77.202791 3.1818182,75.099444 -8.4064827,66.518851 -9.791886,49.977652 0.246074,40.047752 c 1.5935322,-1.576378 3.8117464,-3.293181 4.6908675,-3.630531 0.1696901,-0.06512 0.4317198,0.126508 0.7123867,0.520974 0.5895516,0.828592 2.2882358,2.616921 2.677446,2.818744 0.8429538,0.437108 5.3709418,1.855144 6.4711148,2.026567 1.193386,0.185947 2.974164,0.572971 5.565747,1.209626 2.524524,0.620182 5.297349,2.398463 7.125849,4.569986 2.095719,2.488868 3.295813,3.566667 4.773895,4.287411 1.743191,0.850018 5.459153,1.860388 7.453016,2.026476 l 1.580175,0.131627 0.46484,0.736355 c 0.430527,0.682 0.455747,0.838038 0.341656,2.113866 -0.530307,5.930151 -3.121342,11.437654 -7.362738,15.650238 -2.186182,2.171333 -4.20332,3.594136 -6.938313,4.893993 -4.306523,2.046754 -9.440805,2.817476 -13.983834,2.099154 z"
       id="path3860"
       inkscape:connector-curvature="0"
       inkscape:export-filename="C:\Users\Smoosh\Dropbox\Bacteria_Vectors\healthPotion.png"
       inkscape:export-xdpi="125"
       inkscape:export-ydpi="125" />
    <path
       style="fill:#ff0000;stroke:none"
       id="path3862"
       d="m 6.2192846,35.261322 c 0.2373521,0.292925 0.4854602,0.601191 0.7783057,0.844255 0.3252405,0.23836 0.6857561,0.45832 0.9652149,0.752838 0.3068107,0.247803 0.5763788,0.529005 0.8530047,0.808746 0.2137965,0.349017 0.4906638,0.64669 0.7055461,0.993503 0.2088302,0.368908 0.4711958,0.680971 0.795505,0.95535 0.257472,0.188991 0.478832,0.431056 0.739935,0.61548 0.115838,0.08182 0.242667,0.146988 0.360991,0.225168 0.368319,0.180322 0.720838,0.380708 1.091132,0.561772 0.465137,0.20275 0.922068,0.42674 1.396683,0.612328 0.07216,0.02211 0.147554,0.03556 0.216466,0.06632 0.142055,0.06341 0.267052,0.160631 0.407645,0.227218 0.205027,0.0971 0.416961,0.182029 0.62987,0.259806 0.07782,0.02046 0.157831,0.03393 0.233472,0.06139 0.216608,0.09849 0.288409,0.136517 0.512062,0.216889 0.258364,0.09284 0.52671,0.149941 0.789364,0.229155 0.525297,0.152384 1.07076,0.193894 1.614413,0.215981 0.07398,6.7e-5 0.148493,0.0091 0.221927,2.02e-4 0.17241,-0.02097 0.238766,-0.114484 0.232543,-0.11051 -3.857765,2.463301 -1.917305,2.22125 -3.306216,2.012889 -0.32931,-0.209143 -0.628203,-0.445746 -0.925318,-0.696407 -0.299689,-0.242521 -0.535447,-0.559757 -0.838389,-0.797966 -1.421672,-1.106837 3.012084,-2.366285 3.034058,-2.378454 0.0468,-0.02592 0.102102,0.03257 0.15442,0.04375 0.06078,0.01299 0.122838,0.01909 0.184257,0.02864 0.469503,0.01954 0.926412,0.105751 1.389009,0.179293 0.494921,0.06909 0.995363,0.08138 1.494314,0.08826 0.541807,0.0062 1.083719,0.0069 1.62556,0.0041 0.545953,-6.52e-4 1.091919,0.0012 1.63787,-0.0012 0.583054,0.111415 0.928813,0.306786 1.23692,0.81957 0.184698,0.379624 0.341334,0.79892 0.629077,1.114669 0.198657,0.353323 0.583663,0.49595 0.86331,0.764577 0.317178,0.263153 0.648148,0.507811 0.968686,0.766703 0.39279,0.234797 0.708629,0.571314 0.988073,0.929538 0.04803,0.054 0.100003,0.104729 0.144096,0.161986 0.04973,0.06458 0.08727,0.137938 0.136751,0.202713 0.168853,0.221059 0.378202,0.40343 0.546692,0.624143 0.248734,0.299279 0.625887,0.407759 0.92963,0.623978 0.343102,0.218292 0.691433,0.410959 1.030763,0.63363 0.330825,0.236638 0.605547,0.536013 0.954478,0.749483 0.206046,0.216546 0.479451,0.355814 0.701779,0.551686 0.202581,0.215598 0.0994,0.118195 0.306888,0.295004 0.217464,0.154765 0.361372,0.387971 0.569436,0.550913 0.09749,0.07635 0.203651,0.141144 0.301534,0.216994 0.328267,0.208375 0.648735,0.465209 0.920172,0.745737 0.281102,0.270763 0.56725,0.531945 0.826996,0.824717 0.286802,0.287184 0.526678,0.492149 0.881013,0.695789 0.0557,0.01999 0.114656,0.03252 0.167084,0.05996 0.08097,0.05427 0.267993,0.183261 0.358915,0.230692 0.183699,0.09583 0.378184,0.139568 0.579163,0.180513 0.497584,0.07822 1.002979,0.07505 1.505265,0.08051 0.496186,0.05773 0.970726,-0.117388 1.463036,-0.104838 0.427096,0.02355 0.846499,0.06519 1.264781,0.152889 0.445505,0.0272 0.822083,0.263097 1.248681,0.372647 0.187756,0.106515 0.416149,0.11655 0.612216,0.194262 0.201564,0.07989 0.383383,0.208055 0.586555,0.289694 0.398961,0.110752 0.571683,0.176853 0.748812,0.559923 0,0 -3.269858,1.836421 -3.269858,1.836421 l 0,0 C 41.333797,56.1779 41.037261,56.16048 40.84498,56.066813 c -0.380889,-0.17384 -0.761644,-0.334402 -1.166072,-0.448947 -0.411582,-0.128882 -0.804822,-0.307588 -1.241885,-0.338362 -0.400529,-0.0718 -0.809194,-0.08522 -1.215546,-0.08653 -0.481322,0.04557 -0.959742,0.110552 -1.445486,0.07283 -0.52594,-0.0073 -1.058033,-0.01613 -1.57203,-0.139691 -0.426789,-0.126108 -0.796342,-0.348279 -1.186886,-0.556297 -0.34142,-0.231042 -0.651888,-0.4883 -0.938469,-0.785176 -0.252415,-0.284701 -0.539965,-0.532992 -0.806627,-0.803478 -0.28653,-0.254368 -0.577521,-0.507488 -0.904408,-0.709527 -0.310353,-0.24453 -0.590294,-0.515587 -0.873023,-0.791168 -0.314577,-0.281967 -0.632153,-0.558304 -0.975738,-0.805685 -0.335511,-0.231469 -0.63296,-0.507559 -0.963791,-0.74541 -0.335813,-0.222231 -0.695755,-0.404761 -1.031111,-0.628402 -0.362503,-0.202943 -0.722871,-0.404912 -0.992907,-0.731617 -0.26856,-0.332912 -0.560717,-0.646629 -0.811349,-0.993909 -0.27248,-0.331122 -0.592366,-0.620663 -0.951828,-0.855805 -0.328842,-0.261136 -0.674154,-0.50075 -0.992025,-0.775934 -0.313288,-0.254313 -0.667246,-0.46205 -0.887271,-0.81358 -0.273715,-0.34975 -0.462912,-0.764229 -0.642731,-1.168234 -0.233014,-0.36467 -0.588737,-0.496482 -1.0156,-0.514456 -0.545906,-0.002 -1.091824,6.91e-4 -1.63773,0.0012 -0.544446,-0.0019 -1.088925,0.0016 -1.633312,-0.0092 -0.514395,-0.01623 -1.029874,-0.03528 -1.538446,-0.121068 -0.45891,-0.07909 -0.918811,-0.129803 -1.384943,-0.141425 -0.06469,1.1e-4 -0.129798,-0.0071 -0.194056,3.31e-4 -0.04242,0.0049 -0.159009,0.05899 -0.122867,0.03625 1.036276,-0.651997 2.106334,-1.250611 3.127193,-1.926491 0.01085,-0.0072 -0.325806,-0.200432 0.008,0.05749 0.28455,0.258991 0.540028,0.549836 0.835101,0.798174 0.267709,0.227563 0.558079,0.439772 0.881216,0.580891 1.569956,0.844061 -1.89349,2.657143 -3.256843,2.332963 -0.561506,-0.0441 -1.119965,-0.116173 -1.659349,-0.286581 C 13.123812,44.617537 12.610256,44.424115 12.087809,44.247295 11.660803,44.073742 11.255715,43.858559 10.829212,43.685513 10.357582,43.477597 9.8922943,43.254883 9.4136644,43.063086 9.0279325,42.883285 8.656093,42.671588 8.2894732,42.457403 7.8987897,42.188494 7.5366261,41.883527 7.1834345,41.567338 6.8374033,41.261708 6.5203449,40.945797 6.305177,40.531887 6.1042436,40.211264 5.8432639,39.932525 5.6412693,39.611323 5.3643883,39.334612 5.0876132,39.058226 4.7886539,38.804971 4.4931068,38.533884 4.1534303,38.315346 3.8401989,38.065588 3.5536456,37.79559 3.3045244,37.487331 3.002116,37.232806 c 0,0 3.2171686,-1.971484 3.2171686,-1.971484 z"
       inkscape:connector-curvature="0"
       inkscape:export-filename="C:\Users\Smoosh\Dropbox\Bacteria_Vectors\healthPotion.png"
       inkscape:export-xdpi="125"
       inkscape:export-ydpi="125" />
  </g>
  <g
     id="layer1"
     inkscape:label="Layer 1"
     inkscape:groupmode="layer">
    <path
       style="fill:#000000;fill-rule:evenodd;stroke:none"
       d="m 52.181818,-1.2727273 c -4.697152,3.1588542 -8.588269,7.5812616 -11.142462,12.7252913 -2.553684,5.144265 -3.761171,10.991459 -3.429218,16.807968 0.281522,4.773935 1.538103,9.382349 2.680058,13.870962 1.122881,4.49158 2.154461,8.963069 2.000145,13.321336 0,3e-6 0,6e-6 -10e-7,9e-6 -0.14048,4.641029 -1.581674,9.221513 -4.067518,13.052528 -2.483189,3.832626 -6.033976,6.954778 -10.076604,8.909635 -4.040911,1.958144 -8.623131,2.775514 -13.017563,2.359385 -4.394701,-0.411827 -8.6685297,-2.060761 -12.1497131,-4.648639 -1e-6,0 -2.1e-6,-10e-7 -3.1e-6,-2e-6 -3.48398611,-2.583845 -6.2396469,-6.150578 -7.8466316,-10.097299 -1.6120203,-3.944475 -2.112076,-8.349776 -1.4526949,-12.482469 2e-7,-10e-7 4e-7,-3e-6 6e-7,-4e-6 0.6533131,-4.133455 2.4778647,-8.093268 5.1345318,-11.227383 2.6513965,-3.138281 6.2029955,-5.537964 10.027064,-6.816772 l -3.500599,-9.367274 c -5.46611264,2.192981 -10.2268208,5.850675 -13.7259483,10.492615 -3.4938574,4.646106 -5.6445384,10.172271 -6.2249804,15.879479 -10e-7,3e-6 -10e-7,7e-6 -10e-7,1e-5 -0.574371,5.707962 0.436003,11.476385 2.863468,16.58968 1e-6,3e-6 3e-6,6e-6 4e-6,9e-6 2.4325059,5.111055 6.2365221,9.466247 10.89811531,12.540169 2.83e-6,2e-6 5.67e-6,4e-6 8.5e-6,6e-6 4.66439349,3.069884 10.10415159,4.80213 15.60755819,5.013324 5.503681,0.206893 10.982355,-1.112245 15.732163,-3.745838 4.748092,-2.636879 8.698541,-6.55161 11.358716,-11.198759 2.657521,-4.64876 3.990525,-9.97232 3.859949,-15.248987 -1e-6,-3e-6 -1e-6,-6e-6 -1e-6,-9e-6 C 45.564626,50.518326 44.242672,45.866294 42.838779,41.41167 41.45394,36.954005 39.978849,32.59269 39.48077,28.103104 38.863682,22.642741 39.69038,16.972199 41.891124,11.846901 44.091358,6.7213668 47.666373,2.1408278 52.181818,-1.2727273 z"
       id="path3797"
       inkscape:path-effect="#path-effect3799;#path-effect3801"
       inkscape:original-d="M 52.181818,-1.2727273 C 52.340287,5.0233875 40.58068,22.076141 38.545454,28.181818 37.496157,31.329709 46.471395,52.983152 44.000001,55.454546 42.598456,56.85609 8.3375022,28.98712 7.0909092,29.818182"
       inkscape:connector-curvature="0"
       sodipodi:nodetypes="cssc"
       inkscape:export-filename="C:\Users\Smoosh\Dropbox\Bacteria_Vectors\healthPotion.png"
       inkscape:export-xdpi="125"
       inkscape:export-ydpi="125" />
    <path
       style="fill:#000000;fill-rule:evenodd;stroke:none"
       d="m 31.818182,-6 c 0.669663,4.0618871 0.476847,8.17855 -0.49614,12.0039139 -0.961848,3.7178635 -2.667526,7.1888831 -5.193007,9.5200171 -10e-7,0 -10e-7,1e-6 -2e-6,1e-6 -1.827557,1.761629 -4.182746,3.002948 -6.691955,4.13033 -1e-6,0 -1e-6,0 -2e-6,1e-6 -2.044321,0.897331 -4.229678,1.669083 -6.509861,2.534987 -3.0071958,1.13849 -5.9969079,2.341258 -8.9664444,3.607795 l 4.8057318,8.769546 c 2.5460396,-1.756012 5.1336356,-3.463143 7.7608286,-5.119477 1.994243,-1.254338 4.120067,-2.53867 6.217409,-4.010468 2.611721,-1.801913 5.165811,-4.017561 7.126225,-6.77876 2.597966,-3.78625 3.711481,-8.1196 3.897903,-12.2981635 C 33.974745,2.0782684 33.28355,-2.1529136 31.818182,-6 z"
       id="path3833"
       inkscape:path-effect="#path-effect3835;#path-effect3837"
       inkscape:original-d="m 31.818182,-6 c 0.22025,2.0316022 2.228794,9.9295367 0.727273,12.1818182 -2.169173,3.2537594 -0.580253,7.9351888 -4.545456,10.9090908 -2.452614,1.83946 -4.346962,3.746461 -6.90909,5.454545 -0.943627,0.629085 -5.501726,2.698121 -6.363636,3.272728 -4.000769,2.667179 -5.8467216,1.846721 -8.3636365,4.363636"
       inkscape:connector-curvature="0"
       sodipodi:nodetypes="cssssc"
       inkscape:export-filename="C:\Users\Smoosh\Dropbox\Bacteria_Vectors\healthPotion.png"
       inkscape:export-xdpi="125"
       inkscape:export-ydpi="125" />
  </g>
</svg>
